<svg width="25" height="26" viewBox="0 0 25 26" fill="none" xmlns="http://www.w3.org/2000/svg">
<g filter="url(#filter0_d_1069_4958)">
<mask id="mask0_1069_4958" style="mask-type:alpha" maskUnits="userSpaceOnUse" x="3" y="0" width="19" height="19">
<rect x="3" width="19" height="19" fill="currentColor"/>
</mask>
<g mask="url(#mask0_1069_4958)">
<path d="M11.7085 13.4584H13.2918V10.2917H16.4585V8.70837H13.2918V5.54171H11.7085V8.70837H8.54183V10.2917H11.7085V13.4584ZM12.5002 17.4167C11.405 17.4167 10.3759 17.2089 9.41266 16.7933C8.44947 16.3776 7.61162 15.8136 6.89912 15.1011C6.18662 14.3886 5.62256 13.5507 5.20693 12.5875C4.79131 11.6243 4.5835 10.5952 4.5835 9.50004C4.5835 8.4049 4.79131 7.37573 5.20693 6.41254C5.62256 5.44935 6.18662 4.6115 6.89912 3.899C7.61162 3.1865 8.44947 2.62244 9.41266 2.20681C10.3759 1.79119 11.405 1.58337 12.5002 1.58337C13.5953 1.58337 14.6245 1.79119 15.5877 2.20681C16.5509 2.62244 17.3887 3.1865 18.1012 3.899C18.8137 4.6115 19.3778 5.44935 19.7934 6.41254C20.209 7.37573 20.4168 8.4049 20.4168 9.50004C20.4168 10.5952 20.209 11.6243 19.7934 12.5875C19.3778 13.5507 18.8137 14.3886 18.1012 15.1011C17.3887 15.8136 16.5509 16.3776 15.5877 16.7933C14.6245 17.2089 13.5953 17.4167 12.5002 17.4167ZM12.5002 15.8334C14.2682 15.8334 15.7658 15.2198 16.9929 13.9927C18.22 12.7657 18.8335 11.2681 18.8335 9.50004C18.8335 7.73198 18.22 6.23442 16.9929 5.00733C15.7658 3.78025 14.2682 3.16671 12.5002 3.16671C10.7321 3.16671 9.23454 3.78025 8.00745 5.00733C6.78037 6.23442 6.16683 7.73198 6.16683 9.50004C6.16683 11.2681 6.78037 12.7657 8.00745 13.9927C9.23454 15.2198 10.7321 15.8334 12.5002 15.8334Z" fill="currentColor"/>
</g>
</g>
<defs>
<filter id="filter0_d_1069_4958" x="0.583496" y="1.58337" width="23.8335" height="23.8334" filterUnits="userSpaceOnUse" color-interpolation-filters="sRGB">
<feFlood flood-opacity="0" result="BackgroundImageFix"/>
<feColorMatrix in="SourceAlpha" type="matrix" values="0 0 0 0 0 0 0 0 0 0 0 0 0 0 0 0 0 0 127 0" result="hardAlpha"/>
<feOffset dy="4"/>
<feGaussianBlur stdDeviation="2"/>
<feComposite in2="hardAlpha" operator="out"/>
<feColorMatrix type="matrix" values="0 0 0 0 0 0 0 0 0 0 0 0 0 0 0 0 0 0 0.25 0"/>
<feBlend mode="normal" in2="BackgroundImageFix" result="effect1_dropShadow_1069_4958"/>
<feBlend mode="normal" in="SourceGraphic" in2="effect1_dropShadow_1069_4958" result="shape"/>
</filter>
</defs>
</svg>
