<svg width="38" height="38" viewBox="0 0 38 38" fill="none" xmlns="http://www.w3.org/2000/svg">
<rect width="38" height="38" rx="13" fill="currentColor"/>
<path d="M28 10.7308V25.3462C28 25.54 27.9138 25.7258 27.7604 25.8629C27.6069 25.9999 27.3988 26.0769 27.1818 26.0769H13.2727C12.8387 26.0769 12.4225 26.2309 12.1156 26.505C11.8088 26.7791 11.6364 27.1508 11.6364 27.5385H25.5455C25.7625 27.5385 25.9706 27.6155 26.124 27.7525C26.2774 27.8895 26.3636 28.0754 26.3636 28.2692C26.3636 28.463 26.2774 28.6489 26.124 28.786C25.9706 28.923 25.7625 29 25.5455 29H10.8182C10.6012 29 10.3931 28.923 10.2396 28.786C10.0862 28.6489 10 28.463 10 28.2692V12.9231C10 12.1478 10.3448 11.4043 10.9586 10.8561C11.5723 10.308 12.4047 10 13.2727 10H27.1818C27.3988 10 27.6069 10.077 27.7604 10.214C27.9138 10.3511 28 10.537 28 10.7308Z" fill="currentColor"/>
</svg>
