<svg width="30" height="30" viewBox="0 0 30 30" fill="none" xmlns="http://www.w3.org/2000/svg">
<path d="M2.33333 29.25C1.88472 29.25 1.50868 29.0983 1.20521 28.7948C0.901736 28.4913 0.75 28.1153 0.75 27.6667C0.75 27.2181 0.901736 26.842 1.20521 26.5385C1.50868 26.2351 1.88472 26.0833 2.33333 26.0833H3.91667V16.5833H2.33333C1.88472 16.5833 1.50868 16.4316 1.20521 16.1281C0.901736 15.8247 0.75 15.4486 0.75 15C0.75 14.5514 0.901736 14.1753 1.20521 13.8719C1.50868 13.5684 1.88472 13.4167 2.33333 13.4167H3.91667V3.91667H2.33333C1.88472 3.91667 1.50868 3.76493 1.20521 3.46146C0.901736 3.15799 0.75 2.78194 0.75 2.33333C0.75 1.88472 0.901736 1.50868 1.20521 1.20521C1.50868 0.901736 1.88472 0.75 2.33333 0.75H27.6667C28.1153 0.75 28.4913 0.901736 28.7948 1.20521C29.0983 1.50868 29.25 1.88472 29.25 2.33333C29.25 2.78194 29.0983 3.15799 28.7948 3.46146C28.4913 3.76493 28.1153 3.91667 27.6667 3.91667H26.0833V13.4167H27.6667C28.1153 13.4167 28.4913 13.5684 28.7948 13.8719C29.0983 14.1753 29.25 14.5514 29.25 15C29.25 15.4486 29.0983 15.8247 28.7948 16.1281C28.4913 16.4316 28.1153 16.5833 27.6667 16.5833H26.0833V26.0833H27.6667C28.1153 26.0833 28.4913 26.2351 28.7948 26.5385C29.0983 26.842 29.25 27.2181 29.25 27.6667C29.25 28.1153 29.0983 28.4913 28.7948 28.7948C28.4913 29.0983 28.1153 29.25 27.6667 29.25H2.33333ZM7.08333 26.0833H22.9167V16.5833C22.4681 16.5833 22.092 16.4316 21.7885 16.1281C21.4851 15.8247 21.3333 15.4486 21.3333 15C21.3333 14.5514 21.4851 14.1753 21.7885 13.8719C22.092 13.5684 22.4681 13.4167 22.9167 13.4167V3.91667H7.08333V13.4167C7.53194 13.4167 7.90799 13.5684 8.21146 13.8719C8.51493 14.1753 8.66667 14.5514 8.66667 15C8.66667 15.4486 8.51493 15.8247 8.21146 16.1281C7.90799 16.4316 7.53194 16.5833 7.08333 16.5833V26.0833ZM15 21.3333C16.3194 21.3333 17.441 20.8781 18.3646 19.9677C19.2882 19.0573 19.75 17.9556 19.75 16.6625C19.75 15.6333 19.4531 14.7493 18.8594 14.0104C18.2656 13.2715 16.9792 11.7542 15 9.45833C13.0208 11.7278 11.7344 13.2385 11.1406 13.9906C10.5469 14.7427 10.25 15.6333 10.25 16.6625C10.25 17.9556 10.7118 19.0573 11.6354 19.9677C12.559 20.8781 13.6806 21.3333 15 21.3333Z" fill="currentColor"/>
</svg>
