<svg width="42" height="36" viewBox="0 0 42 36" fill="none" xmlns="http://www.w3.org/2000/svg">
<path fill-rule="evenodd" clip-rule="evenodd" d="M0.489532 3.64014C0.489532 1.98328 1.83268 0.640137 3.48953 0.640137H38.9895C40.6464 0.640137 41.9895 1.98328 41.9895 3.64014V32.1401C41.9895 33.797 40.6464 35.1401 38.9895 35.1401H3.48953C1.83268 35.1401 0.489532 33.797 0.489532 32.1401V3.64014ZM2.98953 4.64014C2.98953 3.81171 3.66111 3.14014 4.48953 3.14014H15.1592C15.7059 3.14014 15.9479 4.16373 15.5143 4.49664C13.3711 6.14175 11.9895 8.7296 11.9895 11.6401V11.6401C11.9895 11.7298 11.9174 11.8033 11.8278 11.8033H3.47489C3.20683 11.8033 2.98953 11.586 2.98953 11.318V4.64014ZM3.47489 14.2301C3.20683 14.2301 2.98953 14.4474 2.98953 14.7155V20.5397C2.98953 20.8078 3.20683 21.0251 3.47489 21.0251H5.82845C6.09651 21.0251 6.31381 21.2424 6.31381 21.5105V22.9665C6.31381 23.2346 6.09651 23.4519 5.82845 23.4519H3.47489C3.20683 23.4519 2.98953 23.6692 2.98953 23.9372V30.6401C2.98953 31.4686 3.66111 32.1401 4.48953 32.1401H15.1592C15.7059 32.1401 15.9479 31.1165 15.5143 30.7836C13.3711 29.1385 11.9895 26.5507 11.9895 23.6401V23.6401C11.9895 23.5368 11.9065 23.4519 11.8032 23.4519H9.22594C8.95789 23.4519 8.74059 23.2346 8.74059 22.9665V21.5105C8.74059 21.2424 8.95789 21.0251 9.22594 21.0251H11.6527C11.9208 21.0251 12.1381 20.8078 12.1381 20.5397V14.7155C12.1381 14.4474 11.9208 14.2301 11.6527 14.2301H3.47489ZM16.0781 16.84C16.04 16.7706 16.0209 16.6925 16.0209 16.6134V12.2887C16.0209 12.0206 15.7999 11.8033 15.5318 11.8033V11.8033C15.2514 11.8033 15.0243 11.5657 15.0573 11.2873C15.5038 7.52612 18.1016 4.64014 21.2395 4.64014C24.3774 4.64014 26.9753 7.52612 27.4217 11.2873C27.4548 11.5657 27.2316 11.8033 26.9512 11.8033H25.728C25.46 11.8033 25.2427 12.0206 25.2427 12.2887V22.9665C25.2427 23.2346 25.46 23.4519 25.728 23.4519H26.9541C27.234 23.4519 27.457 23.6887 27.4248 23.9668C26.9873 27.7407 24.3847 30.6401 21.2395 30.6401C18.0943 30.6401 15.4917 27.7407 15.0542 23.9668C15.022 23.6887 15.245 23.4519 15.5249 23.4519H15.5356C15.8036 23.4519 16.0209 23.2346 16.0209 22.9665V18.6669C16.0209 18.5877 16.04 18.5097 16.0781 18.4402C16.1747 18.264 16.277 18.093 16.3846 17.9275C16.4981 17.7531 16.4981 17.5272 16.3846 17.3527C16.277 17.1873 16.1747 17.0163 16.0781 16.84ZM29.1718 15.3939C29.1417 15.4592 29.1255 15.5302 29.1255 15.6022V19.6781C29.1255 19.7501 29.1417 19.821 29.1718 19.8864C29.2908 20.1455 29.3979 20.4112 29.4924 20.6828C29.5626 20.8847 29.7499 21.0251 29.9638 21.0251H38.8326C39.1007 21.0251 39.318 21.2424 39.318 21.5105V22.9665C39.318 23.2346 39.1007 23.4519 38.8326 23.4519H30.1759C30.0725 23.4519 29.9895 23.5368 29.9895 23.6401V23.6401C29.9895 26.5507 28.6079 29.1385 26.4648 30.7836C26.0311 31.1165 26.2731 32.1401 26.8199 32.1401H37.9895C38.818 32.1401 39.4895 31.4686 39.4895 30.6401V4.64014C39.4895 3.81171 38.818 3.14014 37.9895 3.14014H26.8199C26.2731 3.14014 26.0311 4.16373 26.4648 4.49664C28.6079 6.14175 29.9895 8.7296 29.9895 11.6401V11.6401C29.9895 11.7298 30.0616 11.8033 30.1513 11.8033H32.523C32.7911 11.8033 33.0084 12.0206 33.0084 12.2887V13.7448C33.0084 14.0128 32.7911 14.2301 32.523 14.2301H29.9724C29.7581 14.2301 29.5704 14.3712 29.5006 14.5738C29.4041 14.8537 29.2943 15.1273 29.1718 15.3939ZM39.318 12.2887C39.318 12.0206 39.1007 11.8033 38.8326 11.8033H34.4644C34.1964 11.8033 33.9791 12.0206 33.9791 12.2887V13.7448C33.9791 14.0128 34.1964 14.2301 34.4644 14.2301H38.8326C39.1007 14.2301 39.318 14.0128 39.318 13.7448V12.2887Z" fill="white" fill-opacity="0.8"/>
</svg>
