<svg width="29" height="29" viewBox="0 0 29 29" fill="none" xmlns="http://www.w3.org/2000/svg">
<mask id="mask0_1350_6048" style="mask-type:alpha" maskUnits="userSpaceOnUse" x="0" y="0" width="29" height="29">
<rect width="28.4199" height="28.4199" fill="currentColor"/>
</mask>
<g mask="url(#mask0_1350_6048)">
<path d="M8.28931 24.8674C7.63802 24.8674 7.08047 24.6355 6.61668 24.1717C6.15288 23.7079 5.92098 23.1504 5.92098 22.4991V7.10498H4.73682V4.73665H10.6576V3.55249H17.7626V4.73665H23.6834V7.10498H22.4993V22.4991C22.4993 23.1504 22.2674 23.7079 21.8036 24.1717C21.3398 24.6355 20.7822 24.8674 20.1309 24.8674H8.28931ZM20.1309 7.10498H8.28931V22.4991H20.1309V7.10498ZM10.6576 20.1308H13.026V9.47331H10.6576V20.1308ZM15.3943 20.1308H17.7626V9.47331H15.3943V20.1308Z" fill="currentColor"/>
</g>
</svg>
