<svg width="38" height="38" viewBox="0 0 38 38" fill="none" xmlns="http://www.w3.org/2000/svg">
<rect width="38" height="38" rx="13" fill="currentColor"/>
<path d="M17.5704 11.9862C16.3192 11.057 14.9323 10.8603 13.6889 11.0843C12.4663 11.3052 11.3846 11.93 10.6655 12.6495L10.6638 12.6511C9.85774 13.463 9.06734 14.4781 9.00647 15.9798C8.96908 16.7275 9.07951 17.8092 9.71253 18.6155L9.71427 18.6171C10.3934 19.4764 10.7881 19.9871 10.9838 20.4834C11.2012 21.0335 11.2055 21.5828 11.2125 22.3578L11.2142 22.5224C11.2194 23.3207 11.402 24.4152 11.8403 25.4102C12.275 26.3932 13.0115 27.3938 14.2036 27.8042L14.2341 27.8146L14.2654 27.8226C14.9671 27.9929 15.6149 27.9303 16.1027 27.5095C16.5331 27.136 16.7131 26.5803 16.8139 26.0784C16.907 25.6166 16.9531 25.0802 16.9983 24.5526L17.0157 24.3518C17.0696 23.7431 17.1313 23.1351 17.2609 22.5618C17.6261 20.9781 18.1356 20.693 18.3791 20.6248C18.9678 20.485 19.3373 20.5565 19.5877 20.6882C19.8538 20.8287 20.0877 21.0913 20.2816 21.5017C20.6816 22.3457 20.7964 23.5383 20.8946 24.6168C20.992 25.6897 21.2372 26.659 21.7015 27.2782C21.9415 27.5994 22.2815 27.8789 22.7398 27.9696C23.2023 28.062 23.6528 27.9359 24.0527 27.699C25.5309 26.8268 26.3865 25.0199 26.6196 22.6204C26.7309 21.4768 26.8587 20.95 27.0509 20.5204C27.1491 20.3011 27.2708 20.0931 27.4395 19.8249L27.6013 19.5687C27.7369 19.3575 27.8952 19.1094 28.0691 18.8219C28.3995 18.2782 28.9334 17.296 28.9942 16.1477C29.0577 14.9559 28.6073 13.6381 27.0856 12.4937C25.6248 11.3975 24.2658 11 23.0537 11.0594C21.8528 11.1181 20.8929 11.6232 20.2068 12.1677L20.1886 12.1813L20.1712 12.1974C19.5051 12.8085 19.1921 12.9217 18.986 12.9137C18.753 12.9049 18.38 12.737 17.6261 12.0319L17.6 12.0079L17.5704 11.9862ZM22.9354 14.046C23.5893 14.046 24.2519 14.2267 24.7762 14.658C25.3057 15.0924 25.6327 15.7309 25.7153 16.5355C25.7233 16.6143 25.7144 16.6938 25.6891 16.7694C25.6639 16.845 25.6227 16.9153 25.5681 16.9762C25.5134 17.0371 25.4463 17.0875 25.3705 17.1245C25.2948 17.1614 25.2119 17.1843 25.1266 17.1916C25.0413 17.199 24.9553 17.1908 24.8734 17.1675C24.7915 17.1442 24.7154 17.1062 24.6495 17.0557C24.5835 17.0052 24.529 16.9432 24.4889 16.8733C24.4489 16.8033 24.4242 16.7267 24.4162 16.648C24.3597 16.0874 24.1475 15.7534 23.9093 15.5582C23.6667 15.359 23.3336 15.2506 22.9354 15.2506C22.7624 15.2506 22.5966 15.1872 22.4743 15.0742C22.352 14.9613 22.2833 14.8081 22.2833 14.6483C22.2833 14.4886 22.352 14.3354 22.4743 14.2224C22.5966 14.1095 22.7624 14.046 22.9354 14.046Z" fill="currentColor"/>
</svg>
