<svg width="36" height="37" viewBox="0 0 36 37" fill="none" xmlns="http://www.w3.org/2000/svg">
<path d="M9.75709 14.7665C8.74434 14.7665 8.37505 16.1145 9.24359 16.6409L17.9575 21.9222C18.2736 22.1139 18.6685 22.1138 18.9847 21.9221L35.5153 11.8982C36.1616 11.5063 36.1616 10.5596 35.5153 10.1677L18.9848 0.143799C18.6686 -0.047933 18.2736 -0.0479329 17.9574 0.143799L3.09098 9.15859C2.22265 9.68513 2.59204 11.0329 3.60467 11.0329H17.4727C18.0241 11.0329 18.4711 11.4847 18.4711 12.042V13.7574C18.4711 14.3147 18.0241 14.7665 17.4727 14.7665H9.75709ZM1.51213 15.6834C0.846646 15.2799 0 15.7643 0 16.5487V27.073C0 27.9975 1.12793 28.4353 1.74024 27.7484L3.43758 25.8443C3.60279 25.659 3.69422 25.4183 3.69422 25.1689V17.5779C3.69422 17.2235 3.51021 16.895 3.20947 16.7126L1.51213 15.6834ZM18.9848 36.8562C18.6686 37.0479 18.2736 37.0479 17.9574 36.8562L6.02607 29.6212C5.72534 29.4388 5.54133 29.1104 5.54133 28.7559V19.9088C5.54133 19.1245 6.38797 18.64 7.05346 19.0436L17.9574 25.6556C18.2736 25.8473 18.6686 25.8473 18.9848 25.6556L29.8887 19.0436C30.5542 18.64 31.4009 19.1245 31.4009 19.9088V28.7559C31.4009 29.1104 31.2168 29.4388 30.9161 29.6212L18.9848 36.8562Z" fill="currentColor"/>
</svg>
