<svg width="26" height="37" viewBox="0 0 26 37" fill="none" xmlns="http://www.w3.org/2000/svg">
<path fill-rule="evenodd" clip-rule="evenodd" d="M2.85043 20.6136C3.74375 21.7014 6.01698 25.7317 6.49986 27.75H19.5004C19.9832 25.7335 22.2537 21.7033 23.147 20.6164C24.6736 18.7615 25.6345 16.5096 25.9161 14.1275C26.1939 11.75 25.7784 9.34311 24.7191 7.19465C23.6499 5.03023 21.9873 3.21156 19.9238 1.94898C17.8421 0.673569 15.4459 -0.00114227 13.002 1.45166e-06C10.5532 1.45166e-06 8.15371 0.675252 6.08012 1.94713C4.01609 3.20923 2.3529 5.02758 1.28294 7.19188C0.223115 9.33951 -0.193402 11.7457 0.0831755 14.1229C0.360829 16.4974 1.32008 18.7479 2.85043 20.6136ZM13.9287 7.4L8.35707 15.725H12.0715V21.275L17.6432 12.95H13.9287V7.4Z" fill="currentColor"/>
<path d="M6.49986 30.525C6.49986 30.2797 6.59769 30.0444 6.77184 29.8709C6.94599 29.6975 7.18218 29.6 7.42846 29.6H18.5718C18.818 29.6 19.0542 29.6975 19.2284 29.8709C19.4025 30.0444 19.5004 30.2797 19.5004 30.525C19.5004 30.7703 19.4025 31.0056 19.2284 31.1791C19.0542 31.3525 18.818 31.45 18.5718 31.45H7.42846C7.18218 31.45 6.94599 31.3525 6.77184 31.1791C6.59769 31.0056 6.49986 30.7703 6.49986 30.525ZM19.5004 33.3H6.49986V35.15C6.49986 35.6407 6.69553 36.1112 7.04382 36.4581C7.39212 36.8051 7.86451 37 8.35707 37H17.6431C18.1357 37 18.6081 36.8051 18.9564 36.4581C19.3047 36.1112 19.5004 35.6407 19.5004 35.15V33.3Z" fill="currentColor"/>
</svg>
