<svg width="38" height="38" viewBox="0 0 38 38" fill="none" xmlns="http://www.w3.org/2000/svg">
<rect width="38" height="38" rx="13" fill="currentColor"/>
<path d="M26.2133 13.9457C25.4289 12.6486 23.9908 12 22.422 12H14.578C13.0092 12 11.5711 12.6486 10.7867 13.9457C7.77983 18.4858 7.12616 25.3606 9.2179 26.7875C11.3096 28.2144 16.0161 21.9881 18.5 21.9881C20.9839 21.9881 25.5596 28.2144 27.7821 26.7875C29.8738 25.3606 29.2202 18.4858 26.2133 13.9457ZM15.8853 18.4858H14.578V19.7829H13.2706V18.4858H11.9633V17.1886H13.2706V15.8914H14.578V17.1886H15.8853V18.4858ZM22.9449 19.1343C22.9449 19.7829 22.422 20.3018 21.7683 20.3018C21.1147 20.3018 20.5917 19.7829 20.5917 19.1343C20.5917 18.4858 21.1147 17.9669 21.7683 17.9669C22.422 17.9669 22.9449 18.4858 22.9449 19.1343ZM25.4289 16.54C25.4289 17.1886 24.906 17.7075 24.2523 17.7075C23.5986 17.7075 23.0757 17.1886 23.0757 16.54C23.0757 15.8914 23.5986 15.3726 24.2523 15.3726C24.906 15.3726 25.4289 15.8914 25.4289 16.54Z" fill="currentColor"/>
</svg>
