<svg width="23" height="31" viewBox="0 0 23 31" fill="none" xmlns="http://www.w3.org/2000/svg">
<path d="M13.6125 29.6781C13.45 29.8135 13.2807 29.9219 13.1047 30.0031C12.9286 30.0844 12.7323 30.125 12.5156 30.125C12.299 30.125 12.0823 30.0776 11.8656 29.9828C11.649 29.888 11.4594 29.7594 11.2969 29.5969C10.1865 28.4052 9.36719 27.1865 8.83906 25.9406C8.31094 24.6948 8.04688 23.3813 8.04688 22C8.04688 20.9979 8.19583 19.9417 8.49375 18.8313C8.79167 17.7208 9.30625 16.2854 10.0375 14.525C10.6604 12.9813 11.0938 11.7964 11.3375 10.9703C11.5813 10.1443 11.7031 9.37917 11.7031 8.675C11.7031 7.75417 11.5 6.89427 11.0938 6.09531C10.6875 5.29635 10.051 4.49063 9.18438 3.67813C9.02188 3.51562 8.89323 3.32604 8.79844 3.10938C8.70365 2.89271 8.65625 2.67604 8.65625 2.45938C8.65625 2.24271 8.69688 2.04635 8.77813 1.87031C8.85938 1.69427 8.96771 1.525 9.10313 1.3625C9.26562 1.2 9.44844 1.07812 9.65156 0.996875C9.85469 0.915625 10.0646 0.875 10.2812 0.875C10.4979 0.875 10.701 0.915625 10.8906 0.996875C11.0802 1.07812 11.2563 1.18646 11.4188 1.32188C12.6104 2.43229 13.4974 3.59687 14.0797 4.81562C14.662 6.03437 14.9531 7.32083 14.9531 8.675C14.9531 9.62292 14.8109 10.6182 14.5266 11.6609C14.2422 12.7036 13.7479 14.0646 13.0438 15.7438C12.3667 17.3688 11.9062 18.6146 11.6625 19.4812C11.4187 20.3479 11.2969 21.174 11.2969 21.9594C11.2969 22.9073 11.4932 23.8214 11.8859 24.7016C12.2786 25.5818 12.8813 26.4688 13.6938 27.3625C13.8292 27.525 13.9375 27.701 14.0188 27.8906C14.1 28.0802 14.1406 28.2833 14.1406 28.5C14.1406 28.7167 14.1 28.9266 14.0188 29.1297C13.9375 29.3328 13.8021 29.5156 13.6125 29.6781ZM21.5344 29.6781C21.3719 29.8135 21.2026 29.9219 21.0266 30.0031C20.8505 30.0844 20.6542 30.125 20.4375 30.125C20.2208 30.125 20.0042 30.0776 19.7875 29.9828C19.5708 29.888 19.3813 29.7594 19.2188 29.5969C18.1083 28.4052 17.2891 27.1932 16.7609 25.9609C16.2328 24.7286 15.9688 23.4219 15.9688 22.0406C15.9688 21.0385 16.1177 19.9688 16.4156 18.8313C16.7135 17.6938 17.2281 16.2583 17.9594 14.525C18.5823 12.9813 19.0156 11.8031 19.2594 10.9906C19.5031 10.1781 19.625 9.41979 19.625 8.71563C19.625 7.79479 19.4219 6.92135 19.0156 6.09531C18.6094 5.26927 17.9729 4.46354 17.1062 3.67813C16.9438 3.51562 16.8219 3.33281 16.7406 3.12969C16.6594 2.92656 16.6188 2.71667 16.6188 2.5C16.6188 2.28333 16.6526 2.08698 16.7203 1.91094C16.788 1.7349 16.8896 1.56563 17.025 1.40313C17.1875 1.24063 17.3771 1.11198 17.5938 1.01719C17.8104 0.922396 18.0271 0.875 18.2438 0.875C18.4604 0.875 18.6568 0.915625 18.8328 0.996875C19.0089 1.07812 19.1781 1.18646 19.3406 1.32188C20.5323 2.43229 21.4193 3.59687 22.0016 4.81562C22.5839 6.03437 22.875 7.32083 22.875 8.675C22.875 9.62292 22.7328 10.6182 22.4484 11.6609C22.1641 12.7036 21.6698 14.0781 20.9656 15.7844C20.2885 17.4094 19.8281 18.6552 19.5844 19.5219C19.3406 20.3885 19.2188 21.201 19.2188 21.9594C19.2188 22.9073 19.4219 23.8349 19.8281 24.7422C20.2344 25.6495 20.8438 26.5365 21.6562 27.4031C21.7917 27.5656 21.8932 27.7417 21.9609 27.9312C22.0286 28.1208 22.0625 28.3104 22.0625 28.5C22.0625 28.7167 22.0219 28.9333 21.9406 29.15C21.8594 29.3667 21.724 29.5427 21.5344 29.6781ZM5.69062 29.6781C5.52812 29.8135 5.35885 29.9219 5.18281 30.0031C5.00677 30.0844 4.81042 30.125 4.59375 30.125C4.37708 30.125 4.16042 30.0776 3.94375 29.9828C3.72708 29.888 3.5375 29.7594 3.375 29.5969C2.26458 28.4052 1.44531 27.1932 0.917188 25.9609C0.389062 24.7286 0.125 23.4219 0.125 22.0406C0.125 21.0385 0.273958 19.9688 0.571875 18.8313C0.869792 17.6938 1.38437 16.2583 2.11563 14.525C2.73854 12.9813 3.17188 11.8031 3.41563 10.9906C3.65938 10.1781 3.78125 9.41979 3.78125 8.71563C3.78125 7.79479 3.57812 6.92135 3.17188 6.09531C2.76562 5.26927 2.12917 4.46354 1.2625 3.67813C1.07292 3.51562 0.9375 3.33281 0.85625 3.12969C0.775 2.92656 0.734375 2.71667 0.734375 2.5C0.734375 2.28333 0.775 2.08021 0.85625 1.89062C0.9375 1.70104 1.04583 1.525 1.18125 1.3625C1.34375 1.2 1.52656 1.07812 1.72969 0.996875C1.93281 0.915625 2.14271 0.875 2.35938 0.875C2.57604 0.875 2.77917 0.915625 2.96875 0.996875C3.15833 1.07812 3.33438 1.18646 3.49688 1.32188C4.68854 2.43229 5.57552 3.5901 6.15781 4.79531C6.7401 6.00052 7.03125 7.29375 7.03125 8.675C7.03125 9.62292 6.89583 10.6182 6.625 11.6609C6.35417 12.7036 5.86667 14.0646 5.1625 15.7438C4.48542 17.3688 4.025 18.6146 3.78125 19.4812C3.5375 20.3479 3.41563 21.174 3.41563 21.9594C3.41563 22.9073 3.61198 23.8349 4.00469 24.7422C4.3974 25.6495 5 26.5365 5.8125 27.4031C5.94792 27.5656 6.04948 27.7417 6.11719 27.9312C6.1849 28.1208 6.21875 28.3104 6.21875 28.5C6.21875 28.7167 6.17812 28.9333 6.09687 29.15C6.01562 29.3667 5.88021 29.5427 5.69062 29.6781Z" fill="currentColor"/>
</svg>
