<svg width="32" height="35" viewBox="0 0 32 35" fill="none" xmlns="http://www.w3.org/2000/svg">
<path d="M29.9849 0.00184139C29.9597 0.00184139 29.9352 0.00147732 29.91 0.00104708C29.528 -0.00547449 26.2924 -0.0206189 24.9533 1.29807C24.1108 2.12685 23.5729 2.83609 23.2835 3.91133C22.9117 5.29294 21.8695 6.48298 20.4523 6.48298H2.56776C0.859051 6.48298 -0.372413 8.13842 0.102857 9.79652L2.73032 18.9631C2.73801 18.9838 2.75598 19.002 2.76368 19.0201C3.36484 20.718 4.92998 21.9419 6.7981 22.0215C6.80964 22.0219 6.82105 22.0247 6.83154 22.0296C6.84305 22.0349 6.85558 22.0377 6.86826 22.0377H23.0167C23.2997 22.0377 23.5291 22.2695 23.5291 22.5553C23.5291 22.5736 23.5255 23.3463 23.0184 24.3709C22.5052 25.4079 22.2486 25.9264 20.1956 25.9264H3.51556C0.949397 25.9264 0.949397 29.8151 3.51556 29.8151H19.939C23.0184 29.8151 25.328 28.0004 26.0978 26.1856C26.8677 24.3709 26.8677 22.8155 26.8677 22.8155V6.48298C26.8677 5.12453 27.4553 3.89053 28.664 3.89053H30.0754C30.5858 3.89053 31.0754 3.68568 31.4363 3.32104C31.7972 2.95641 32 2.46186 32 1.94618C32 1.43051 31.7972 0.935961 31.4363 0.571326C31.0754 0.206691 30.5858 0.00184139 30.0754 0.00184139H29.9849ZM19.6824 29.8151C18.1427 29.8151 17.1162 30.8521 17.1162 32.4075C17.1162 33.963 18.1427 35 19.6824 35C21.2221 35 22.2486 33.963 22.2486 32.4075C22.2486 30.8521 21.2221 29.8151 19.6824 29.8151ZM6.85158 29.8151C5.31188 29.8151 4.28541 30.8521 4.28541 32.4075C4.28541 33.963 5.31188 35 6.85158 35C8.39128 35 9.41774 33.963 9.41774 32.4075C9.41774 30.8521 8.39128 29.8151 6.85158 29.8151Z" fill="currentColor"/>
</svg>
