<svg width="29" height="23" viewBox="0 0 29 23" fill="none" xmlns="http://www.w3.org/2000/svg">
<path d="M14.5774 12.4997C16.984 12.4997 19.1644 13.3354 20.7641 14.5042C22.2841 15.6164 23.5716 17.2691 23.5716 19.0472C23.5716 20.0232 23.1746 20.832 22.5488 21.4332C21.9603 22.0008 21.192 22.3688 20.4005 22.6195C18.8188 23.1223 16.736 23.2841 14.5774 23.2841C12.4188 23.2841 10.336 23.1223 8.75426 22.6195C7.96277 22.3688 7.1944 22.0008 6.60464 21.4332C5.98147 20.8333 5.58316 20.0245 5.58316 19.0485C5.58316 17.2704 6.87061 15.6177 8.39063 14.5056C9.99032 13.3354 12.1708 12.4997 14.5774 12.4997ZM23.5716 13.8477C24.913 13.8477 26.1311 14.3128 27.0318 14.9706C27.8541 15.5732 28.7111 16.5748 28.7111 17.7962C28.7111 18.4931 28.422 19.0714 27.9916 19.4853C27.5984 19.8641 27.1127 20.0865 26.6694 20.2267C26.0655 20.4181 25.3524 20.5165 24.6123 20.5597C24.7691 20.0946 24.8565 19.5891 24.8565 19.0472C24.8565 16.9779 23.6243 15.22 22.2456 14C22.681 13.8989 23.1256 13.8478 23.5716 13.8477ZM5.58316 13.8477C6.04186 13.8477 6.48643 13.9016 6.90916 14C5.53176 15.22 4.29827 16.9779 4.29827 19.0472C4.29827 19.5891 4.38564 20.0946 4.5424 20.5597C3.8023 20.5165 3.09047 20.4181 2.48529 20.2267C2.042 20.0865 1.55632 19.8641 1.16186 19.4853C0.93556 19.2729 0.754592 19.0128 0.630812 18.7219C0.507032 18.4311 0.443236 18.1161 0.443605 17.7975C0.443605 16.5775 1.29934 15.5746 2.12295 14.972C3.14155 14.2389 4.34796 13.847 5.58316 13.8477ZM22.9291 5.75937C23.7811 5.75937 24.5981 6.11444 25.2005 6.74646C25.8029 7.37848 26.1414 8.23569 26.1414 9.12951C26.1414 10.0233 25.8029 10.8805 25.2005 11.5126C24.5981 12.1446 23.7811 12.4997 22.9291 12.4997C22.0772 12.4997 21.2602 12.1446 20.6578 11.5126C20.0553 10.8805 19.7169 10.0233 19.7169 9.12951C19.7169 8.23569 20.0553 7.37848 20.6578 6.74646C21.2602 6.11444 22.0772 5.75937 22.9291 5.75937ZM6.2256 5.75937C7.07753 5.75937 7.89457 6.11444 8.49698 6.74646C9.09939 7.37848 9.43782 8.23569 9.43782 9.12951C9.43782 10.0233 9.09939 10.8805 8.49698 11.5126C7.89457 12.1446 7.07753 12.4997 6.2256 12.4997C5.37367 12.4997 4.55662 12.1446 3.95422 11.5126C3.35181 10.8805 3.01338 10.0233 3.01338 9.12951C3.01338 8.23569 3.35181 7.37848 3.95422 6.74646C4.55662 6.11444 5.37367 5.75937 6.2256 5.75937ZM14.5774 0.367142C15.9405 0.367142 17.2477 0.93525 18.2116 1.94649C19.1754 2.95773 19.7169 4.32926 19.7169 5.75937C19.7169 7.18948 19.1754 8.56101 18.2116 9.57225C17.2477 10.5835 15.9405 11.1516 14.5774 11.1516C13.2143 11.1516 11.907 10.5835 10.9432 9.57225C9.9793 8.56101 9.43782 7.18948 9.43782 5.75937C9.43782 4.32926 9.9793 2.95773 10.9432 1.94649C11.907 0.93525 13.2143 0.367142 14.5774 0.367142Z" fill="currentColor"/>
</svg>
