<svg width="24" height="25" viewBox="0 0 24 25" fill="none" xmlns="http://www.w3.org/2000/svg">
<mask id="mask0_1141_13865" style="mask-type:alpha" maskUnits="userSpaceOnUse" x="0" y="0" width="24" height="25">
<rect width="24" height="25" fill="currentColor"/>
</mask>
<g mask="url(#mask0_1141_13865)">
<path d="M12 21.8751L10.55 20.5209C8.86667 18.9411 7.475 17.5782 6.375 16.4324C5.275 15.2865 4.4 14.2579 3.75 13.3464C3.1 12.435 2.64583 11.5973 2.3875 10.8334C2.12917 10.0695 2 9.28828 2 8.48966C2 6.85772 2.525 5.49487 3.575 4.40112C4.625 3.30737 5.93333 2.7605 7.5 2.7605C8.36667 2.7605 9.19167 2.95147 9.975 3.33341C10.7583 3.71536 11.4333 4.25355 12 4.948C12.5667 4.25355 13.2417 3.71536 14.025 3.33341C14.8083 2.95147 15.6333 2.7605 16.5 2.7605C18.0667 2.7605 19.375 3.30737 20.425 4.40112C21.475 5.49487 22 6.85772 22 8.48966C22 9.28828 21.8708 10.0695 21.6125 10.8334C21.3542 11.5973 20.9 12.435 20.25 13.3464C19.6 14.2579 18.725 15.2865 17.625 16.4324C16.525 17.5782 15.1333 18.9411 13.45 20.5209L12 21.8751ZM12 19.0626C13.6 17.5695 14.9167 16.2891 15.95 15.2214C16.9833 14.1537 17.8 13.2249 18.4 12.435C19 11.645 19.4167 10.9419 19.65 10.3256C19.8833 9.70928 20 9.0973 20 8.48966C20 7.448 19.6667 6.57994 19 5.8855C18.3333 5.19105 17.5 4.84383 16.5 4.84383C15.7167 4.84383 14.9917 5.07387 14.325 5.53394C13.6583 5.994 13.2 6.57994 12.95 7.29175H11.05C10.8 6.57994 10.3417 5.994 9.675 5.53394C9.00833 5.07387 8.28333 4.84383 7.5 4.84383C6.5 4.84383 5.66667 5.19105 5 5.8855C4.33333 6.57994 4 7.448 4 8.48966C4 9.0973 4.11667 9.70928 4.35 10.3256C4.58333 10.9419 5 11.645 5.6 12.435C6.2 13.2249 7.01667 14.1537 8.05 15.2214C9.08333 16.2891 10.4 17.5695 12 19.0626Z" fill="currentColor"/>
</g>
</svg>
