<svg width="25" height="22" viewBox="0 0 25 22" fill="none" xmlns="http://www.w3.org/2000/svg">
<path d="M24.2023 10.8736L12.8435 0.42025C12.7617 0.344781 12.6645 0.284907 12.5576 0.244055C12.4507 0.203202 12.336 0.182175 12.2202 0.182175C12.1045 0.182175 11.9898 0.203202 11.8829 0.244055C11.7759 0.284907 11.6788 0.344781 11.597 0.42025L0.238168 10.8736C-0.0927519 11.1784 -0.280273 11.5924 -0.280273 12.0241C-0.280273 12.9206 0.511178 13.6495 1.48463 13.6495H2.68146V21.1086C2.68146 21.5581 3.07581 21.9213 3.56392 21.9213H10.4553V16.2324H13.5439V21.9213H20.8766C21.3647 21.9213 21.759 21.5581 21.759 21.1086V13.6495H22.9559C23.4247 13.6495 23.8742 13.4794 24.2051 13.1721C24.8917 12.5371 24.8917 11.5086 24.2023 10.8736Z" fill="currentColor"/>
</svg>
