<svg width="38" height="35" viewBox="0 0 38 35" fill="none" xmlns="http://www.w3.org/2000/svg">
<path d="M34.5455 31.5H38V35H0V31.5H3.45455V1.75C3.45455 1.28587 3.63653 0.840752 3.96045 0.512563C4.28438 0.184374 4.72372 0 5.18182 0H32.8182C33.2763 0 33.7156 0.184374 34.0396 0.512563C34.3635 0.840752 34.5455 1.28587 34.5455 1.75V31.5ZM17.2727 10.5H13.8182V14H17.2727V17.5H20.7273V14H24.1818V10.5H20.7273V7H17.2727V10.5ZM22.4545 31.5H25.9091V21H12.0909V31.5H15.5455V24.5H22.4545V31.5Z" fill="currentColor"/>
</svg>
