<svg width="38" height="28" viewBox="0 0 38 28" fill="none" xmlns="http://www.w3.org/2000/svg">
<path d="M0.770813 10.3716C1.70583 11.3157 3.19085 11.4083 4.1992 10.5567C12.761 3.44793 25.1912 3.44793 33.7714 10.5382C34.7981 11.3898 36.3014 11.3157 37.2364 10.3716C38.3181 9.27934 38.2448 7.46512 37.0531 6.48397C26.5846 -2.16132 11.441 -2.16132 0.954149 6.48397C-0.237538 7.44661 -0.329206 9.26083 0.770813 10.3716ZM14.9977 24.7372L17.6928 27.4585C18.4078 28.1805 19.5628 28.1805 20.2778 27.4585L22.9729 24.7372C23.8345 23.8671 23.6512 22.3676 22.5512 21.7937C21.4422 21.2187 20.2136 20.9188 18.967 20.9188C17.7204 20.9188 16.4917 21.2187 15.3827 21.7937C14.3377 22.3676 14.136 23.8671 14.9977 24.7372ZM8.15927 17.8321C9.05762 18.7392 10.4693 18.8317 11.5143 18.0727C13.7016 16.5101 16.3151 15.6709 18.9945 15.6709C21.6739 15.6709 24.2873 16.5101 26.4746 18.0727C27.5196 18.8132 28.9313 18.7392 29.8296 17.8321L29.848 17.8136C30.948 16.7028 30.8747 14.8145 29.6096 13.9074C23.3029 9.29785 14.7044 9.29785 8.37928 13.9074C7.11425 14.8331 7.04092 16.7028 8.15927 17.8321Z" fill="currentColor"/>
</svg>
