<svg width="18" height="22" viewBox="0 0 18 22" fill="none" xmlns="http://www.w3.org/2000/svg">
<path d="M0 18.4783V16.3043H2.17172V8.69565C2.17172 7.19203 2.62416 5.85598 3.52904 4.6875C4.43392 3.51902 5.61027 2.75362 7.05808 2.3913V1.63043C7.05808 1.17754 7.21644 0.792572 7.53314 0.475543C7.84985 0.158514 8.23443 0 8.68687 0C9.13931 0 9.52388 0.158514 9.84059 0.475543C10.1573 0.792572 10.3157 1.17754 10.3157 1.63043V2.3913C11.7635 2.75362 12.9398 3.51902 13.8447 4.6875C14.7496 5.85598 15.202 7.19203 15.202 8.69565V16.3043H17.3737V18.4783H0ZM8.68687 21.7391C8.08965 21.7391 7.57839 21.5263 7.15309 21.1005C6.7278 20.6748 6.51515 20.163 6.51515 19.5652H10.8586C10.8586 20.163 10.6459 20.6748 10.2206 21.1005C9.79535 21.5263 9.28409 21.7391 8.68687 21.7391Z" fill="currentColor"/>
</svg>
