<svg width="34" height="34" viewBox="0 0 34 34" fill="none" xmlns="http://www.w3.org/2000/svg">
<path d="M19.5 3C19.5 1.61929 18.3807 0.5 17 0.5C15.6193 0.5 14.5 1.61929 14.5 3L19.5 3ZM14.5 31C14.5 32.3807 15.6193 33.5 17 33.5C18.3807 33.5 19.5 32.3807 19.5 31H14.5ZM31 19.5C32.3807 19.5 33.5 18.3807 33.5 17C33.5 15.6193 32.3807 14.5 31 14.5V19.5ZM3 14.5C1.61929 14.5 0.5 15.6193 0.5 17C0.5 18.3807 1.61929 19.5 3 19.5L3 14.5ZM14.5 3L14.5 31H19.5V3L14.5 3ZM31 14.5L3 14.5L3 19.5L31 19.5V14.5Z" fill="currentColor"/>
</svg>
