<svg width="42" height="37" viewBox="0 0 42 37" fill="none" xmlns="http://www.w3.org/2000/svg">
<path d="M41.9854 18.4639C41.9854 19.7646 40.8917 20.7836 39.6521 20.7836H37.3187L37.3698 32.3605C37.3698 32.5557 37.3552 32.7508 37.3333 32.9459V34.1094C37.3333 35.7064 36.0281 37 34.4167 37H33.25C33.1698 37 33.0896 37 33.0094 36.9928C32.9073 37 32.8052 37 32.7031 37H28.5833C26.9719 37 25.6667 35.7064 25.6667 34.1094V27.75C25.6667 26.4709 24.624 25.4375 23.3333 25.4375H18.6667C17.376 25.4375 16.3333 26.4709 16.3333 27.75V34.1094C16.3333 35.7064 15.0281 37 13.4167 37H9.34062C9.23125 37 9.12187 36.9928 9.0125 36.9855C8.925 36.9928 8.8375 37 8.75 37H7.58333C5.97187 37 4.66667 35.7064 4.66667 34.1094V26.0156C4.66667 25.9506 4.66667 25.8783 4.67396 25.8133V20.7836H2.33333C1.02083 20.7836 0 19.7719 0 18.4639C0 17.8135 0.21875 17.2354 0.729167 16.7295L19.425 0.578125C19.9354 0.0722656 20.5187 0 21.0292 0C21.5396 0 22.1229 0.144531 22.5604 0.505859L41.1833 16.7295C41.7667 17.2354 42.0583 17.8135 41.9854 18.4639Z" fill="currentColor"/>
</svg>
