<svg width="38" height="38" viewBox="0 0 38 38" fill="none" xmlns="http://www.w3.org/2000/svg">
<rect width="38" height="38" rx="13" fill="currentColor"/>
<path d="M26.8665 10.0009C26.8523 10.0009 26.8386 10.0008 26.8244 10.0005C26.6095 9.99718 24.7895 9.9894 24.0362 10.6676C23.5623 11.0938 23.2598 11.4586 23.097 12.0115C22.8878 12.7221 22.3016 13.3341 21.5044 13.3341H11.4444C10.4832 13.3341 9.79052 14.1855 10.0579 15.0382L11.5358 19.7524C11.5401 19.7631 11.5502 19.7724 11.5546 19.7818C11.8927 20.655 12.7731 21.2844 13.8239 21.3253C13.8304 21.3256 13.8368 21.327 13.8427 21.3295C13.8492 21.3323 13.8563 21.3337 13.8634 21.3337H22.9469C23.1061 21.3337 23.2351 21.4529 23.2351 21.5999C23.2351 21.6093 23.2331 22.0067 22.9479 22.5336C22.6592 23.0669 22.5148 23.3336 21.36 23.3336H11.9775C10.534 23.3336 10.534 25.3335 11.9775 25.3335H21.2157C22.9479 25.3335 24.247 24.4002 24.68 23.4669C25.1131 22.5336 25.1131 21.7337 25.1131 21.7337V13.3341C25.1131 12.6355 25.4436 12.0008 26.1235 12.0008H26.9174C27.2045 12.0008 27.4799 11.8955 27.6829 11.708C27.8859 11.5204 28 11.2661 28 11.0009C28 10.7357 27.8859 10.4814 27.6829 10.2938C27.4799 10.1063 27.2045 10.0009 26.9174 10.0009H26.8665ZM21.0714 25.3335C20.2053 25.3335 19.6279 25.8668 19.6279 26.6667C19.6279 27.4667 20.2053 28 21.0714 28C21.9374 28 22.5148 27.4667 22.5148 26.6667C22.5148 25.8668 21.9374 25.3335 21.0714 25.3335ZM13.854 25.3335C12.9879 25.3335 12.4105 25.8668 12.4105 26.6667C12.4105 27.4667 12.9879 28 13.854 28C14.7201 28 15.2975 27.4667 15.2975 26.6667C15.2975 25.8668 14.7201 25.3335 13.854 25.3335Z" fill="currentColor"/>
</svg>
