<svg width="34" height="34" viewBox="0 0 34 34" fill="none" xmlns="http://www.w3.org/2000/svg">
<path d="M17.9585 32.6666C17.2918 33.3333 16.5002 33.6666 15.5835 33.6666C14.6668 33.6666 13.8752 33.3333 13.2085 32.6666L1.29183 20.7499C0.652941 20.111 0.333496 19.3263 0.333496 18.3958C0.333496 17.4652 0.652941 16.6805 1.29183 16.0416L15.9585 1.33325C16.2641 1.0277 16.6252 0.784641 17.0418 0.604085C17.4585 0.42353 17.9029 0.333252 18.3752 0.333252H30.2918C31.2085 0.333252 31.9932 0.659641 32.646 1.31242C33.2988 1.9652 33.6252 2.74992 33.6252 3.66659V15.5833C33.6252 16.0555 33.5349 16.4999 33.3543 16.9166C33.1738 17.3333 32.9307 17.6944 32.6252 17.9999L17.9585 32.6666ZM26.1252 10.3333C26.8196 10.3333 27.4099 10.0902 27.896 9.60408C28.3821 9.11797 28.6252 8.5277 28.6252 7.83325C28.6252 7.13881 28.3821 6.54853 27.896 6.06242C27.4099 5.57631 26.8196 5.33325 26.1252 5.33325C25.4307 5.33325 24.8404 5.57631 24.3543 6.06242C23.8682 6.54853 23.6252 7.13881 23.6252 7.83325C23.6252 8.5277 23.8682 9.11797 24.3543 9.60408C24.8404 10.0902 25.4307 10.3333 26.1252 10.3333ZM15.5835 30.3333L30.2918 15.5833V3.66659H18.3752L3.66683 18.4166L15.5835 30.3333Z" fill="currentColor"/>
</svg>
