<svg width="36" height="28" viewBox="0 0 36 28" fill="none" xmlns="http://www.w3.org/2000/svg">
<path d="M18 22.75C18.4958 22.75 18.9115 22.5823 19.2469 22.2469C19.5823 21.9115 19.75 21.4958 19.75 21C19.75 20.5042 19.5823 20.0885 19.2469 19.7531C18.9115 19.4177 18.4958 19.25 18 19.25C17.5042 19.25 17.0885 19.4177 16.7531 19.7531C16.4177 20.0885 16.25 20.5042 16.25 21C16.25 21.4958 16.4177 21.9115 16.7531 22.2469C17.0885 22.5823 17.5042 22.75 18 22.75ZM18 15.75C18.4958 15.75 18.9115 15.5823 19.2469 15.2469C19.5823 14.9115 19.75 14.4958 19.75 14C19.75 13.5042 19.5823 13.0885 19.2469 12.7531C18.9115 12.4177 18.4958 12.25 18 12.25C17.5042 12.25 17.0885 12.4177 16.7531 12.7531C16.4177 13.0885 16.25 13.5042 16.25 14C16.25 14.4958 16.4177 14.9115 16.7531 15.2469C17.0885 15.5823 17.5042 15.75 18 15.75ZM18 8.75C18.4958 8.75 18.9115 8.58229 19.2469 8.24687C19.5823 7.91146 19.75 7.49583 19.75 7C19.75 6.50417 19.5823 6.08854 19.2469 5.75313C18.9115 5.41771 18.4958 5.25 18 5.25C17.5042 5.25 17.0885 5.41771 16.7531 5.75313C16.4177 6.08854 16.25 6.50417 16.25 7C16.25 7.49583 16.4177 7.91146 16.7531 8.24687C17.0885 8.58229 17.5042 8.75 18 8.75ZM32 28H4C3.0375 28 2.21354 27.6573 1.52813 26.9719C0.842708 26.2865 0.5 25.4625 0.5 24.5V17.5C1.4625 17.5 2.28646 17.1573 2.97187 16.4719C3.65729 15.7865 4 14.9625 4 14C4 13.0375 3.65729 12.2135 2.97187 11.5281C2.28646 10.8427 1.4625 10.5 0.5 10.5V3.5C0.5 2.5375 0.842708 1.71354 1.52813 1.02813C2.21354 0.342708 3.0375 0 4 0H32C32.9625 0 33.7865 0.342708 34.4719 1.02813C35.1573 1.71354 35.5 2.5375 35.5 3.5V10.5C34.5375 10.5 33.7135 10.8427 33.0281 11.5281C32.3427 12.2135 32 13.0375 32 14C32 14.9625 32.3427 15.7865 33.0281 16.4719C33.7135 17.1573 34.5375 17.5 35.5 17.5V24.5C35.5 25.4625 35.1573 26.2865 34.4719 26.9719C33.7865 27.6573 32.9625 28 32 28ZM32 24.5V20.0375C30.9208 19.3958 30.0677 18.5427 29.4406 17.4781C28.8135 16.4135 28.5 15.2542 28.5 14C28.5 12.7458 28.8135 11.5865 29.4406 10.5219C30.0677 9.45729 30.9208 8.60417 32 7.9625V3.5H4V7.9625C5.07917 8.60417 5.93229 9.45729 6.55938 10.5219C7.18646 11.5865 7.5 12.7458 7.5 14C7.5 15.2542 7.18646 16.4135 6.55938 17.4781C5.93229 18.5427 5.07917 19.3958 4 20.0375V24.5H32Z" fill="currentColor"/>
</svg>
