<svg width="38" height="38" viewBox="0 0 38 38" fill="none" xmlns="http://www.w3.org/2000/svg">
<rect width="38" height="38" rx="13" fill="currentColor"/>
<path d="M9.40569 17.5562C9.8978 18.062 10.6794 18.1116 11.2101 17.6554C15.7163 13.8471 22.2585 13.8471 26.7744 17.6455C27.3148 18.1017 28.106 18.062 28.5981 17.5562C29.1674 16.9711 29.1288 15.9992 28.5016 15.4736C22.9919 10.8421 15.0216 10.8421 9.50218 15.4736C8.87498 15.9893 8.82673 16.9612 9.40569 17.5562ZM16.8935 25.2521L18.312 26.7099C18.6883 27.0967 19.2962 27.0967 19.6725 26.7099L21.091 25.2521C21.5445 24.7859 21.448 23.9826 20.869 23.6752C20.2854 23.3672 19.6387 23.2065 18.9826 23.2065C18.3265 23.2065 17.6798 23.3672 17.0962 23.6752C16.5462 23.9826 16.44 24.7859 16.8935 25.2521ZM13.2944 21.5529C13.7672 22.0388 14.5102 22.0884 15.0602 21.6818C16.2114 20.8447 17.5869 20.3951 18.9971 20.3951C20.4073 20.3951 21.7828 20.8447 22.934 21.6818C23.484 22.0785 24.227 22.0388 24.6998 21.5529L24.7095 21.543C25.2884 20.9479 25.2498 19.9364 24.584 19.4504C21.2647 16.981 16.7391 16.981 13.4101 19.4504C12.7443 19.9463 12.7057 20.9479 13.2944 21.5529Z" fill="currentColor"/>
</svg>
879 6.43369 4.31232 6.45303 3.88243 6.88292V6.88292C3.42049 7.34486 3.44712 8.09677 3.8789 8.58703C5.43135 10.3497 6.37303 12.6633 6.37303 15.1969C6.37303 17.4966 5.5971 19.6152 4.29276 21.305C3.91066 21.8 3.91034 22.5115 4.35252 22.9536V22.9536ZM1.10914 19.7102C1.56421 20.1653 2.3125 20.1615 2.68303 19.6353C3.56706 18.3798 4.08619 16.8489 4.08619 15.1967C4.08619 13.2383 3.35682 11.4503 2.15491 10.0895C1.76437 9.6473 1.08844 9.67691 0.671275 10.0941V10.0941C0.199042 10.5663 0.250253 11.3404 0.659923 11.8679C1.37409 12.7873 1.79932 13.9424 1.79932 15.1967C1.79932 16.2384 1.50609 17.2115 0.997672 18.0382C0.672293 18.5672 0.669968 19.2711 1.10914 19.7102V19.7102Z" fill="white"/>
</svg>
