<svg width="18" height="30" viewBox="0 0 18 30" fill="none" xmlns="http://www.w3.org/2000/svg">
<path fill-rule="evenodd" clip-rule="evenodd" d="M10.8264 29.4275C11.2755 29.8766 12.007 29.8759 12.4279 29.4003C15.7754 25.6181 17.8074 20.6447 17.8074 15.1968C17.8074 9.47311 15.5645 4.27329 11.9097 0.428307C11.4833 -0.0202408 10.7742 -0.00888384 10.3366 0.428715V0.428715C9.88152 0.883829 9.89508 1.62287 10.3356 2.09216C13.5511 5.51809 15.5206 10.1274 15.5206 15.1968C15.5206 20.0197 13.7379 24.4263 10.7955 27.7936C10.3822 28.2665 10.3823 28.9834 10.8264 29.4275V29.4275ZM7.59038 26.1915C8.04023 26.6413 8.7739 26.6402 9.18754 26.1569C11.7101 23.2091 13.2337 19.3809 13.2337 15.1969C13.2337 10.7329 11.4995 6.67401 8.66798 3.65717C8.24704 3.20868 7.54236 3.223 7.10742 3.65793V3.65793C6.64984 4.11551 6.66781 4.85909 7.10566 5.33559C9.49075 7.93123 10.9468 11.3941 10.9468 15.197C10.9468 18.7579 9.67017 22.0207 7.54956 24.5525C7.14694 25.0332 7.14699 25.7481 7.59038 26.1915V26.1915ZM4.35252 22.9536C4.80388 23.405 5.5418 23.4032 5.94243 22.9062C7.6423 20.7978 8.65993 18.1162 8.65993 15.197C8.65993 11.99 7.4318 9.06991 5.4202 6.8813C5.00879 6.43369 4.31232 6.45303 3.88243 6.88292V6.88292C3.42049 7.34486 3.44712 8.09677 3.8789 8.58703C5.43135 10.3497 6.37303 12.6633 6.37303 15.1969C6.37303 17.4966 5.5971 19.6152 4.29276 21.305C3.91066 21.8 3.91034 22.5115 4.35252 22.9536V22.9536ZM1.10914 19.7102C1.56421 20.1653 2.3125 20.1615 2.68303 19.6353C3.56706 18.3798 4.08619 16.8489 4.08619 15.1967C4.08619 13.2383 3.35682 11.4503 2.15491 10.0895C1.76437 9.6473 1.08844 9.67691 0.671275 10.0941V10.0941C0.199042 10.5663 0.250253 11.3404 0.659923 11.8679C1.37409 12.7873 1.79932 13.9424 1.79932 15.1967C1.79932 16.2384 1.50609 17.2115 0.997672 18.0382C0.672293 18.5672 0.669968 19.2711 1.10914 19.7102V19.7102Z" fill="white"/>
</svg>
