<svg width="26" height="22" viewBox="0 0 26 22" fill="none" xmlns="http://www.w3.org/2000/svg">
<path d="M25.2023 10.8736L13.8435 0.420235C13.7617 0.344766 13.6645 0.284891 13.5576 0.244039C13.4507 0.203187 13.336 0.182159 13.2202 0.182159C13.1045 0.182159 12.9898 0.203187 12.8829 0.244039C12.7759 0.284891 12.6788 0.344766 12.597 0.420235L1.23817 10.8736C0.907248 11.1784 0.719727 11.5924 0.719727 12.0241C0.719727 12.9206 1.51118 13.6495 2.48463 13.6495H3.68146V21.1086C3.68146 21.5581 4.07581 21.9213 4.56392 21.9213H11.4553V16.2324H14.5439V21.9213H21.8766C22.3647 21.9213 22.759 21.5581 22.759 21.1086V13.6495H23.9559C24.4247 13.6495 24.8742 13.4793 25.2051 13.172C25.8917 12.5371 25.8917 11.5085 25.2023 10.8736Z" fill="#F9F9F9"/>
</svg>
