<svg width="19" height="19" viewBox="0 0 19 19" fill="none" xmlns="http://www.w3.org/2000/svg">
<mask id="mask0_2660_10385" style="mask-type:alpha" maskUnits="userSpaceOnUse" x="0" y="0" width="19" height="19">
<rect width="19" height="19" fill="#D9D9D9"/>
</mask>
<g mask="url(#mask0_2660_10385)">
<path d="M8.7085 13.4583H10.2918V10.2916H13.4585V8.70825H10.2918V5.54158H8.7085V8.70825H5.54183V10.2916H8.7085V13.4583ZM9.50016 17.4166C8.40502 17.4166 7.37586 17.2088 6.41266 16.7931C5.44947 16.3775 4.61162 15.8135 3.89912 15.101C3.18662 14.3885 2.62256 13.5506 2.20693 12.5874C1.79131 11.6242 1.5835 10.5951 1.5835 9.49992C1.5835 8.40478 1.79131 7.37561 2.20693 6.41242C2.62256 5.44922 3.18662 4.61138 3.89912 3.89888C4.61162 3.18638 5.44947 2.62231 6.41266 2.20669C7.37586 1.79106 8.40502 1.58325 9.50016 1.58325C10.5953 1.58325 11.6245 1.79106 12.5877 2.20669C13.5509 2.62231 14.3887 3.18638 15.1012 3.89888C15.8137 4.61138 16.3778 5.44922 16.7934 6.41242C17.209 7.37561 17.4168 8.40478 17.4168 9.49992C17.4168 10.5951 17.209 11.6242 16.7934 12.5874C16.3778 13.5506 15.8137 14.3885 15.1012 15.101C14.3887 15.8135 13.5509 16.3775 12.5877 16.7931C11.6245 17.2088 10.5953 17.4166 9.50016 17.4166ZM9.50016 15.8333C11.2682 15.8333 12.7658 15.2197 13.9929 13.9926C15.22 12.7655 15.8335 11.268 15.8335 9.49992C15.8335 7.73186 15.22 6.23429 13.9929 5.00721C12.7658 3.78013 11.2682 3.16659 9.50016 3.16659C7.73211 3.16659 6.23454 3.78013 5.00745 5.00721C3.78037 6.23429 3.16683 7.73186 3.16683 9.49992C3.16683 11.268 3.78037 12.7655 5.00745 13.9926C6.23454 15.2197 7.73211 15.8333 9.50016 15.8333Z" fill="#4CAEF8"/>
</g>
</svg>
