<svg width="17" height="17" viewBox="0 0 17 17" fill="none" xmlns="http://www.w3.org/2000/svg">
<path d="M7.7085 12.4583H9.29183V9.29167H12.4585V7.70833H9.29183V4.54167H7.7085V7.70833H4.54183V9.29167H7.7085V12.4583ZM8.50016 16.4167C7.40502 16.4167 6.37586 16.2089 5.41266 15.7932C4.44947 15.3776 3.61162 14.8135 2.89912 14.101C2.18662 13.3885 1.62256 12.5507 1.20693 11.5875C0.791309 10.6243 0.583496 9.59514 0.583496 8.5C0.583496 7.40486 0.791309 6.37569 1.20693 5.4125C1.62256 4.44931 2.18662 3.61146 2.89912 2.89896C3.61162 2.18646 4.44947 1.6224 5.41266 1.20677C6.37586 0.791146 7.40502 0.583334 8.50016 0.583334C9.5953 0.583334 10.6245 0.791146 11.5877 1.20677C12.5509 1.6224 13.3887 2.18646 14.1012 2.89896C14.8137 3.61146 15.3778 4.44931 15.7934 5.4125C16.209 6.37569 16.4168 7.40486 16.4168 8.5C16.4168 9.59514 16.209 10.6243 15.7934 11.5875C15.3778 12.5507 14.8137 13.3885 14.1012 14.101C13.3887 14.8135 12.5509 15.3776 11.5877 15.7932C10.6245 16.2089 9.5953 16.4167 8.50016 16.4167ZM8.50016 14.8333C10.2682 14.8333 11.7658 14.2198 12.9929 12.9927C14.22 11.7656 14.8335 10.2681 14.8335 8.5C14.8335 6.73194 14.22 5.23438 12.9929 4.00729C11.7658 2.78021 10.2682 2.16667 8.50016 2.16667C6.73211 2.16667 5.23454 2.78021 4.00745 4.00729C2.78037 5.23438 2.16683 6.73194 2.16683 8.5C2.16683 10.2681 2.78037 11.7656 4.00745 12.9927C5.23454 14.2198 6.73211 14.8333 8.50016 14.8333Z" fill="white"/>
</svg>
