<svg width="17" height="17" viewBox="0 0 17 17" fill="none" xmlns="http://www.w3.org/2000/svg">
<path d="M8.05469 12.4584H9.63802V9.29171H12.8047V7.70837H9.63802V4.54171H8.05469V7.70837H4.88802V9.29171H8.05469V12.4584ZM8.84635 16.4167C7.75121 16.4167 6.72205 16.2089 5.75885 15.7933C4.79566 15.3776 3.95781 14.8136 3.24531 14.1011C2.53281 13.3886 1.96875 12.5507 1.55312 11.5875C1.1375 10.6243 0.929688 9.59518 0.929688 8.50004C0.929688 7.4049 1.1375 6.37573 1.55312 5.41254C1.96875 4.44935 2.53281 3.6115 3.24531 2.899C3.95781 2.1865 4.79566 1.62244 5.75885 1.20681C6.72205 0.791186 7.75121 0.583374 8.84635 0.583374C9.94149 0.583374 10.9707 0.791186 11.9339 1.20681C12.897 1.62244 13.7349 2.1865 14.4474 2.899C15.1599 3.6115 15.724 4.44935 16.1396 5.41254C16.5552 6.37573 16.763 7.4049 16.763 8.50004C16.763 9.59518 16.5552 10.6243 16.1396 11.5875C15.724 12.5507 15.1599 13.3886 14.4474 14.1011C13.7349 14.8136 12.897 15.3776 11.9339 15.7933C10.9707 16.2089 9.94149 16.4167 8.84635 16.4167ZM8.84635 14.8334C10.6144 14.8334 12.112 14.2198 13.3391 12.9927C14.5661 11.7657 15.1797 10.2681 15.1797 8.50004C15.1797 6.73198 14.5661 5.23442 13.3391 4.00733C12.112 2.78025 10.6144 2.16671 8.84635 2.16671C7.0783 2.16671 5.58073 2.78025 4.35365 4.00733C3.12656 5.23442 2.51302 6.73198 2.51302 8.50004C2.51302 10.2681 3.12656 11.7657 4.35365 12.9927C5.58073 14.2198 7.0783 14.8334 8.84635 14.8334Z" fill="#4CAEF8"/>
</svg>
