<svg width="18" height="18" viewBox="0 0 18 18" fill="none" xmlns="http://www.w3.org/2000/svg">
<path d="M14.85 14.0404H9.9V5.75059C10.4743 5.49915 10.9153 5.01315 11.1201 4.41549L14.8326 3.17068C15.0682 3.09165 15.1951 2.83655 15.1161 2.60087L14.83 1.74755C14.751 1.51187 14.4959 1.38502 14.2602 1.46405L10.9437 2.57584C10.5553 1.90055 9.83503 1.44043 9 1.44043C7.75744 1.44043 6.75 2.44787 6.75 3.69043C6.75 3.7869 6.76659 3.87915 6.77841 3.97252L3.16744 5.1833C2.93175 5.26234 2.80491 5.51743 2.88394 5.75312L3.16997 6.60643C3.249 6.84212 3.50409 6.96896 3.73978 6.88993L7.73494 5.55034C7.84941 5.62824 7.97203 5.69434 8.10028 5.75059V15.3904C8.10028 15.6391 8.30166 15.8404 8.55028 15.8404H14.8503C15.0989 15.8404 15.3003 15.6391 15.3003 15.3904V14.4904C15.3 14.2418 15.0986 14.0404 14.85 14.0404ZM17.9994 9.99043C17.9994 9.53537 18.0371 9.7449 15.6074 4.88546C15.111 3.89293 13.6896 3.89096 13.1923 4.88546C10.7421 9.78652 10.8006 9.54971 10.8006 9.99043H10.8C10.8 11.233 12.4118 12.2404 14.4 12.2404C16.3882 12.2404 18 11.233 18 9.99043H17.9994ZM12.375 9.54043L14.4 5.49043L16.425 9.54043H12.375ZM4.80741 8.48546C4.311 7.49293 2.88956 7.49096 2.39231 8.48546C-0.0579376 13.3865 0.0005625 13.1497 0.0005625 13.5904H0C0 14.833 1.61184 15.8404 3.6 15.8404C5.58816 15.8404 7.2 14.833 7.2 13.5904H7.19944C7.19944 13.1354 7.23712 13.3449 4.80741 8.48546ZM1.575 13.1404L3.6 9.09043L5.625 13.1404H1.575Z" fill="#37BA3C"/>
</svg>
