<svg width="18" height="18" viewBox="0 0 18 18" fill="none" xmlns="http://www.w3.org/2000/svg">
<path d="M10.8 11.2498H10.8006C10.8006 10.7947 10.7629 11.0043 13.1926 6.14484C13.689 5.1523 15.1104 5.15034 15.6077 6.14484C18.0579 11.0459 17.9994 10.8091 17.9994 11.2498H18C18 12.4924 16.3882 13.4998 14.4 13.4998C12.4118 13.4998 10.8 12.4924 10.8 11.2498ZM14.4 6.7498L12.375 10.7998H16.425L14.4 6.7498ZM0.000563526 11.2498C0.000563526 10.7947 -0.0371243 11.0043 2.39259 6.14484C2.889 5.1523 4.31044 5.15034 4.80769 6.14484C7.25794 11.0459 7.19944 10.8091 7.19944 11.2498H7.2C7.2 12.4924 5.58816 13.4998 3.6 13.4998C1.61184 13.4998 4.76837e-07 12.4924 4.76837e-07 11.2498H0.000563526ZM5.625 10.7998L3.6 6.7498L1.575 10.7998H5.625ZM3.15 14.3998H8.1V6.10996C7.43878 5.82055 6.94237 5.22459 6.79528 4.4998H3.15C2.90138 4.4998 2.7 4.29843 2.7 4.0498V3.1498C2.7 2.90118 2.90138 2.6998 3.15 2.6998H7.21012C7.62075 2.15643 8.26622 1.7998 9 1.7998C9.73378 1.7998 10.3793 2.15643 10.7899 2.6998H14.85C15.0986 2.6998 15.3 2.90118 15.3 3.1498V4.0498C15.3 4.29843 15.0986 4.4998 14.85 4.4998H11.2047C11.0576 5.2243 10.5615 5.82055 9.9 6.10996V14.3998H14.85C15.0986 14.3998 15.3 14.6012 15.3 14.8498V15.7498C15.3 15.9984 15.0986 16.1998 14.85 16.1998H3.15C2.90138 16.1998 2.7 15.9984 2.7 15.7498V14.8498C2.7 14.6012 2.90138 14.3998 3.15 14.3998Z" fill="#4CAEF8"/>
</svg>
