<svg width="18" height="18" viewBox="0 0 18 18" fill="none" xmlns="http://www.w3.org/2000/svg">
<path d="M3.15 14.0404H8.1V5.75059C7.52569 5.49915 7.08469 5.01315 6.87994 4.41549L3.16744 3.17068C2.93175 3.09165 2.80491 2.83655 2.88394 2.60087L3.16997 1.74755C3.249 1.51187 3.50409 1.38502 3.73978 1.46405L7.05628 2.57584C7.44469 1.90055 8.16497 1.44043 9 1.44043C10.2426 1.44043 11.25 2.44787 11.25 3.69043C11.25 3.7869 11.2334 3.87915 11.2216 3.97252L14.8326 5.1833C15.0682 5.26234 15.1951 5.51743 15.1161 5.75312L14.83 6.60643C14.751 6.84212 14.4959 6.96896 14.2602 6.88993L10.2651 5.55034C10.1506 5.62824 10.028 5.69434 9.89972 5.75059V15.3904C9.89972 15.6391 9.69834 15.8404 9.44972 15.8404H3.14972C2.90109 15.8404 2.69972 15.6391 2.69972 15.3904V14.4904C2.7 14.2418 2.90138 14.0404 3.15 14.0404ZM0.000562668 9.99043C0.000562668 9.53537 -0.0371246 9.7449 2.39259 4.88546C2.889 3.89293 4.31044 3.89096 4.80769 4.88546C7.25794 9.78652 7.19944 9.54971 7.19944 9.99043H7.2C7.2 11.233 5.58816 12.2404 3.6 12.2404C1.61185 12.2404 0 11.233 0 9.99043H0.000562668ZM5.625 9.54043L3.6 5.49043L1.575 9.54043H5.625ZM13.1926 8.48546C13.689 7.49293 15.1104 7.49096 15.6077 8.48546C18.0579 13.3865 17.9994 13.1497 17.9994 13.5904H18C18 14.833 16.3882 15.8404 14.4 15.8404C12.4118 15.8404 10.8 14.833 10.8 13.5904H10.8006C10.8006 13.1354 10.7629 13.3449 13.1926 8.48546ZM16.425 13.1404L14.4 9.09043L12.375 13.1404H16.425Z" fill="#DD4242"/>
</svg>
