<svg width="30" height="30" viewBox="0 0 30 30" fill="none" xmlns="http://www.w3.org/2000/svg">
<path d="M13.7252 24.9167H16.2043V23.1459C17.3849 22.9334 18.4002 22.473 19.2502 21.7646C20.1002 21.0563 20.5252 20.0056 20.5252 18.6125C20.5252 17.6209 20.2418 16.7118 19.6752 15.8855C19.1085 15.0591 17.9752 14.3389 16.2752 13.725C14.8585 13.2528 13.8786 12.8396 13.3356 12.4855C12.7925 12.1313 12.521 11.6473 12.521 11.0334C12.521 10.4195 12.7394 9.93546 13.1762 9.58129C13.613 9.22713 14.2446 9.05004 15.071 9.05004C15.8266 9.05004 16.4168 9.23303 16.8418 9.599C17.2668 9.96497 17.5738 10.4195 17.7627 10.9625L20.0293 10.0417C19.7696 9.21532 19.2915 8.49518 18.595 7.88129C17.8984 7.2674 17.1252 6.92504 16.2752 6.85421V5.08337H13.796V6.85421C12.6154 7.11393 11.6946 7.63337 11.0335 8.41254C10.3724 9.19171 10.0418 10.0653 10.0418 11.0334C10.0418 12.1431 10.3665 13.0403 11.0158 13.725C11.6651 14.4098 12.6863 15 14.0793 15.4959C15.5668 16.0389 16.5998 16.523 17.1783 16.948C17.7568 17.373 18.046 17.9278 18.046 18.6125C18.046 19.3917 17.7686 19.9643 17.2137 20.3302C16.6588 20.6962 15.9918 20.8792 15.2127 20.8792C14.4335 20.8792 13.7429 20.6372 13.1408 20.1532C12.5387 19.6691 12.096 18.9431 11.8127 17.975L9.47516 18.8959C9.80572 20.0292 10.3193 20.9441 11.0158 21.6407C11.7123 22.3372 12.6154 22.8153 13.7252 23.075V24.9167ZM15.0002 29.1667C13.0404 29.1667 11.1988 28.7948 9.47516 28.0511C7.75155 27.3073 6.25225 26.298 4.97725 25.023C3.70225 23.748 2.69287 22.2487 1.94912 20.525C1.20537 18.8014 0.833496 16.9598 0.833496 15C0.833496 13.0403 1.20537 11.1987 1.94912 9.47504C2.69287 7.75143 3.70225 6.25212 4.97725 4.97712C6.25225 3.70212 7.75155 2.69275 9.47516 1.949C11.1988 1.20525 13.0404 0.833374 15.0002 0.833374C16.9599 0.833374 18.8016 1.20525 20.5252 1.949C22.2488 2.69275 23.7481 3.70212 25.0231 4.97712C26.2981 6.25212 27.3075 7.75143 28.0512 9.47504C28.795 11.1987 29.1668 13.0403 29.1668 15C29.1668 16.9598 28.795 18.8014 28.0512 20.525C27.3075 22.2487 26.2981 23.748 25.0231 25.023C23.7481 26.298 22.2488 27.3073 20.5252 28.0511C18.8016 28.7948 16.9599 29.1667 15.0002 29.1667ZM15.0002 26.3334C18.1641 26.3334 20.8439 25.2355 23.0397 23.0396C25.2356 20.8438 26.3335 18.1639 26.3335 15C26.3335 11.8362 25.2356 9.15629 23.0397 6.96046C20.8439 4.76462 18.1641 3.66671 15.0002 3.66671C11.8363 3.66671 9.15641 4.76462 6.96058 6.96046C4.76475 9.15629 3.66683 11.8362 3.66683 15C3.66683 18.1639 4.76475 20.8438 6.96058 23.0396C9.15641 25.2355 11.8363 26.3334 15.0002 26.3334Z" fill="#F9F9F9"/>
</svg>
