<svg width="24" height="24" viewBox="0 0 24 24" fill="none" xmlns="http://www.w3.org/2000/svg">
<mask id="mask0_1350_5716" style="mask-type:alpha" maskUnits="userSpaceOnUse" x="0" y="0" width="24" height="24">
<rect width="24" height="24" fill="#D9D9D9"/>
</mask>
<g mask="url(#mask0_1350_5716)">
<path d="M5 18.2203H6.425L16.2 8.47663L14.775 7.05621L5 16.7998V18.2203ZM3 20.2139V15.9775L16.2 2.84476C16.4 2.66202 16.6208 2.5208 16.8625 2.42113C17.1042 2.32145 17.3583 2.27161 17.625 2.27161C17.8917 2.27161 18.15 2.32145 18.4 2.42113C18.65 2.5208 18.8667 2.67032 19.05 2.86968L20.425 4.26519C20.625 4.44793 20.7708 4.66391 20.8625 4.9131C20.9542 5.1623 21 5.4115 21 5.6607C21 5.92651 20.9542 6.17986 20.8625 6.42075C20.7708 6.66164 20.625 6.88177 20.425 7.08113L7.25 20.2139H3ZM15.475 7.77888L14.775 7.05621L16.2 8.47663L15.475 7.77888Z" fill="#E7E7E7"/>
</g>
</svg>
