<svg width="42" height="29" viewBox="0 0 42 29" fill="none" xmlns="http://www.w3.org/2000/svg">
<path d="M35.7499 3.75C34.2499 1.25 31.4999 0 28.4999 0H13.4999C10.4999 0 7.74987 1.25 6.24987 3.75C0.499867 12.5 -0.750132 25.75 3.24987 28.5C7.24987 31.25 16.2499 19.25 20.9999 19.25C25.7499 19.25 34.4999 31.25 38.7499 28.5C42.7499 25.75 41.4999 12.5 35.7499 3.75ZM15.9999 12.5H13.4999V15H10.9999V12.5H8.49987V10H10.9999V7.5H13.4999V10H15.9999V12.5ZM29.4999 13.75C29.4999 15 28.4999 16 27.2499 16C25.9999 16 24.9999 15 24.9999 13.75C24.9999 12.5 25.9999 11.5 27.2499 11.5C28.4999 11.5 29.4999 12.5 29.4999 13.75ZM34.2499 8.75C34.2499 10 33.2499 11 31.9999 11C30.7499 11 29.7499 10 29.7499 8.75C29.7499 7.5 30.7499 6.5 31.9999 6.5C33.2499 6.5 34.2499 7.5 34.2499 8.75Z" fill="#E7E7E7"/>
</svg>
