<svg width="37" height="37" viewBox="0 0 37 37" fill="none" xmlns="http://www.w3.org/2000/svg">
<path d="M28.7735 36C28.7735 36.5523 29.2225 37 29.7763 37H31.5733C32.99 37 34.1538 35.9068 34.3224 34.5277L36.9949 7.91099C37.054 7.32226 36.5904 6.81136 35.9971 6.81136H29.6751C29.1213 6.81136 28.6723 6.36365 28.6723 5.81136V0.999999C28.6723 0.447714 28.2233 0 27.6694 0H26.3525C25.7987 0 25.3497 0.447715 25.3497 1V5.81137C25.3497 6.36365 24.9007 6.81136 24.3468 6.81136H18.1069C17.5024 6.81136 17.0353 7.34066 17.1122 7.93853L17.3883 10.0862C17.4397 10.4863 17.7279 10.8143 18.1142 10.9339C20.7533 11.7511 23.1765 13.0846 24.675 14.5477C27.1038 16.9359 28.7735 19.4082 28.7735 23.4445V36ZM0 35.3182V34.6364C0 34.0841 0.44899 33.6364 1.00285 33.6364H24.3468C24.9007 33.6364 25.3497 34.0841 25.3497 34.6364V35.3182C25.3497 36.2264 24.5907 37 23.6125 37H1.68661C0.758972 37 0 36.2264 0 35.3182ZM24.3468 23.5455C24.9007 23.5455 25.3553 23.0909 25.301 22.5413C24.1041 10.4256 1.24559 10.4256 0.0487202 22.5413C-0.00557531 23.0909 0.44899 23.5455 1.00285 23.5455H24.3468ZM0 27.9091C0 27.3568 0.44899 26.9091 1.00285 26.9091H24.2962C24.8501 26.9091 25.2991 27.3568 25.2991 27.9091V29.2727C25.2991 29.825 24.8501 30.2727 24.2962 30.2727H1.00285C0.448988 30.2727 0 29.825 0 29.2727V27.9091Z" fill="#F9F9F9"/>
</svg>
