<svg width="269" height="283" viewBox="0 0 269 283" fill="none" xmlns="http://www.w3.org/2000/svg">
<g filter="url(#filter0_d_7003_23450)">
<path d="M150.775 221.682C150.775 221.682 19.2211 264.873 6.9123 152.73C-5.39651 40.5809 109.343 -21.0883 200.483 6.57809C291.616 34.2444 289.738 184.027 150.782 221.682H150.775Z" fill="#5EBFA6"/>
</g>
<path d="M206.284 54.7158H78.8215C70.1984 54.7158 63.208 61.7022 63.208 70.3204V148.089C63.208 156.707 70.1984 163.693 78.8215 163.693H206.284C214.907 163.693 221.898 156.707 221.898 148.089V70.3204C221.898 61.7022 214.907 54.7158 206.284 54.7158Z" fill="white"/>
<path d="M207.361 108.725H81.0342V116.312H207.361V108.725Z" fill="#EFF1F7"/>
<path d="M207.361 128.614H81.0342V136.202H207.361V128.614Z" fill="#EFF1F7"/>
<path d="M207.361 86.4126H81.0342V94.0003H207.361V86.4126Z" fill="#EFF1F7"/>
<path d="M82.2207 144.415L104.393 111.78L128.552 115.912L135.729 101.45L149.741 103.21L160.15 84.7683L174.941 89.4169L183.959 77.3115" stroke="#EB8C4E" stroke-width="2.79" stroke-linecap="round" stroke-linejoin="round"/>
<path d="M81.9365 144.713L123.267 129.501L148.023 139.73L161.249 121.666L178.653 122.467L183.617 107.677L193.152 100.54" stroke="#7A8AEB" stroke-width="2.77" stroke-linecap="round" stroke-linejoin="round"/>
<path d="M81.0342 81.269V146.001H206.794" stroke="#D5DAEA" stroke-width="1.3" stroke-miterlimit="10"/>
<path d="M189.229 98.874L195.868 99.0704L192.614 104.854" stroke="#7A8AEB" stroke-width="2.77" stroke-linecap="round" stroke-linejoin="round"/>
<path d="M179.636 78.0389L185.692 75.209L185.175 81.8873" stroke="#EB8C4E" stroke-width="2.79" stroke-linecap="round" stroke-linejoin="round"/>
<path d="M106.146 79.4717C111.875 66.1061 105.678 50.6294 92.3052 44.9037C78.9319 39.1779 63.4465 45.3713 57.7175 58.7369C51.9885 72.1025 58.1854 87.5791 71.5586 93.3049C84.9318 99.0306 100.417 92.8373 106.146 79.4717Z" fill="#F9A56E"/>
<path d="M106.132 79.4795C100.535 92.9016 85.1104 99.2526 71.6807 93.6582" stroke="#D5DAEA" stroke-width="1.3" stroke-miterlimit="10"/>
<path d="M81.1431 82.353C78.479 82.0911 75.8149 80.7453 74.0752 79.1157L75.6693 76.7514C77.4527 78.3009 79.5708 79.5595 82.1185 79.5668C85.1975 79.5813 86.748 77.879 86.7625 75.2964C86.7916 68.5526 75.1598 69.9566 75.1962 61.8379C75.2107 58.135 77.6419 55.4796 81.2669 54.9559L81.2887 50.751H83.7854L83.7708 54.8831C86.435 55.1887 88.1819 56.4836 89.6741 58.0768L87.8325 60.1065C86.2967 58.6006 85.0083 57.7203 82.7591 57.713C80.2187 57.6985 78.5882 59.2771 78.5736 61.6924C78.5445 67.7305 90.1764 66.1155 90.14 75.0636C90.1254 79.0211 87.6142 81.7565 83.6471 82.2803L83.6253 86.4852H81.1286L81.1431 82.353Z" fill="white"/>
<path d="M148.729 241.513C141.625 231.568 122.51 218.837 126.914 190.188L158.054 196.976L148.722 241.513H148.729Z" fill="#ED795A"/>
<path d="M167.516 241.462L148.518 242.546L136.282 186.922L159.72 158.332L206.211 185.853C204.53 195.689 196.603 206.135 190.372 217.164C190.372 217.164 174.839 239.6 167.516 241.455V241.462Z" fill="#ED795A"/>
<path d="M136.966 211.846L126.579 254.091C123.522 266.516 131.012 279.226 143.444 282.288C143.597 282.325 143.75 282.361 143.903 282.397C157.98 285.686 171.585 275.319 172.378 260.886L174.94 214.159L136.966 211.846Z" fill="#ED795A"/>
<path d="M171.905 174.78L194.565 139.461C194.565 139.461 202.186 130.775 206.007 123.07C206.684 121.703 204.435 118.473 202.397 118.109C196.406 117.04 186.223 128.257 186.223 128.257L159.728 158.332L171.905 174.78Z" fill="#ED795A"/>
<path d="M193.153 159.787C194.718 157.844 194.689 155.065 193.094 153.152C190.532 150.075 185.837 147.274 179.002 154.156C168.055 165.185 161.846 173.856 161.846 173.856C161.846 173.856 170.974 183.415 177.576 177.385C182.351 173.027 189.535 164.297 193.153 159.794V159.787Z" fill="#ED795A"/>
<path d="M200.694 172.278C202.259 170.336 202.23 167.557 200.636 165.643C198.073 162.566 193.378 159.765 186.543 166.647C175.596 177.676 169.387 186.348 169.387 186.348C169.387 186.348 178.515 195.907 185.117 189.876C189.892 185.518 197.076 176.788 200.694 172.285V172.278Z" fill="#ED795A"/>
<path d="M206.218 185.853C207.783 183.911 207.754 181.132 206.16 179.218C203.598 176.141 198.903 173.34 192.068 180.222C181.12 191.251 174.911 199.923 174.911 199.923C174.911 199.923 184.039 209.482 190.641 203.451C195.416 199.093 202.6 190.364 206.218 185.86V185.853Z" fill="#ED795A"/>
<path d="M183.377 152.315L165.886 171.172C164.335 172.845 164.721 175.5 166.665 176.686C168.877 178.039 172.08 178.803 175.727 176.002" stroke="#9C431A" stroke-width="2.17" stroke-linecap="round" stroke-linejoin="round"/>
<path d="M189.112 163.264L171.621 182.121C170.071 183.794 170.456 186.449 172.4 187.635C174.613 188.988 177.815 189.752 181.462 186.951" stroke="#9C431A" stroke-width="2.17" stroke-linecap="round" stroke-linejoin="round"/>
<path d="M195.831 177.225L180.946 191.891C179.395 193.564 179.781 196.219 181.725 197.405C183.937 198.758 187.14 199.522 190.787 196.721" stroke="#9C431A" stroke-width="2.17" stroke-linecap="round" stroke-linejoin="round"/>
<path d="M126.914 190.189C129.148 180.993 128.231 180.753 129.92 172.009C131.892 161.766 132.489 150.104 133.894 145.383C134.273 144.102 136.42 142.262 137.839 142.691C141.566 143.819 144.121 145.754 145.519 162.435C145.577 163.09 145.73 169.455 145.613 175.166L155.127 203.967L126.914 190.189Z" fill="#ED795A"/>
<path d="M147.04 177.072C147.04 177.072 147.389 181.132 155.222 194.03C161.467 204.317 154.894 216.56 154.894 216.56" stroke="#9C431A" stroke-width="2.17" stroke-linecap="round" stroke-linejoin="round"/>
<path d="M187.912 32.2944C189.685 32.2944 191.122 30.858 191.122 29.0862C191.122 27.3143 189.685 25.8779 187.912 25.8779C186.139 25.8779 184.702 27.3143 184.702 29.0862C184.702 30.858 186.139 32.2944 187.912 32.2944Z" stroke="#3A8D77" stroke-width="1.82" stroke-linecap="round" stroke-linejoin="round"/>
<path d="M86.4713 191.134C88.2441 191.134 89.6813 189.698 89.6813 187.926C89.6813 186.154 88.2441 184.718 86.4713 184.718C84.6984 184.718 83.2612 186.154 83.2612 187.926C83.2612 189.698 84.6984 191.134 86.4713 191.134Z" stroke="#3A8D77" stroke-width="1.82" stroke-linecap="round" stroke-linejoin="round"/>
<defs>
<filter id="filter0_d_7003_23450" x="0" y="0" width="269.008" height="241.859" filterUnits="userSpaceOnUse" color-interpolation-filters="sRGB">
<feFlood flood-opacity="0" result="BackgroundImageFix"/>
<feColorMatrix in="SourceAlpha" type="matrix" values="0 0 0 0 0 0 0 0 0 0 0 0 0 0 0 0 0 0 127 0" result="hardAlpha"/>
<feOffset dy="6"/>
<feGaussianBlur stdDeviation="3"/>
<feComposite in2="hardAlpha" operator="out"/>
<feColorMatrix type="matrix" values="0 0 0 0 0 0 0 0 0 0 0 0 0 0 0 0 0 0 0.25 0"/>
<feBlend mode="normal" in2="BackgroundImageFix" result="effect1_dropShadow_7003_23450"/>
<feBlend mode="normal" in="SourceGraphic" in2="effect1_dropShadow_7003_23450" result="shape"/>
</filter>
</defs>
</svg>
