<svg width="307" height="284" viewBox="0 0 307 284" fill="none" xmlns="http://www.w3.org/2000/svg">
<g filter="url(#filter0_d_2487_11645)">
<path d="M51.1871 25.1512C11.2417 54.6868 -21.5829 127.845 40.7937 198.021C99.2317 263.763 193.923 308.206 272.893 231.703C373.455 134.279 181.729 -71.3802 51.1871 25.1512Z" fill="#BDDCF3"/>
</g>
<path d="M166.839 186.595C165.685 187.254 146.512 189.527 146.512 189.527C139.265 187.368 128.01 188.069 128.01 188.069C126.217 186.31 108.479 177.758 108.479 177.758C95.4309 165.599 88.9898 166.259 86.4831 166.015C84.9558 165.868 80.4487 166.837 79.461 168.596C78.6475 170.038 78.938 171.952 80.1167 173.067C90.21 182.669 116.738 207.411 123.735 211.019C131.239 214.887 165.802 219 165.802 219C165.802 219 169.952 184.811 166.848 186.578L166.839 186.595Z" fill="#D96243"/>
<path d="M142.277 186.776C151.886 182.925 156.554 172.013 152.703 162.404C148.852 152.795 137.94 148.127 128.33 151.978C118.721 155.829 114.053 166.741 117.904 176.35C121.756 185.96 132.668 190.627 142.277 186.776Z" fill="#F9A56E"/>
<path d="M182 154.988C182 165.482 173.507 173.992 163.012 174C152.518 174 144.008 165.507 144 155.012C144 144.518 152.493 136.008 162.988 136C173.482 136 181.992 144.493 182 154.988Z" fill="#F9A56E"/>
<path d="M197.96 195.365C206.386 189.351 208.341 177.644 202.327 169.218C196.312 160.793 184.606 158.838 176.18 164.852C167.754 170.867 165.799 182.573 171.814 190.999C177.828 199.425 189.535 201.38 197.96 195.365Z" fill="#F9A56E"/>
<path d="M161.5 204C171.717 204 180 195.493 180 185C180 174.507 171.717 166 161.5 166C151.283 166 143 174.507 143 185C143 195.493 151.283 204 161.5 204Z" fill="#F9A56E"/>
<path d="M190.888 216.061C201.552 210.147 205.403 196.709 199.489 186.045C193.576 175.381 180.137 171.53 169.473 177.443C158.809 183.357 154.958 196.796 160.871 207.46C166.785 218.124 180.224 221.975 190.888 216.061Z" fill="#F9A56E"/>
<path d="M144.206 219.827C159.28 216.73 168.989 202 165.892 186.927C162.795 171.853 148.065 162.144 132.992 165.241C117.918 168.338 108.209 183.068 111.306 198.141C114.403 213.215 129.133 222.924 144.206 219.827Z" fill="#F9A56E"/>
<path d="M205 191.54C203.636 193.593 201.832 195.41 199.611 196.862C190.871 202.566 179.054 200.278 173.216 191.751C167.37 183.224 169.715 171.695 178.455 166" stroke="#A36136" stroke-width="1.65" stroke-linecap="round" stroke-linejoin="round"/>
<path d="M161.81 134.997C161.81 134.997 167.248 99.9047 120 101.026C120 101.026 122.483 135.376 161.81 134.997Z" fill="#8CBEE4"/>
<path d="M162.002 134.507C162.002 134.507 160.933 101.461 205 107.81C205 107.81 198.74 139.281 162.002 134.507Z" fill="#8CBEE4"/>
<path d="M162 108V136" stroke="#162070" stroke-width="2.54" stroke-linecap="round" stroke-linejoin="round"/>
<path d="M148.865 191.983C147.737 192.655 128.994 194.97 128.994 194.97C121.911 192.772 110.909 193.485 110.909 193.485C109.156 191.693 91.8167 182.98 91.8167 182.98C79.0617 170.592 72.7653 171.264 70.3149 171.015C68.822 170.865 64.4161 171.853 63.4506 173.645C62.6554 175.114 62.9394 177.064 64.0916 178.201C73.9581 187.984 99.89 213.192 106.73 216.868C114.065 220.81 147.851 225 147.851 225C147.851 225 151.908 190.166 148.873 191.967L148.865 191.983Z" fill="#D96243"/>
<path d="M105.06 211.064C105.06 211.064 114.675 203.36 121.8 205.396C121.8 205.396 141.021 204.615 141.603 193.644C141.791 190.12 175.803 199.969 174.992 187.436L185.475 179C189.439 179.989 208.996 185.757 211.535 187.286C228.815 197.7 223.091 199.246 223.091 199.246L200.086 235L139.572 222.625C139.572 222.625 103.332 209.468 105.06 211.064Z" fill="#D96243"/>
<path d="M219.269 194.008L250.473 212.935C263.803 221.983 265.915 240.243 255.009 251.934C254.866 252.089 254.723 252.235 254.58 252.389C244.069 263.527 226.06 263.934 215.12 253.178L193.77 232.186C193.77 232.186 190.614 207.626 189.68 206C182.207 192.919 202.084 213.561 202.084 213.561L219.26 194L219.269 194.008Z" fill="#D96243"/>
<path d="M158.245 214.992C157.458 212.876 151.766 204.578 142.531 204.168C135.543 203.856 133.279 204.291 129.581 204.586C121.01 205.275 116.417 204.644 112.259 202.643C106.518 199.88 105.968 193.721 108.265 192.959C114.793 190.786 126.825 189.007 133.197 187.736C140.095 186.366 155.374 182.57 160.484 181.29C161.468 181.044 162.436 180.749 163.395 180.421C166.98 179.2 177.92 176.1 188 179.651L158.229 215L158.245 214.992Z" fill="#D96243"/>
<path d="M161 203.243C153.902 202.927 132.693 206.427 128.936 206.727C120.23 207.427 115.565 206.785 111.342 204.752C105.51 201.943 104.952 195.684 107.285 194.909L135.734 188" stroke="#9C431A" stroke-width="2.28" stroke-linecap="round" stroke-linejoin="round"/>
<path d="M87 178L105 194" stroke="#9C431A" stroke-width="2.28" stroke-linecap="round" stroke-linejoin="round"/>
<path d="M191.448 88.6344C197.696 72.0203 189.293 53.4869 172.679 47.2388C156.064 40.9907 137.531 49.3939 131.283 66.008C125.035 82.622 133.438 101.155 150.052 107.404C166.666 113.652 185.2 105.248 191.448 88.6344Z" fill="#F68338"/>
<path d="M180.13 88.8258C186.507 78.7307 183.492 65.3776 173.397 59.0007C163.302 52.6238 149.949 55.638 143.572 65.733C137.195 75.8281 140.21 89.1812 150.305 95.5581C160.4 101.935 173.753 98.9208 180.13 88.8258Z" fill="white"/>
<path d="M160.225 88.4336C157.892 88.2437 155.542 87.1126 154 85.7174L155.367 83.6453C156.95 84.9662 158.817 86.0312 161.041 86.0064C163.733 85.9816 165.066 84.4874 165.05 82.2418C164.983 76.3968 154.833 77.7672 154.758 70.7252C154.725 67.5137 156.808 65.1774 159.975 64.6738L159.933 61.0248L162.116 61L162.158 64.5747C164.491 64.8059 166.033 65.9039 167.366 67.266L165.783 69.0493C164.416 67.7614 163.283 67.0184 161.316 67.0349C159.092 67.0597 157.683 68.4466 157.708 70.5353C157.767 75.7694 167.916 74.2173 168 81.9859C168.033 85.412 165.875 87.8226 162.416 88.3262L162.458 91.9752L160.275 92L160.233 88.4253L160.225 88.4336Z" fill="#F68338"/>
<path fill-rule="evenodd" clip-rule="evenodd" d="M142.422 60.664C141.828 62.1783 140.87 63.9088 139.415 64.8711C138.794 65.2813 138.891 66.0944 139.566 66.4301C140.896 67.0865 142.626 68.1383 143.93 69.6077C144.489 70.2343 145.642 70.0851 145.926 69.3392C146.379 68.1532 147.204 66.7135 148.694 65.3858C149.2 64.9382 149.058 64.2072 148.419 63.9088C147.275 63.3792 145.696 62.3647 144.507 60.5074C144.028 59.7615 142.742 59.8584 142.422 60.664Z" fill="white"/>
<path d="M144 152C144 152 152.335 157.068 151.99 169" stroke="#A36136" stroke-width="1.65" stroke-linecap="round" stroke-linejoin="round"/>
<path d="M49.5 131C51.433 131 53 129.657 53 128C53 126.343 51.433 125 49.5 125C47.567 125 46 126.343 46 128C46 129.657 47.567 131 49.5 131Z" stroke="#6287BD" stroke-width="1.82" stroke-linecap="round" stroke-linejoin="round"/>
<path d="M265 150.995C265 153.202 263.209 155 261 155C258.791 155 257 153.211 257 150.995C257 148.78 258.791 147 261 147C263.209 147 265 148.789 265 150.995Z" stroke="#6287BD" stroke-width="1.82" stroke-linecap="round" stroke-linejoin="round"/>
<defs>
<filter id="filter0_d_2487_11645" x="0" y="0" width="307" height="284" filterUnits="userSpaceOnUse" color-interpolation-filters="sRGB">
<feFlood flood-opacity="0" result="BackgroundImageFix"/>
<feColorMatrix in="SourceAlpha" type="matrix" values="0 0 0 0 0 0 0 0 0 0 0 0 0 0 0 0 0 0 127 0" result="hardAlpha"/>
<feOffset dy="6"/>
<feGaussianBlur stdDeviation="3"/>
<feComposite in2="hardAlpha" operator="out"/>
<feColorMatrix type="matrix" values="0 0 0 0 0 0 0 0 0 0 0 0 0 0 0 0 0 0 0.25 0"/>
<feBlend mode="normal" in2="BackgroundImageFix" result="effect1_dropShadow_2487_11645"/>
<feBlend mode="normal" in="SourceGraphic" in2="effect1_dropShadow_2487_11645" result="shape"/>
</filter>
</defs>
</svg>
