<svg width="20" height="17" viewBox="0 0 20 17" fill="none" xmlns="http://www.w3.org/2000/svg">
<mask id="mask0_5282_17205" style="mask-type:alpha" maskUnits="userSpaceOnUse" x="0" y="0" width="20" height="17">
<rect width="20" height="16.6667" fill="#D9D9D9"/>
</mask>
<g mask="url(#mask0_5282_17205)">
<path d="M9.1665 11.8058H5.83317C4.68039 11.8058 3.69775 11.4672 2.88525 10.7901C2.07275 10.1131 1.6665 9.2942 1.6665 8.33355C1.6665 7.3729 2.07275 6.55404 2.88525 5.87695C3.69775 5.19987 4.68039 4.86133 5.83317 4.86133H9.1665V6.25022H5.83317C5.13873 6.25022 4.54845 6.45276 4.06234 6.85786C3.57623 7.26295 3.33317 7.75485 3.33317 8.33355C3.33317 8.91225 3.57623 9.40415 4.06234 9.80925C4.54845 10.2143 5.13873 10.4169 5.83317 10.4169H9.1665V11.8058ZM6.6665 9.02799V7.63911H13.3332V9.02799H6.6665ZM10.8332 11.8058V10.4169H14.1665C14.8609 10.4169 15.4512 10.2143 15.9373 9.80925C16.4234 9.40415 16.6665 8.91225 16.6665 8.33355C16.6665 7.75485 16.4234 7.26295 15.9373 6.85786C15.4512 6.45276 14.8609 6.25022 14.1665 6.25022H10.8332V4.86133H14.1665C15.3193 4.86133 16.3019 5.19987 17.1144 5.87695C17.9269 6.55404 18.3332 7.3729 18.3332 8.33355C18.3332 9.2942 17.9269 10.1131 17.1144 10.7901C16.3019 11.4672 15.3193 11.8058 14.1665 11.8058H10.8332Z" fill="#8D8D93"/>
</g>
</svg>
