<svg width="46" height="46" viewBox="0 0 46 46" fill="none" xmlns="http://www.w3.org/2000/svg">
<mask id="mask0_1205_3722" style="mask-type:alpha" maskUnits="userSpaceOnUse" x="0" y="0" width="46" height="46">
<rect width="46" height="46" fill="#D9D9D9"/>
</mask>
<g mask="url(#mask0_1205_3722)">
<path d="M8.38597 40.25L5.70264 37.5667L25.3485 17.9208C24.7735 16.5792 24.6936 15.0618 25.1089 13.3688C25.5242 11.6757 26.4346 10.1583 27.8401 8.81667C29.5332 7.12361 31.4179 6.13333 33.4943 5.84583C35.5707 5.55833 37.2637 6.06944 38.5735 7.37917C39.8832 8.68889 40.3943 10.3819 40.1068 12.4583C39.8193 14.5347 38.829 16.4194 37.136 18.1125C35.7943 19.5181 34.2769 20.4285 32.5839 20.8438C30.8908 21.259 29.3735 21.1792 28.0318 20.6042L25.636 23L40.2026 37.5667L37.5193 40.25L22.9526 25.7792L8.38597 40.25ZM14.0401 23.8625L8.29014 18.1125C6.56514 16.3875 5.70264 14.3271 5.70264 11.9313C5.70264 9.53542 6.56514 7.475 8.29014 5.75L20.1735 17.7292L14.0401 23.8625Z" fill="#F9F9F9"/>
</g>
</svg>
