<svg width="45" height="45" viewBox="0 0 45 45" fill="none" xmlns="http://www.w3.org/2000/svg">
<mask id="mask0_1205_3773" style="mask-type:alpha" maskUnits="userSpaceOnUse" x="0" y="0" width="45" height="45">
<rect width="45" height="45" fill="#D9D9D9"/>
</mask>
<g mask="url(#mask0_1205_3773)">
<path d="M7.50024 39.375V9.375C7.50024 8.34375 7.86743 7.46094 8.60181 6.72656C9.33618 5.99219 10.219 5.625 11.2502 5.625H22.5002C23.5315 5.625 24.4143 5.99219 25.1487 6.72656C25.8831 7.46094 26.2502 8.34375 26.2502 9.375V22.5H28.1252C29.1565 22.5 30.0393 22.8672 30.7737 23.6016C31.5081 24.3359 31.8752 25.2188 31.8752 26.25V34.6875C31.8752 35.2188 32.0549 35.6641 32.4143 36.0234C32.7737 36.3828 33.219 36.5625 33.7502 36.5625C34.2815 36.5625 34.7268 36.3828 35.0862 36.0234C35.4456 35.6641 35.6252 35.2188 35.6252 34.6875V21.1875C35.344 21.3438 35.0471 21.4453 34.7346 21.4922C34.4221 21.5391 34.094 21.5625 33.7502 21.5625C32.4377 21.5625 31.3284 21.1094 30.4221 20.2031C29.5159 19.2969 29.0627 18.1875 29.0627 16.875C29.0627 15.875 29.3362 14.9766 29.8831 14.1797C30.4299 13.3828 31.1565 12.8125 32.0627 12.4688L28.1252 8.53125L30.094 6.5625L37.0315 13.3125C37.5002 13.7812 37.8518 14.3281 38.0862 14.9531C38.3206 15.5781 38.4377 16.2188 38.4377 16.875V34.6875C38.4377 36 37.9846 37.1094 37.0784 38.0156C36.1721 38.9219 35.0627 39.375 33.7502 39.375C32.4377 39.375 31.3284 38.9219 30.4221 38.0156C29.5159 37.1094 29.0627 36 29.0627 34.6875V25.3125H26.2502V39.375H7.50024ZM11.2502 18.75H22.5002V9.375H11.2502V18.75ZM33.7502 18.75C34.2815 18.75 34.7268 18.5703 35.0862 18.2109C35.4456 17.8516 35.6252 17.4062 35.6252 16.875C35.6252 16.3438 35.4456 15.8984 35.0862 15.5391C34.7268 15.1797 34.2815 15 33.7502 15C33.219 15 32.7737 15.1797 32.4143 15.5391C32.0549 15.8984 31.8752 16.3438 31.8752 16.875C31.8752 17.4062 32.0549 17.8516 32.4143 18.2109C32.7737 18.5703 33.219 18.75 33.7502 18.75ZM11.2502 35.625H22.5002V22.5H11.2502V35.625Z" fill="#F9F9F9"/>
</g>
</svg>
