<svg width="291" height="288" viewBox="0 0 291 288" fill="none" xmlns="http://www.w3.org/2000/svg">
<g filter="url(#filter0_d_6984_25715)">
<path d="M28.8872 238.017C9.92104 211.496 1.24025 179.6 4.77033 147.984C10.3222 98.3297 34.1582 30.6126 119.337 6.16257C260.059 -34.2318 316.805 136.196 271.957 162.147C231.666 185.458 149.568 131.655 96.6005 240.833C84.2212 266.351 42.7748 262.675 28.8872 238.025V238.017Z" fill="#AE99DF"/>
</g>
<g filter="url(#filter1_d_6984_25715)">
<path d="M163.945 219.384C151.196 239.966 172.81 264.585 194.913 254.707C216.406 245.11 239.464 228.716 238.14 202.814C236.391 168.751 184.692 185.883 163.945 219.384Z" fill="#C5B6E7"/>
</g>
<path d="M94.4183 216.4L85.8338 162.075C85.3284 158.954 85.216 155.784 85.5129 152.639L89.1954 113.448C89.7089 108.016 91.0647 102.439 95.8865 99.3976L120.669 72.6445C120.669 72.6445 137.798 118.263 147.779 156.507C148.364 158.761 148.79 160.88 149.078 162.878L157.743 159.018L158.971 196.243C159.195 202.983 157.406 214.434 153.579 220.147L143.655 237.239L94.4023 216.408L94.4183 216.4Z" fill="#ED8468"/>
<path d="M116.722 104.477L108.867 116.714" stroke="#B34725" stroke-width="1.86" stroke-linecap="round" stroke-linejoin="round"/>
<path d="M95.5656 128.983L104.936 124.337C107.905 122.868 111.499 124.915 111.676 128.197C111.868 131.775 109.405 136.574 98.6143 141.268C77.3776 150.512 95.5736 128.983 95.5736 128.983H95.5656Z" fill="#ED8468"/>
<path d="M199.54 1.71805L125.167 1.61419C117.856 1.60398 111.921 7.52349 111.911 14.8358L111.681 179.55C111.671 186.863 117.59 192.799 124.901 192.809L199.273 192.913C206.584 192.923 212.519 187.004 212.529 179.691L212.759 14.9766C212.769 7.66433 206.851 1.72826 199.54 1.71805Z" fill="#3D2213"/>
<path d="M199.051 6.9571L126.059 6.85517C121.544 6.84886 117.878 10.5046 117.872 15.0205L117.645 177.737C117.638 182.253 121.294 185.919 125.809 185.925L198.801 186.027C203.316 186.034 206.981 182.378 206.988 177.862L207.215 15.1453C207.221 10.6294 203.566 6.96341 199.051 6.9571Z" fill="white"/>
<g filter="url(#filter2_d_6984_25715)">
<path d="M143.671 237.231L133.963 262.323C127.184 278.179 108.121 284.759 93.1023 276.285C92.9017 276.173 92.6931 276.052 92.4925 275.94C78.4284 267.803 74.0639 249.516 82.6003 235.69L105.048 199.043L143.671 237.231Z" fill="#ED8468"/>
</g>
<path d="M139.01 229.44C139.01 229.44 134.244 231.277 128.195 229.359" stroke="#B34725" stroke-width="1.86" stroke-linecap="round" stroke-linejoin="round"/>
<path d="M102.513 143.755L110.953 136.686" stroke="#B34725" stroke-width="1.86" stroke-linecap="round" stroke-linejoin="round"/>
<path d="M98.0206 151.266C98.0206 151.266 91.7306 167.884 92.91 171.912" stroke="#B34725" stroke-width="1.86" stroke-linecap="round" stroke-linejoin="round"/>
<path d="M131.476 13.8011L192.065 13.6406" stroke="#DEE4F7" stroke-width="2" stroke-linecap="round" stroke-linejoin="round"/>
<path d="M131.476 174.664L147.899 174.504" stroke="#DEE4F7" stroke-width="2" stroke-linecap="round" stroke-linejoin="round"/>
<path d="M198.884 24.5215H126.414V169.464H198.884V24.5215Z" stroke="#DEE4F7" stroke-width="2.07" stroke-miterlimit="10"/>
<path d="M117.741 210.068C118.27 209.346 93.3029 190.497 93.9768 173.252C94.3137 164.675 104.872 147.334 106.244 142.905C106.476 142.158 106.837 141.476 107.319 140.866L129.751 120.613C130.938 119.546 132.808 119.771 133.674 121.119C136.225 125.099 137.244 130.948 131.211 138.363C129.791 140.112 124.023 146.203 122.161 151.691C118.76 161.762 124.696 174.978 126.927 184.519C131.083 202.325 114.283 225.186 114.283 225.186L117.733 210.06L117.741 210.068Z" fill="#ED8468"/>
<path d="M122.233 211.288C127.103 207.958 128.122 194.71 126.839 185.209" stroke="#B34725" stroke-width="1.86" stroke-linecap="round" stroke-linejoin="round"/>
<path d="M46.6095 198.249C46.6095 200.199 45.029 201.78 43.0794 201.78C41.1298 201.78 39.5493 200.199 39.5493 198.249C39.5493 196.3 41.1298 194.719 43.0794 194.719C45.029 194.719 46.6095 196.3 46.6095 198.249Z" stroke="#5A49AE" stroke-width="1.82" stroke-linecap="round" stroke-linejoin="round"/>
<path d="M247.639 75.8705C247.639 77.8204 246.059 79.4012 244.109 79.4012C242.16 79.4012 240.571 77.8204 240.571 75.8705C240.571 73.9206 242.152 72.3398 244.109 72.3398C246.067 72.3398 247.639 73.9206 247.639 75.8705Z" stroke="#5A49AE" stroke-width="1.82" stroke-linecap="round" stroke-linejoin="round"/>
<path d="M162.645 165.509C166.575 165.509 169.761 162.322 169.761 158.391C169.761 154.46 166.575 151.273 162.645 151.273C158.715 151.273 155.529 154.46 155.529 158.391C155.529 162.322 158.715 165.509 162.645 165.509Z" fill="#DEE4F7"/>
<defs>
<filter id="filter0_d_6984_25715" x="-0.000976562" y="0" width="291.001" height="266.32" filterUnits="userSpaceOnUse" color-interpolation-filters="sRGB">
<feFlood flood-opacity="0" result="BackgroundImageFix"/>
<feColorMatrix in="SourceAlpha" type="matrix" values="0 0 0 0 0 0 0 0 0 0 0 0 0 0 0 0 0 0 127 0" result="hardAlpha"/>
<feOffset dy="4"/>
<feGaussianBlur stdDeviation="2"/>
<feComposite in2="hardAlpha" operator="out"/>
<feColorMatrix type="matrix" values="0 0 0 0 0 0 0 0 0 0 0 0 0 0 0 0 0 0 0.25 0"/>
<feBlend mode="normal" in2="BackgroundImageFix" result="effect1_dropShadow_6984_25715"/>
<feBlend mode="normal" in="SourceGraphic" in2="effect1_dropShadow_6984_25715" result="shape"/>
</filter>
<filter id="filter1_d_6984_25715" x="156.145" y="184.248" width="86.0503" height="80.709" filterUnits="userSpaceOnUse" color-interpolation-filters="sRGB">
<feFlood flood-opacity="0" result="BackgroundImageFix"/>
<feColorMatrix in="SourceAlpha" type="matrix" values="0 0 0 0 0 0 0 0 0 0 0 0 0 0 0 0 0 0 127 0" result="hardAlpha"/>
<feOffset dy="4"/>
<feGaussianBlur stdDeviation="2"/>
<feComposite in2="hardAlpha" operator="out"/>
<feColorMatrix type="matrix" values="0 0 0 0 0 0 0 0 0 0 0 0 0 0 0 0 0 0 0.25 0"/>
<feBlend mode="normal" in2="BackgroundImageFix" result="effect1_dropShadow_6984_25715"/>
<feBlend mode="normal" in="SourceGraphic" in2="effect1_dropShadow_6984_25715" result="shape"/>
</filter>
<filter id="filter2_d_6984_25715" x="74.2402" y="199.043" width="73.4302" height="88.959" filterUnits="userSpaceOnUse" color-interpolation-filters="sRGB">
<feFlood flood-opacity="0" result="BackgroundImageFix"/>
<feColorMatrix in="SourceAlpha" type="matrix" values="0 0 0 0 0 0 0 0 0 0 0 0 0 0 0 0 0 0 127 0" result="hardAlpha"/>
<feOffset dy="4"/>
<feGaussianBlur stdDeviation="2"/>
<feComposite in2="hardAlpha" operator="out"/>
<feColorMatrix type="matrix" values="0 0 0 0 0 0 0 0 0 0 0 0 0 0 0 0 0 0 0.25 0"/>
<feBlend mode="normal" in2="BackgroundImageFix" result="effect1_dropShadow_6984_25715"/>
<feBlend mode="normal" in="SourceGraphic" in2="effect1_dropShadow_6984_25715" result="shape"/>
</filter>
</defs>
</svg>
