<svg width="32" height="37" viewBox="0 0 32 37" fill="none" xmlns="http://www.w3.org/2000/svg">
<path d="M32 1.42308V29.8846C32 30.262 31.8468 30.624 31.574 30.8909C31.3012 31.1578 30.9312 31.3077 30.5455 31.3077H5.81818C5.04664 31.3077 4.3067 31.6076 3.76114 32.1413C3.21558 32.6751 2.90909 33.399 2.90909 34.1538H27.6364C28.0221 34.1538 28.3921 34.3038 28.6649 34.5707C28.9377 34.8375 29.0909 35.1995 29.0909 35.5769C29.0909 35.9543 28.9377 36.3163 28.6649 36.5832C28.3921 36.8501 28.0221 37 27.6364 37H1.45455C1.06878 37 0.698807 36.8501 0.426027 36.5832C0.153247 36.3163 0 35.9543 0 35.5769V5.69231C0 4.18261 0.612985 2.73475 1.70411 1.66724C2.79523 0.599723 4.2751 0 5.81818 0H30.5455C30.9312 0 31.3012 0.149931 31.574 0.41681C31.8468 0.683688 32 1.04565 32 1.42308Z" fill="#F9F9F9"/>
</svg>
