<svg width="337" height="268" viewBox="0 0 337 268" fill="none" xmlns="http://www.w3.org/2000/svg">
<g filter="url(#filter0_d_2487_11644)">
<path d="M79.5377 25.8171C-1.80457 74.7627 -20.0924 189.21 47.0575 240.535C75.9746 262.641 116.637 260.725 144.112 236.849C144.472 236.532 144.833 236.222 145.194 235.904C164.289 219.357 189.213 211.298 214.413 213.128C268.761 217.089 323.007 208.867 330.373 156.682C340.839 82.5724 218.749 -57.9497 79.5377 25.8171Z" fill="#F0978D"/>
</g>
<path d="M191.016 167.878C189.943 168.599 171.372 173.041 171.372 173.041C164.065 172.087 151.581 171.976 151.581 171.976C149.658 170.67 132.959 167.646 132.959 167.646C118.99 158.702 112.739 160.102 110.266 160.205C108.755 160.274 104.437 161.7 103.629 163.367C102.968 164.724 103.441 166.365 104.703 167.19C115.521 174.287 142.91 191.117 150.105 193.368C157.832 195.783 193.12 196.315 193.12 196.315C193.12 196.315 193.884 165.927 191.016 167.869V167.878Z" fill="#C4593D"/>
<path fill-rule="evenodd" clip-rule="evenodd" d="M109.931 52.2617C109.931 52.2617 109.854 52.3304 109.82 52.3648C109.854 52.3304 109.897 52.2961 109.931 52.2617Z" fill="#F9A56E"/>
<path fill-rule="evenodd" clip-rule="evenodd" d="M175.862 43.2151C169.08 40.8611 161.816 39.5552 154.235 39.5552C118.99 39.5552 90.1929 67.151 88.2354 101.929H118.312C120.2 83.7497 135.561 69.5652 154.235 69.5652C158.064 69.5652 161.747 70.1752 165.216 71.2835L175.871 43.2066L175.862 43.2151Z" fill="#BE4D3F"/>
<path fill-rule="evenodd" clip-rule="evenodd" d="M184.783 47.167L174.034 75.9742C183.59 82.5123 190.235 93.4149 190.235 105.718C190.235 125.684 174.06 141.862 154.115 141.862C135.337 141.862 119.909 127.523 118.166 109.189H88.1152C89.9268 144.113 118.767 171.872 154.115 171.872C190.63 171.872 220.226 142.249 220.226 105.718C220.226 80.2699 205.836 58.2328 184.775 47.167H184.783Z" fill="#8A2D22"/>
<path d="M172.995 172.147C171.921 172.869 153.35 177.311 153.35 177.311C146.044 176.357 133.56 176.245 133.56 176.245C131.637 174.939 114.937 171.915 114.937 171.915C100.968 162.971 94.7175 164.372 92.2448 164.475C90.7337 164.544 86.415 165.97 85.6079 167.637C84.9468 169.003 85.4191 170.635 86.6812 171.46C97.4993 178.556 124.888 195.387 132.083 197.638C139.81 200.052 175.098 200.585 175.098 200.585C175.098 200.585 175.862 170.197 172.995 172.138V172.147Z" fill="#C4593D"/>
<path d="M126.811 194.494C126.811 194.494 135.569 185.997 142.833 187.269C142.833 187.269 161.799 184.562 161.284 173.789C161.121 170.326 195.799 176.512 193.738 164.347L203.286 155.042C207.312 155.6 227.257 159.26 229.927 160.506C248.078 168.934 242.566 171.014 242.566 171.014L223.334 208.266L162.151 202.295C162.151 202.295 124.94 193.111 126.811 194.494Z" fill="#C4593D"/>
<path d="M179.305 177.783C172.316 180.129 143.021 184.88 143.021 184.88C140.72 184.553 111.958 185.189 111.958 185.189C95.4902 183.273 92.0645 187.44 89.8837 188.626C88.5529 189.347 85.2903 192.526 85.2988 194.373C85.2988 195.885 86.4408 197.148 87.9433 197.337C100.771 198.97 132.676 200.954 140.222 200.963C150.852 200.963 180.902 203.953 180.902 203.953L179.305 177.783Z" fill="#C4593D"/>
<path d="M237.955 164.724L269.972 180.558C283.744 188.282 287.642 206.307 278.317 219.057C278.197 219.22 278.077 219.392 277.948 219.555C268.95 231.712 251.624 233.894 239.99 224.229L217.272 205.37C217.272 205.37 211.726 181.16 210.661 179.622C202.118 167.302 223.385 185.945 223.385 185.945L237.955 164.724Z" fill="#C4593D"/>
<path d="M179.932 193.385C178.936 191.366 172.471 183.728 163.292 184.252C156.355 184.648 154.157 185.309 150.525 185.979C142.111 187.526 137.518 187.363 133.199 185.799C127.241 183.642 126.081 177.603 128.271 176.615C134.504 173.805 146.232 170.824 152.406 168.925C159.094 166.872 173.819 161.571 178.747 159.784C179.7 159.44 180.619 159.054 181.537 158.633C184.963 157.06 195.472 152.885 205.801 155.385L179.923 193.394L179.932 193.385Z" fill="#C4593D"/>
<path d="M180.911 180.507C173.974 180.902 153.66 186.426 150.028 187.088C141.614 188.634 137.02 188.471 132.701 186.907C130.031 185.937 128.323 184.192 127.447 182.466C127.447 182.466 121.008 173.17 143.211 170.97" stroke="#783314" stroke-width="2.14" stroke-linecap="round" stroke-linejoin="round"/>
<path d="M108.24 184.889L131.448 186.366" stroke="#783314" stroke-width="2.14" stroke-linecap="round" stroke-linejoin="round"/>
<path d="M104.703 167.198L118.647 174.492" stroke="#783314" stroke-width="2.14" stroke-linecap="round" stroke-linejoin="round"/>
<path d="M154.175 131.982C168.851 131.982 180.748 120.077 180.748 105.391C180.748 90.7058 168.851 78.8008 154.175 78.8008C139.499 78.8008 127.602 90.7058 127.602 105.391C127.602 120.077 139.499 131.982 154.175 131.982Z" fill="#F7DB45"/>
<path d="M142.901 109.561L149.624 119.209L165.911 91.2695" stroke="white" stroke-width="2.57" stroke-linecap="round" stroke-linejoin="round"/>
<path d="M252.508 91.0009C254.595 91.0009 256.286 89.3084 256.286 87.2207C256.286 85.1329 254.595 83.4404 252.508 83.4404C250.422 83.4404 248.73 85.1329 248.73 87.2207C248.73 89.3084 250.422 91.0009 252.508 91.0009Z" stroke="white" stroke-width="1.82" stroke-linecap="round" stroke-linejoin="round"/>
<path d="M60.9066 178.075C60.9066 180.163 59.2152 181.855 57.1288 181.855C55.0425 181.855 53.3511 180.163 53.3511 178.075C53.3511 175.987 55.0425 174.295 57.1288 174.295C59.2152 174.295 60.9066 175.987 60.9066 178.075Z" stroke="white" stroke-width="1.82" stroke-linecap="round" stroke-linejoin="round"/>
<defs>
<filter id="filter0_d_2487_11644" x="-0.000488281" y="-0.000976562" width="337" height="268" filterUnits="userSpaceOnUse" color-interpolation-filters="sRGB">
<feFlood flood-opacity="0" result="BackgroundImageFix"/>
<feColorMatrix in="SourceAlpha" type="matrix" values="0 0 0 0 0 0 0 0 0 0 0 0 0 0 0 0 0 0 127 0" result="hardAlpha"/>
<feOffset dy="6"/>
<feGaussianBlur stdDeviation="3"/>
<feComposite in2="hardAlpha" operator="out"/>
<feColorMatrix type="matrix" values="0 0 0 0 0 0 0 0 0 0 0 0 0 0 0 0 0 0 0.25 0"/>
<feBlend mode="normal" in2="BackgroundImageFix" result="effect1_dropShadow_2487_11644"/>
<feBlend mode="normal" in="SourceGraphic" in2="effect1_dropShadow_2487_11644" result="shape"/>
</filter>
</defs>
</svg>
