<svg width="6" height="22" viewBox="0 0 6 22" fill="none" xmlns="http://www.w3.org/2000/svg">
<path d="M3.00016 21.6663C2.26683 21.6663 1.63905 21.4052 1.11683 20.883C0.594607 20.3608 0.333496 19.733 0.333496 18.9997C0.333496 18.2663 0.594607 17.6386 1.11683 17.1163C1.63905 16.5941 2.26683 16.333 3.00016 16.333C3.7335 16.333 4.36127 16.5941 4.8835 17.1163C5.40572 17.6386 5.66683 18.2663 5.66683 18.9997C5.66683 19.733 5.40572 20.3608 4.8835 20.883C4.36127 21.4052 3.7335 21.6663 3.00016 21.6663ZM3.00016 13.6663C2.26683 13.6663 1.63905 13.4052 1.11683 12.883C0.594607 12.3608 0.333496 11.733 0.333496 10.9997C0.333496 10.2663 0.594607 9.63856 1.11683 9.11634C1.63905 8.59412 2.26683 8.33301 3.00016 8.33301C3.7335 8.33301 4.36127 8.59412 4.8835 9.11634C5.40572 9.63856 5.66683 10.2663 5.66683 10.9997C5.66683 11.733 5.40572 12.3608 4.8835 12.883C4.36127 13.4052 3.7335 13.6663 3.00016 13.6663ZM3.00016 5.66634C2.26683 5.66634 1.63905 5.40523 1.11683 4.88301C0.594607 4.36079 0.333496 3.73301 0.333496 2.99967C0.333496 2.26634 0.594607 1.63856 1.11683 1.11634C1.63905 0.594119 2.26683 0.333008 3.00016 0.333008C3.7335 0.333008 4.36127 0.594119 4.8835 1.11634C5.40572 1.63856 5.66683 2.26634 5.66683 2.99967C5.66683 3.73301 5.40572 4.36079 4.8835 4.88301C4.36127 5.40523 3.7335 5.66634 3.00016 5.66634Z" fill="#F9F9F9"/>
</svg>
