<svg width="27" height="37" viewBox="0 0 27 37" fill="none" xmlns="http://www.w3.org/2000/svg">
<path d="M15.6962 1.05353C14.5472 -0.351177 12.4528 -0.351175 11.3038 1.05353C7.47932 5.72912 0 15.8635 0 23.6134C0 31.8276 5.21625 37 13.5 37C21.7838 37 27 31.8276 27 23.6134C27 15.8635 19.5207 5.72912 15.6962 1.05353ZM16.1224 32.0851C15.507 32.1736 15 31.6657 15 31.0491C15 30.4335 15.5078 29.9455 16.1162 29.8228C17.1915 29.6058 18.1881 29.0801 18.9756 28.2992C19.763 27.5184 20.2932 26.5301 20.512 25.4639C20.6358 24.8606 21.1279 24.3571 21.7487 24.3571C22.3706 24.3571 22.8827 24.8598 22.7935 25.47C22.5511 27.1287 21.7752 28.6773 20.566 29.8763C19.3568 31.0754 17.7952 31.8447 16.1224 32.0851Z" fill="#F9F9F9"/>
</svg>
