<svg width="31" height="38" viewBox="0 0 31 38" fill="none" xmlns="http://www.w3.org/2000/svg">
<path d="M22.5728 19.3333C22.4155 19.2287 22.2636 19.1144 22.1022 19.0195C21.4525 18.6354 20.8056 18.2473 20.1451 17.8825C19.6935 17.632 19.2188 17.4241 18.7603 17.186C18.6437 17.1255 18.5501 17.0208 18.4443 16.9355C18.8349 15.5632 19.2269 14.1908 19.6175 12.8185C20.1953 10.7896 20.7717 8.7593 21.3508 6.73039C21.6248 5.76962 21.9069 4.81022 22.1809 3.84945C22.3301 3.32914 22.7505 3.03183 23.2808 3.12956C24.0959 3.28097 24.6235 3.81366 24.9761 4.54181C25.4007 5.41862 25.4156 6.34636 25.1836 7.26446C24.9422 8.21835 24.6316 9.15572 24.3387 10.0958C23.6104 12.4345 22.8902 14.7745 22.3138 17.1571C22.1293 17.9197 22.1592 18.6478 22.5715 19.3333H22.5728Z" fill="#4CAEF8"/>
<path d="M26.2547 26.0001C26.2274 25.848 26.2042 25.6959 26.1741 25.5453C25.7315 23.404 24.7903 21.5323 23.2452 19.9854C23.1974 19.937 23.155 19.8831 23.1113 19.832C23.8681 18.6238 24.6277 17.4184 25.3804 16.2088C26.1741 14.9343 26.9596 13.6528 27.7574 12.3797C28.2137 11.6526 29.0197 11.5696 29.5934 12.211C30.245 12.9382 30.3694 13.8173 30.0634 14.7159C29.812 15.454 29.4623 16.159 29.1276 16.8641C28.3995 18.3985 27.6153 19.9052 26.9295 21.459C26.6317 22.1322 26.4733 22.8828 26.3435 23.6141C26.2465 24.1615 26.2943 24.7338 26.2779 25.2964C26.2711 25.5314 26.2629 25.7651 26.2561 26.0001H26.2547Z" fill="#9079FF"/>
<path d="M20.0621 20.2486C20.0441 20.2207 20.0272 20.1939 20.0093 20.166C20.0262 20.1939 20.0441 20.2207 20.0621 20.2486Z" fill="#763473"/>
<path d="M20.1488 20.3365C20.1308 20.3205 20.1128 20.3055 20.0938 20.2896C20.1118 20.3055 20.1298 20.3205 20.1488 20.3365Z" fill="#763473"/>
<path d="M14.4462 37.9278C13.7592 37.2186 13.0996 15.8227 12.9913 14.2718C12.9364 13.4825 12.9186 12.6905 12.8692 11.8998C12.8006 10.807 12.7115 9.7169 12.6429 8.62407C12.5963 7.87205 12.5758 7.11865 12.5319 6.36802C12.451 4.95506 12.3646 3.5421 12.2795 2.12914C12.2631 1.85593 12.2494 1.5841 12.2274 1.31089C12.1534 0.358794 12.8733 0.00279433 13.522 3.46452e-05C14.3365 -0.00410489 14.9797 0.362934 15.4953 0.981104C16.1864 1.81039 16.4003 2.81492 16.4908 3.84704C16.5663 4.70393 16.58 5.56633 16.6156 6.42597C16.6403 6.99861 16.6581 7.57262 16.676 8.14526C16.7377 10.1998 16.8062 12.2531 16.8556 14.3076C16.8748 15.1162 17.1367 15.8269 17.6427 16.434C17.8224 16.6492 18.1131 16.772 18.3531 16.9363C18.4587 17.0204 18.5546 17.1267 18.6726 17.1874C19.1361 17.4261 19.616 17.6358 20.0727 17.8856C20.7405 18.2512 21.3946 18.6417 22.0515 19.0253C22.216 19.1219 22.5877 19.4503 22.5877 19.4503C22.6096 19.471 22.6932 19.5538 22.7179 19.5745C22.8071 19.6587 22.8962 19.7415 22.9853 19.8256C23.0306 19.8767 23.0717 19.9319 23.1197 19.9788C24.672 21.5215 25.6155 23.3912 26.0598 25.5285C26.0913 25.6789 26.1147 25.8307 26.1407 25.9825C26.1709 26.5841 26.234 27.1871 26.2202 27.7873C26.2093 28.2993 26.1544 28.8195 26.0365 29.3176C25.8322 30.1731 25.6251 31.0369 25.3111 31.8538C23.2898 38.4536 15.7202 38.1086 14.4448 37.9278H14.4462Z" fill="#00D59C"/>
<path d="M21.6393 25.1105C20.6879 23.8974 19.5073 22.9265 18.1114 22.2553C17.2857 21.8578 16.4227 21.536 15.5707 21.1935C14.9549 20.946 14.3294 20.7232 13.708 20.4894C13.3421 20.2858 12.9665 20.0947 12.6117 19.8719C12.4363 19.7618 12.2803 19.6092 12.1422 19.4524C11.6838 18.9311 11.5664 18.2724 11.4104 17.6246C10.6813 14.6154 9.94536 11.6089 9.20525 8.60245C8.98018 7.69198 8.74545 6.78152 8.23179 5.97558C7.67533 5.10225 6.89933 4.54936 5.84717 4.45172C4.81986 4.35544 4.02314 5.21502 4.26616 6.20938C4.6514 7.79238 5.09463 9.36163 5.51301 10.9377C5.94106 12.551 10.013 36.2176 10.4507 36.4734C12.5192 37.6782 14.7422 38.2242 17.1324 37.9147C17.4928 37.868 18.1542 37.7002 18.324 37.6562C18.3268 37.6617 19.5971 37.1707 19.7959 37.0579C21.0317 36.3565 21.9444 35.3401 22.6114 34.1092C23.1195 33.1699 23.4316 32.1686 23.5241 31.0863C23.7174 28.8266 23.0104 26.8585 21.6379 25.1091L21.6393 25.1105Z" fill="#FF7969"/>
<path d="M8.93872 35.6427C7.85479 34.6889 6.99708 33.5555 6.25318 32.3331C5.02074 30.3075 4.14221 28.1189 3.23731 25.9426C2.3574 23.828 1.4414 21.7326 0.322767 19.729C0.186754 19.4864 0.0937663 19.2082 0.0382511 18.9355C-0.174094 17.8871 0.522621 17.2279 1.5094 17.1319C2.84454 17.0017 3.96595 17.4855 4.85975 18.4613C5.54675 19.2123 5.99364 20.1031 6.35866 21.0446C6.79584 22.167 7.258 23.2798 7.73127 24.3871C7.97137 24.9477 8.3808 25.3588 8.99146 25.537C9.24683 25.611 9.50498 25.674 9.76035 25.7425C10.4362 25.8645 11.1121 25.9865 11.788 26.1084C12.0046 26.1633 12.2252 26.2044 12.4362 26.2743C13.3189 26.5648 14.2085 26.8416 15.0787 27.1664C16.5429 27.7146 17.7434 28.5958 18.5484 29.9539C19.2188 31.0846 19.4769 32.2892 19.2562 33.587C19.08 34.6217 18.5512 35.47 17.8267 36.2128C17.266 36.6363 16.7081 37.0584 16.0114 37.2558C15.0593 37.5257 14.1072 37.6477 13.1135 37.4764C11.9823 37.2818 10.9387 36.8871 9.95188 36.3225C9.82003 36.2471 9.34399 35.9853 9.30513 35.947C9.2274 35.8867 9.1483 35.8264 9.07057 35.7661L9.07335 35.7688C9.02894 35.7277 8.98314 35.6866 8.93872 35.6455V35.6427Z" fill="#FFCF72"/>
</svg>
