<svg width="20" height="19" viewBox="0 0 20 19" fill="none" xmlns="http://www.w3.org/2000/svg">
<path d="M9 14.0871H11V8.45228H9V14.0871ZM10 6.574C10.2833 6.574 10.5208 6.484 10.7125 6.30399C10.9042 6.12399 11 5.90094 11 5.63485C11 5.36876 10.9042 5.14572 10.7125 4.96572C10.5208 4.78571 10.2833 4.69571 10 4.69571C9.71667 4.69571 9.47917 4.78571 9.2875 4.96572C9.09583 5.14572 9 5.36876 9 5.63485C9 5.90094 9.09583 6.12399 9.2875 6.30399C9.47917 6.484 9.71667 6.574 10 6.574ZM10 18.7828C8.61667 18.7828 7.31667 18.5363 6.1 18.0433C4.88333 17.5502 3.825 16.8811 2.925 16.0359C2.025 15.1906 1.3125 14.1967 0.7875 13.0541C0.2625 11.9115 0 10.6906 0 9.39142C0 8.09228 0.2625 6.87139 0.7875 5.72877C1.3125 4.58615 2.025 3.59222 2.925 2.74699C3.825 1.90176 4.88333 1.23262 6.1 0.739575C7.31667 0.246525 8.61667 0 10 0C11.3833 0 12.6833 0.246525 13.9 0.739575C15.1167 1.23262 16.175 1.90176 17.075 2.74699C17.975 3.59222 18.6875 4.58615 19.2125 5.72877C19.7375 6.87139 20 8.09228 20 9.39142C20 10.6906 19.7375 11.9115 19.2125 13.0541C18.6875 14.1967 17.975 15.1906 17.075 16.0359C16.175 16.8811 15.1167 17.5502 13.9 18.0433C12.6833 18.5363 11.3833 18.7828 10 18.7828ZM10 16.9046C12.2333 16.9046 14.125 16.1767 15.675 14.7211C17.225 13.2654 18 11.4888 18 9.39142C18 7.29401 17.225 5.51746 15.675 4.06179C14.125 2.60612 12.2333 1.87828 10 1.87828C7.76667 1.87828 5.875 2.60612 4.325 4.06179C2.775 5.51746 2 7.29401 2 9.39142C2 11.4888 2.775 13.2654 4.325 14.7211C5.875 16.1767 7.76667 16.9046 10 16.9046Z" fill="#4CAEF8"/>
</svg>
