<svg width="18" height="8" viewBox="0 0 18 8" fill="none" xmlns="http://www.w3.org/2000/svg">
<path d="M8.1665 7.80577H4.83317C3.68039 7.80577 2.69775 7.46723 1.88525 6.79015C1.07275 6.11306 0.666504 5.2942 0.666504 4.33355C0.666504 3.3729 1.07275 2.55404 1.88525 1.87695C2.69775 1.19987 3.68039 0.861328 4.83317 0.861328H8.1665V2.25022H4.83317C4.13873 2.25022 3.54845 2.45276 3.06234 2.85786C2.57623 3.26295 2.33317 3.75485 2.33317 4.33355C2.33317 4.91225 2.57623 5.40415 3.06234 5.80925C3.54845 6.21434 4.13873 6.41688 4.83317 6.41688H8.1665V7.80577ZM5.6665 5.02799V3.63911H12.3332V5.02799H5.6665ZM9.83317 7.80577V6.41688H13.1665C13.8609 6.41688 14.4512 6.21434 14.9373 5.80925C15.4234 5.40415 15.6665 4.91225 15.6665 4.33355C15.6665 3.75485 15.4234 3.26295 14.9373 2.85786C14.4512 2.45276 13.8609 2.25022 13.1665 2.25022H9.83317V0.861328H13.1665C14.3193 0.861328 15.3019 1.19987 16.1144 1.87695C16.9269 2.55404 17.3332 3.3729 17.3332 4.33355C17.3332 5.2942 16.9269 6.11306 16.1144 6.79015C15.3019 7.46723 14.3193 7.80577 13.1665 7.80577H9.83317Z" fill="#8D8D93"/>
</svg>
