<svg width="225" height="198" viewBox="0 0 225 198" fill="none" xmlns="http://www.w3.org/2000/svg">
<g clip-path="url(#clip0_3577_13004)">
<path d="M0.414859 122.348C-4.98142 87.0894 44.087 89.5004 55.8901 41.7407C70.26 -16.4005 147.223 -8.97652 161.431 34.3905C168.427 55.7504 180.517 64.2943 197.258 76.5637C213.649 88.5782 230.646 105.177 223.195 131.57C208.354 184.131 147.149 150.079 103.16 151.91C62.2531 153.614 8.92697 177.951 0.414859 122.348Z" fill="#E7E7E7"/>
<path d="M112.079 197.997C134.602 197.997 152.861 195.551 152.861 192.534C152.861 189.518 134.602 187.072 112.079 187.072C89.5556 187.072 71.2969 189.518 71.2969 192.534C71.2969 195.551 89.5556 197.997 112.079 197.997Z" fill="#EBEEF7"/>
<path d="M108.509 80.7989C108.509 80.7989 109.533 67.6443 106.673 44.9666L108.509 80.7989Z" fill="#00D59C"/>
<path d="M108.509 80.7989C108.509 80.7989 109.533 67.6443 106.673 44.9666" stroke="#03B586" stroke-width="6.06" stroke-linecap="round" stroke-linejoin="round"/>
<path d="M106.875 53.3025C106.875 53.3025 103.755 28.7872 133.762 28.851C133.762 28.851 131.761 50.4288 106.875 53.3025Z" fill="#00D59C"/>
<path d="M107.609 53.3495C107.609 53.3495 95.078 57.3968 77.5283 33.1431C77.5283 33.1431 107.673 30.4606 107.609 53.3495Z" fill="#00D59C"/>
<path d="M111.405 48.0851L130.703 31.3291" stroke="#00825F" stroke-width="1.35" stroke-miterlimit="10" stroke-linecap="round"/>
<path d="M83.1777 35.6479L103.321 48.3935" stroke="#00825F" stroke-width="1.35" stroke-miterlimit="10" stroke-linecap="round"/>
<path d="M123.451 37.8309L128.47 36.8987" stroke="#00825F" stroke-width="1.35" stroke-miterlimit="10" stroke-linecap="round"/>
<path d="M124.949 32.8848L123.464 37.3781" stroke="#00825F" stroke-width="1.35" stroke-miterlimit="10" stroke-linecap="round"/>
<path d="M115.252 44.7418L121.642 43.9639" stroke="#00825F" stroke-width="1.35" stroke-miterlimit="10" stroke-linecap="round"/>
<path d="M116.714 38.9878L115.252 44.7419" stroke="#00825F" stroke-width="1.35" stroke-miterlimit="10" stroke-linecap="round"/>
<path d="M85.7441 40.5202L89.6819 39.5779L87.772 35.4602" stroke="#00825F" stroke-width="1.35" stroke-miterlimit="10" stroke-linecap="round"/>
<path d="M95.0037 39.9165L97.4223 44.6613L92.2686 45.1307" stroke="#00825F" stroke-width="1.35" stroke-miterlimit="10" stroke-linecap="round"/>
<path d="M106.269 46.0161L107.087 53.1551" stroke="#00825F" stroke-width="1.35" stroke-miterlimit="10" stroke-linecap="round"/>
<path d="M122.72 122.321C114.528 118.288 111.981 116.507 111.995 113.224C112.001 111.578 112.436 110.334 113.285 109.526C114.44 108.426 116.249 108.204 117.563 108.208H117.812C121.611 108.278 114.581 114.016 118.59 117.932L132.663 118.066L146.72 102.611L142.553 98.1985C139.063 94.4999 134.297 90.2682 127.153 88.1087L127.206 74.9272H113.089L106.669 88.5077C95.9202 92.2365 89.0081 101.753 88.9576 113.617C88.8936 129.967 101.414 136.408 110.56 141.113C119.193 145.556 122.706 147.846 122.689 152.688C122.683 154.68 122.214 156.135 121.298 157.014C119.968 158.295 117.566 158.553 115.784 158.546H115.565C110.92 158.462 106.379 156.373 101.279 151.97L95.6473 147.108L81.8838 147.175L83.7129 164.776L87.8123 168.596C92.8919 173.33 99.5177 176.895 106.315 178.659L106.261 191.706L126.742 191.79L126.796 178.239C138.42 174.568 145.679 164.783 145.73 152.051C145.8 133.682 132.461 127.113 122.72 122.318V122.321Z" fill="#429445"/>
<path d="M108.63 122.322C100.438 118.288 97.8912 116.507 97.9047 113.224C97.9114 111.578 98.346 110.334 99.1948 109.526C100.35 108.426 102.159 108.205 103.473 108.208H103.722C107.522 108.278 109.661 109.368 113.672 113.285L118.574 118.066L132.63 102.611L128.463 98.1986C124.974 94.5 120.207 90.2683 113.063 88.1088L113.117 74.9273L92.6364 74.8435L92.5791 88.5112C81.8304 92.2399 74.9183 101.756 74.8677 113.62C74.8037 129.97 87.3243 136.412 96.4697 141.116C105.103 145.559 108.616 147.849 108.6 152.691C108.593 154.683 108.125 156.139 107.208 157.017C105.878 158.298 103.476 158.556 101.694 158.55H101.475C96.8301 158.466 92.2894 156.377 87.1896 151.974L81.5575 147.112L69.623 164.783L73.7225 168.602C78.8021 173.337 85.4279 176.902 92.2255 178.665L92.1716 191.713L112.652 191.797L112.706 178.246C124.33 174.575 131.589 164.79 131.64 152.058C131.711 133.689 118.371 127.12 108.63 122.325V122.322Z" fill="#37BA3C"/>
<path d="M90.9617 102.436C93.156 99.47 93.1521 95.7588 90.9531 94.1466C88.7541 92.5345 85.1926 93.632 82.9984 96.5979C80.8042 99.5639 80.808 103.275 83.007 104.887C85.2061 106.499 88.7675 105.402 90.9617 102.436Z" fill="#C0E8C2"/>
<path fill-rule="evenodd" clip-rule="evenodd" d="M82.8074 110.961C81.8272 112.292 80.1598 112.728 79.0819 111.937C78.0074 111.142 77.9299 109.422 78.9101 108.091C79.8904 106.759 81.5577 106.323 82.6357 107.115C83.7102 107.91 83.7877 109.63 82.8074 110.961Z" fill="#C0E8C2"/>
<path d="M156.91 170.289C157.911 170.289 158.722 169.482 158.722 168.485C158.722 167.489 157.911 166.681 156.91 166.681C155.909 166.681 155.098 167.489 155.098 168.485C155.098 169.482 155.909 170.289 156.91 170.289Z" stroke="#00D59C" stroke-width="1.29" stroke-miterlimit="10" stroke-linecap="round"/>
<path d="M176.514 44.611C177.515 44.611 178.327 43.8033 178.327 42.807C178.327 41.8106 177.515 41.0029 176.514 41.0029C175.514 41.0029 174.702 41.8106 174.702 42.807C174.702 43.8033 175.514 44.611 176.514 44.611Z" stroke="#00D59C" stroke-width="1.29" stroke-miterlimit="10" stroke-linecap="round"/>
<path fill-rule="evenodd" clip-rule="evenodd" d="M40.6245 60.804C40.6245 61.7999 39.8127 62.6081 38.8122 62.6081C37.8118 62.6081 37 61.7999 37 60.804C37 59.8081 37.8118 59 38.8122 59C39.8127 59 40.6245 59.8081 40.6245 60.804Z" stroke="#37BA3C" stroke-width="1.29" stroke-miterlimit="10" stroke-linecap="round"/>
<path d="M132.63 102.608H146.724" stroke="#357337" stroke-width="1.73" stroke-linecap="round" stroke-linejoin="round"/>
<path d="M113.42 87.7769H125.937" stroke="#357337" stroke-width="1.73" stroke-linecap="round" stroke-linejoin="round"/>
<path d="M113.42 178.327H125.937" stroke="#357337" stroke-width="1.73" stroke-linecap="round" stroke-linejoin="round"/>
</g>
<defs>
<clipPath id="clip0_3577_13004">
<rect width="225" height="198" fill="white"/>
</clipPath>
</defs>
</svg>
