<svg width="20" height="20" viewBox="0 0 20 20" fill="none" xmlns="http://www.w3.org/2000/svg">
<mask id="mask0_6827_14761" style="mask-type:alpha" maskUnits="userSpaceOnUse" x="0" y="0" width="20" height="20">
<rect width="20" height="20" fill="#D9D9D9"/>
</mask>
<g mask="url(#mask0_6827_14761)">
<path d="M9.99984 18.3333C8.84706 18.3333 7.76373 18.1146 6.74984 17.6771C5.73595 17.2396 4.854 16.6458 4.104 15.8958C3.354 15.1458 2.76025 14.2639 2.32275 13.25C1.88525 12.2361 1.6665 11.1528 1.6665 10C1.6665 8.84722 1.88525 7.76389 2.32275 6.75C2.76025 5.73611 3.354 4.85416 4.104 4.10416C4.854 3.35416 5.73595 2.76041 6.74984 2.32291C7.76373 1.88541 8.84706 1.66666 9.99984 1.66666C11.1526 1.66666 12.2359 1.88541 13.2498 2.32291C14.2637 2.76041 15.1457 3.35416 15.8957 4.10416C16.6457 4.85416 17.2394 5.73611 17.6769 6.75C18.1144 7.76389 18.3332 8.84722 18.3332 10C18.3332 11.1528 18.1144 12.2361 17.6769 13.25C17.2394 14.2639 16.6457 15.1458 15.8957 15.8958C15.1457 16.6458 14.2637 17.2396 13.2498 17.6771C12.2359 18.1146 11.1526 18.3333 9.99984 18.3333ZM9.99984 16.6667C11.8609 16.6667 13.4373 16.0208 14.729 14.7292C16.0207 13.4375 16.6665 11.8611 16.6665 10C16.6665 8.13889 16.0207 6.5625 14.729 5.27083C13.4373 3.97916 11.8609 3.33333 9.99984 3.33333C8.13873 3.33333 6.56234 3.97916 5.27067 5.27083C3.979 6.5625 3.33317 8.13889 3.33317 10C3.33317 11.8611 3.979 13.4375 5.27067 14.7292C6.56234 16.0208 8.13873 16.6667 9.99984 16.6667Z" fill="#686868"/>
</g>
</svg>
