<svg width="36" height="36" viewBox="0 0 36 36" fill="none" xmlns="http://www.w3.org/2000/svg">
<mask id="mask0_1930_12414" style="mask-type:alpha" maskUnits="userSpaceOnUse" x="0" y="0" width="36" height="36">
<rect width="36" height="36" fill="#D9D9D9"/>
</mask>
<g mask="url(#mask0_1930_12414)">
<path d="M15.4125 18C14.7125 18 14.1375 17.7375 13.6875 17.2125C13.2375 16.6875 13.075 16.075 13.2 15.375L13.65 12.675C13.85 11.6 14.3562 10.7188 15.1688 10.0312C15.9813 9.34375 16.925 9 18 9C19.1 9 20.0562 9.34375 20.8688 10.0312C21.6813 10.7188 22.1875 11.6 22.3875 12.675L22.8375 15.375C22.9625 16.075 22.8 16.6875 22.35 17.2125C21.9 17.7375 21.325 18 20.625 18H15.4125ZM16.3125 15H19.725L19.425 13.1625C19.375 12.8125 19.2125 12.5313 18.9375 12.3188C18.6625 12.1063 18.35 12 18 12C17.65 12 17.3438 12.1063 17.0812 12.3188C16.8188 12.5313 16.6625 12.8125 16.6125 13.1625L16.3125 15ZM4.65 19.4625C4.075 19.4875 3.58125 19.375 3.16875 19.125C2.75625 18.875 2.4875 18.4875 2.3625 17.9625C2.3125 17.7375 2.3 17.5125 2.325 17.2875C2.35 17.0625 2.4125 16.85 2.5125 16.65C2.5125 16.675 2.5 16.625 2.475 16.5C2.425 16.45 2.3 16.15 2.1 15.6C2.05 15.3 2.0875 15.0125 2.2125 14.7375C2.3375 14.4625 2.5 14.225 2.7 14.025L2.775 13.95C2.825 13.475 3.01875 13.075 3.35625 12.75C3.69375 12.425 4.1125 12.2625 4.6125 12.2625C4.6875 12.2625 4.925 12.3125 5.325 12.4125L5.4375 12.375C5.5625 12.25 5.725 12.1562 5.925 12.0938C6.125 12.0312 6.3375 12 6.5625 12C6.8375 12 7.08125 12.0438 7.29375 12.1313C7.50625 12.2188 7.675 12.35 7.8 12.525C7.825 12.525 7.84375 12.5312 7.85625 12.5437C7.86875 12.5562 7.8875 12.5625 7.9125 12.5625C8.2625 12.5875 8.56875 12.6938 8.83125 12.8813C9.09375 13.0688 9.2875 13.325 9.4125 13.65C9.4625 13.825 9.48125 13.9938 9.46875 14.1562C9.45625 14.3187 9.425 14.475 9.375 14.625C9.375 14.65 9.3875 14.7 9.4125 14.775C9.5875 14.95 9.725 15.1438 9.825 15.3563C9.925 15.5688 9.975 15.7875 9.975 16.0125C9.975 16.1125 9.9 16.375 9.75 16.8C9.725 16.85 9.725 16.9 9.75 16.95L9.825 17.55C9.825 18.075 9.60625 18.525 9.16875 18.9C8.73125 19.275 8.2 19.4625 7.575 19.4625H4.65ZM30 19.5C29.175 19.5 28.4688 19.2063 27.8812 18.6187C27.2937 18.0312 27 17.325 27 16.5C27 16.2 27.0437 15.9187 27.1312 15.6562C27.2188 15.3938 27.3375 15.1375 27.4875 14.8875L26.4375 13.95C26.1875 13.75 26.1438 13.5 26.3063 13.2C26.4688 12.9 26.7 12.75 27 12.75H30C30.825 12.75 31.5312 13.0438 32.1188 13.6313C32.7062 14.2188 33 14.925 33 15.75V16.5C33 17.325 32.7062 18.0312 32.1188 18.6187C31.5312 19.2063 30.825 19.5 30 19.5ZM0 27V24.6375C0 23.5375 0.55625 22.6563 1.66875 21.9938C2.78125 21.3313 4.225 21 6 21C6.325 21 6.6375 21.0062 6.9375 21.0187C7.2375 21.0312 7.525 21.0625 7.8 21.1125C7.45 21.6125 7.1875 22.15 7.0125 22.725C6.8375 23.3 6.75 23.9125 6.75 24.5625V27H0ZM9 27V24.5625C9 22.9375 9.83125 21.625 11.4937 20.625C13.1562 19.625 15.325 19.125 18 19.125C20.7 19.125 22.875 19.625 24.525 20.625C26.175 21.625 27 22.9375 27 24.5625V27H9ZM30 21C31.8 21 33.25 21.3313 34.35 21.9938C35.45 22.6563 36 23.5375 36 24.6375V27H29.25V24.5625C29.25 23.9125 29.1687 23.3 29.0062 22.725C28.8438 22.15 28.6 21.6125 28.275 21.1125C28.55 21.0625 28.8313 21.0312 29.1188 21.0187C29.4062 21.0062 29.7 21 30 21ZM18 22.125C16.575 22.125 15.3 22.3125 14.175 22.6875C13.05 23.0625 12.3875 23.5 12.1875 24H23.85C23.625 23.5 22.9562 23.0625 21.8438 22.6875C20.7313 22.3125 19.45 22.125 18 22.125Z" fill="#F9F9F9"/>
</g>
</svg>
