<svg width="46" height="46" viewBox="0 0 46 46" fill="none" xmlns="http://www.w3.org/2000/svg">
<mask id="mask0_5891_38615" style="mask-type:alpha" maskUnits="userSpaceOnUse" x="0" y="0" width="46" height="46">
<rect width="46" height="46" fill="#D9D9D9"/>
</mask>
<g mask="url(#mask0_5891_38615)">
<path d="M23 32.5833C23.5431 32.5833 23.9983 32.3996 24.3656 32.0323C24.733 31.6649 24.9167 31.2097 24.9167 30.6666C24.9167 30.1236 24.733 29.6684 24.3656 29.301C23.9983 28.9336 23.5431 28.75 23 28.75C22.457 28.75 22.0017 28.9336 21.6344 29.301C21.267 29.6684 21.0833 30.1236 21.0833 30.6666C21.0833 31.2097 21.267 31.6649 21.6344 32.0323C22.0017 32.3996 22.457 32.5833 23 32.5833ZM23 24.9166C23.5431 24.9166 23.9983 24.7329 24.3656 24.3656C24.733 23.9982 24.9167 23.543 24.9167 23C24.9167 22.4569 24.733 22.0017 24.3656 21.6343C23.9983 21.267 23.5431 21.0833 23 21.0833C22.457 21.0833 22.0017 21.267 21.6344 21.6343C21.267 22.0017 21.0833 22.4569 21.0833 23C21.0833 23.543 21.267 23.9982 21.6344 24.3656C22.0017 24.7329 22.457 24.9166 23 24.9166ZM23 17.25C23.5431 17.25 23.9983 17.0663 24.3656 16.6989C24.733 16.3316 24.9167 15.8763 24.9167 15.3333C24.9167 14.7902 24.733 14.335 24.3656 13.9677C23.9983 13.6003 23.5431 13.4166 23 13.4166C22.457 13.4166 22.0017 13.6003 21.6344 13.9677C21.267 14.335 21.0833 14.7902 21.0833 15.3333C21.0833 15.8763 21.267 16.3316 21.6344 16.6989C22.0017 17.0663 22.457 17.25 23 17.25ZM38.3333 38.3333H7.66668C6.61251 38.3333 5.71008 37.9579 4.95939 37.2073C4.20869 36.4566 3.83334 35.5541 3.83334 34.5V26.8333C4.88751 26.8333 5.78994 26.4579 6.54064 25.7073C7.29133 24.9566 7.66668 24.0541 7.66668 23C7.66668 21.9458 7.29133 21.0434 6.54064 20.2927C5.78994 19.542 4.88751 19.1666 3.83334 19.1666V11.5C3.83334 10.4458 4.20869 9.54336 4.95939 8.79267C5.71008 8.04197 6.61251 7.66663 7.66668 7.66663H38.3333C39.3875 7.66663 40.2899 8.04197 41.0406 8.79267C41.7913 9.54336 42.1667 10.4458 42.1667 11.5V19.1666C41.1125 19.1666 40.2101 19.542 39.4594 20.2927C38.7087 21.0434 38.3333 21.9458 38.3333 23C38.3333 24.0541 38.7087 24.9566 39.4594 25.7073C40.2101 26.4579 41.1125 26.8333 42.1667 26.8333V34.5C42.1667 35.5541 41.7913 36.4566 41.0406 37.2073C40.2899 37.9579 39.3875 38.3333 38.3333 38.3333Z" fill="#F9F9F9"/>
</g>
</svg>
