<svg width="46" height="46" viewBox="0 0 46 46" fill="none" xmlns="http://www.w3.org/2000/svg">
<mask id="mask0_5891_38550" style="mask-type:alpha" maskUnits="userSpaceOnUse" x="0" y="0" width="46" height="46">
<rect width="46" height="46" fill="#D9D9D9"/>
</mask>
<g mask="url(#mask0_5891_38550)">
<path d="M8.38591 40.25L5.70258 37.5667L25.3484 17.9208C24.7734 16.5792 24.6935 15.0618 25.1088 13.3688C25.5241 11.6757 26.4345 10.1583 27.8401 8.81667C29.5331 7.12361 31.4179 6.13333 33.4942 5.84583C35.5706 5.55833 37.2637 6.06944 38.5734 7.37917C39.8831 8.68889 40.3942 10.3819 40.1067 12.4583C39.8192 14.5347 38.829 16.4194 37.1359 18.1125C35.7942 19.5181 34.2769 20.4285 32.5838 20.8438C30.8908 21.259 29.3734 21.1792 28.0317 20.6042L25.6359 23L40.2026 37.5667L37.5192 40.25L22.9526 25.7792L8.38591 40.25ZM14.0401 23.8625L8.29008 18.1125C6.56508 16.3875 5.70258 14.3271 5.70258 11.9313C5.70258 9.53542 6.56508 7.475 8.29008 5.75L20.1734 17.7292L14.0401 23.8625Z" fill="#F9F9F9"/>
</g>
</svg>
