<svg width="46" height="46" viewBox="0 0 46 46" fill="none" xmlns="http://www.w3.org/2000/svg">
<mask id="mask0_5891_38605" style="mask-type:alpha" maskUnits="userSpaceOnUse" x="0" y="0" width="46" height="46">
<rect width="46" height="46" fill="#D9D9D9"/>
</mask>
<g mask="url(#mask0_5891_38605)">
<path d="M9.58333 42.1666C8.52917 42.1666 7.62674 41.7913 6.87604 41.0406C6.12535 40.2899 5.75 39.3875 5.75 38.3333V15.3333C5.75 14.2791 6.12535 13.3767 6.87604 12.626C7.62674 11.8753 8.52917 11.5 9.58333 11.5H13.4167C13.4167 8.84857 14.351 6.5885 16.2198 4.71975C18.0885 2.851 20.3486 1.91663 23 1.91663C25.6514 1.91663 27.9115 2.851 29.7802 4.71975C31.649 6.5885 32.5833 8.84857 32.5833 11.5H36.4167C37.4708 11.5 38.3733 11.8753 39.124 12.626C39.8747 13.3767 40.25 14.2791 40.25 15.3333V38.3333C40.25 39.3875 39.8747 40.2899 39.124 41.0406C38.3733 41.7913 37.4708 42.1666 36.4167 42.1666H9.58333ZM23 26.8333C25.6514 26.8333 27.9115 25.8989 29.7802 24.0302C31.649 22.1614 32.5833 19.9013 32.5833 17.25H28.75C28.75 18.8472 28.191 20.2048 27.0729 21.3229C25.9549 22.4409 24.5972 23 23 23C21.4028 23 20.0451 22.4409 18.9271 21.3229C17.809 20.2048 17.25 18.8472 17.25 17.25H13.4167C13.4167 19.9013 14.351 22.1614 16.2198 24.0302C18.0885 25.8989 20.3486 26.8333 23 26.8333ZM17.25 11.5H28.75C28.75 9.90274 28.191 8.5451 27.0729 7.42704C25.9549 6.30899 24.5972 5.74996 23 5.74996C21.4028 5.74996 20.0451 6.30899 18.9271 7.42704C17.809 8.5451 17.25 9.90274 17.25 11.5Z" fill="#F9F9F9"/>
</g>
</svg>
