<svg width="46" height="47" viewBox="0 0 46 47" fill="none" xmlns="http://www.w3.org/2000/svg">
<mask id="mask0_5891_38637" style="mask-type:alpha" maskUnits="userSpaceOnUse" x="0" y="0" width="46" height="47">
<rect y="0.500122" width="46" height="46" fill="#D9D9D9"/>
</mask>
<g mask="url(#mask0_5891_38637)">
<path d="M17.7291 42.6668L16.9624 36.5335C16.5471 36.3738 16.1558 36.1821 15.7884 35.9585C15.4211 35.7349 15.0617 35.4953 14.7103 35.2397L9.00823 37.6356L3.7374 28.5314L8.67281 24.7939C8.64087 24.5703 8.6249 24.3547 8.6249 24.147V22.8533C8.6249 22.6456 8.64087 22.43 8.67281 22.2064L3.7374 18.4689L9.00823 9.36475L14.7103 11.7606C15.0617 11.505 15.4291 11.2654 15.8124 11.0418C16.1957 10.8182 16.5791 10.6266 16.9624 10.4668L17.7291 4.3335H28.2707L29.0374 10.4668C29.4527 10.6266 29.844 10.8182 30.2114 11.0418C30.5787 11.2654 30.9381 11.505 31.2895 11.7606L36.9916 9.36475L42.2624 18.4689L37.327 22.2064C37.3589 22.43 37.3749 22.6456 37.3749 22.8533V24.147C37.3749 24.3547 37.343 24.5703 37.2791 24.7939L42.2145 28.5314L36.9436 37.6356L31.2895 35.2397C30.9381 35.4953 30.5707 35.7349 30.1874 35.9585C29.8041 36.1821 29.4207 36.3738 29.0374 36.5335L28.2707 42.6668H17.7291ZM23.0957 30.2085C24.9485 30.2085 26.5298 29.5536 27.8395 28.2439C29.1492 26.9342 29.8041 25.3529 29.8041 23.5002C29.8041 21.6474 29.1492 20.0661 27.8395 18.7564C26.5298 17.4467 24.9485 16.7918 23.0957 16.7918C21.211 16.7918 19.6218 17.4467 18.328 18.7564C17.0343 20.0661 16.3874 21.6474 16.3874 23.5002C16.3874 25.3529 17.0343 26.9342 18.328 28.2439C19.6218 29.5536 21.211 30.2085 23.0957 30.2085Z" fill="#F9F9F9"/>
</g>
</svg>
