<svg width="46" height="46" viewBox="0 0 46 46" fill="none" xmlns="http://www.w3.org/2000/svg">
<mask id="mask0_5891_38580" style="mask-type:alpha" maskUnits="userSpaceOnUse" x="0" y="0" width="46" height="46">
<rect width="46" height="46" fill="#D9D9D9"/>
</mask>
<g mask="url(#mask0_5891_38580)">
<path d="M36.225 40.2501L25.7312 29.7563L29.7562 25.7313L40.25 36.2251L36.225 40.2501ZM9.77499 40.2501L5.74999 36.2251L18.975 23.0001L15.7167 19.7417L14.375 21.0834L11.9312 18.6396V22.5688L10.5896 23.9105L4.79166 18.1126L6.13332 16.7709H10.0625L7.66666 14.3751L14.4708 7.5709C15.1097 6.93201 15.7965 6.46882 16.5312 6.18132C17.266 5.89382 18.0167 5.75007 18.7833 5.75007C19.55 5.75007 20.3007 5.89382 21.0354 6.18132C21.7701 6.46882 22.4569 6.93201 23.0958 7.5709L18.6875 11.9792L21.0833 14.3751L19.7417 15.7167L23 18.9751L27.3125 14.6626C27.1847 14.3112 27.0809 13.9438 27.001 13.5605C26.9212 13.1771 26.8812 12.7938 26.8812 12.4105C26.8812 10.5258 27.5281 8.93652 28.8219 7.64277C30.1156 6.34902 31.7049 5.70215 33.5896 5.70215C34.0687 5.70215 34.5239 5.75007 34.9552 5.8459C35.3864 5.94173 35.8257 6.08548 36.2729 6.27715L31.5292 11.0209L34.9792 14.4709L39.7229 9.72715C39.9465 10.1744 40.0983 10.6136 40.1781 11.0449C40.258 11.4761 40.2979 11.9313 40.2979 12.4105C40.2979 14.2952 39.651 15.8844 38.3573 17.1782C37.0635 18.4719 35.4743 19.1188 33.5896 19.1188C33.2062 19.1188 32.8229 19.0869 32.4396 19.023C32.0562 18.9591 31.6889 18.8473 31.3375 18.6876L9.77499 40.2501Z" fill="#F9F9F9"/>
</g>
</svg>
