<svg width="46" height="46" viewBox="0 0 46 46" fill="none" xmlns="http://www.w3.org/2000/svg">
<mask id="mask0_5891_38575" style="mask-type:alpha" maskUnits="userSpaceOnUse" x="0" y="0" width="46" height="46">
<rect width="46" height="46" fill="#D9D9D9"/>
</mask>
<g mask="url(#mask0_5891_38575)">
<path d="M26.8333 24.9167C25.2361 24.9167 23.8785 24.3577 22.7604 23.2397C21.6424 22.1216 21.0833 20.764 21.0833 19.1667C21.0833 17.5695 21.6424 16.2119 22.7604 15.0938C23.8785 13.9758 25.2361 13.4167 26.8333 13.4167C28.4305 13.4167 29.7882 13.9758 30.9062 15.0938C32.0243 16.2119 32.5833 17.5695 32.5833 19.1667C32.5833 20.764 32.0243 22.1216 30.9062 23.2397C29.7882 24.3577 28.4305 24.9167 26.8333 24.9167ZM13.4167 30.6667C12.3625 30.6667 11.4601 30.2914 10.7094 29.5407C9.95867 28.79 9.58332 27.8876 9.58332 26.8334V11.5001C9.58332 10.4459 9.95867 9.54348 10.7094 8.79279C11.4601 8.0421 12.3625 7.66675 13.4167 7.66675H40.25C41.3042 7.66675 42.2066 8.0421 42.9573 8.79279C43.708 9.54348 44.0833 10.4459 44.0833 11.5001V26.8334C44.0833 27.8876 43.708 28.79 42.9573 29.5407C42.2066 30.2914 41.3042 30.6667 40.25 30.6667H13.4167ZM17.25 26.8334H36.4167C36.4167 25.7792 36.792 24.8768 37.5427 24.1261C38.2934 23.3754 39.1958 23.0001 40.25 23.0001V15.3334C39.1958 15.3334 38.2934 14.9581 37.5427 14.2074C36.792 13.4567 36.4167 12.5542 36.4167 11.5001H17.25C17.25 12.5542 16.8746 13.4567 16.1239 14.2074C15.3733 14.9581 14.4708 15.3334 13.4167 15.3334V23.0001C14.4708 23.0001 15.3733 23.3754 16.1239 24.1261C16.8746 24.8768 17.25 25.7792 17.25 26.8334ZM38.3333 38.3334H5.74999C4.69582 38.3334 3.79339 37.9581 3.0427 37.2074C2.292 36.4567 1.91666 35.5542 1.91666 34.5001V13.4167H5.74999V34.5001H38.3333V38.3334Z" fill="#F9F9F9"/>
</g>
</svg>
