<svg width="46" height="46" viewBox="0 0 46 46" fill="none" xmlns="http://www.w3.org/2000/svg">
<mask id="mask0_5891_38642" style="mask-type:alpha" maskUnits="userSpaceOnUse" x="0" y="0" width="46" height="46">
<rect width="46" height="46" fill="#D9D9D9"/>
</mask>
<g mask="url(#mask0_5891_38642)">
<path d="M13.4167 38.3813V21.0833H16.4833C16.7069 21.0833 16.9305 21.1073 17.1542 21.1552C17.3778 21.2031 17.6014 21.259 17.825 21.3229L31.0979 26.2583C31.5451 26.4181 31.9045 26.7056 32.176 27.1208C32.4476 27.5361 32.5833 27.9674 32.5833 28.4146C32.5833 29.0854 32.3517 29.6285 31.8885 30.0438C31.4253 30.459 30.8903 30.6667 30.2833 30.6667H25.2521C25.0924 30.6667 24.9726 30.6587 24.8927 30.6427C24.8128 30.6267 24.709 30.5868 24.5812 30.5229L21.5146 29.325L20.8917 31.1938L24.5812 32.4875C24.6451 32.5194 24.741 32.5434 24.8687 32.5594C24.9965 32.5753 25.1083 32.5833 25.2042 32.5833H38.3333C39.3555 32.5833 40.25 32.9507 41.0167 33.6854C41.7833 34.4201 42.1667 35.3306 42.1667 36.4167L26.8812 42.1667L13.4167 38.3813ZM1.91666 42.1667V21.0833H9.58332V42.1667H1.91666ZM27.7917 15.3333H29.7083V13.4167H27.7917V15.3333ZM23.9583 15.3333H25.875V13.4167H23.9583V15.3333ZM27.7917 19.1667H29.7083V17.25H27.7917V19.1667ZM23.9583 19.1667H25.875V17.25H23.9583V19.1667ZM35.5062 26.8333C35.059 25.7792 34.4201 24.8528 33.5896 24.0542C32.759 23.2556 31.7368 22.6326 30.5229 22.1854L17.25 17.25H13.4167V12.4583L26.8333 2.875L40.25 12.4583V26.8333H35.5062Z" fill="#F9F9F9"/>
</g>
</svg>
