<svg width="46" height="47" viewBox="0 0 46 47" fill="none" xmlns="http://www.w3.org/2000/svg">
<mask id="mask0_5891_38570" style="mask-type:alpha" maskUnits="userSpaceOnUse" x="0" y="0" width="46" height="47">
<rect y="0.5" width="46" height="46" fill="#D9D9D9"/>
</mask>
<g mask="url(#mask0_5891_38570)">
<path d="M20.803 27.1379L18.1786 23.2198C18.0189 23.0134 17.8322 22.8489 17.6185 22.7262C17.4048 22.6032 17.1628 22.5417 16.8925 22.5417H7.43427C6.78803 21.4901 6.34576 20.5072 6.10746 19.593C5.86915 18.679 5.75 17.7453 5.75 16.7917C5.75 14.3541 6.57816 12.3072 8.23448 10.6512C9.89048 8.99491 11.9373 8.16675 14.375 8.16675C16.0607 8.16675 17.642 8.598 19.1187 9.4605C20.5955 10.323 21.8893 11.5775 23 13.2239C24.1107 11.5775 25.4045 10.323 26.8813 9.4605C28.358 8.598 29.9393 8.16675 31.625 8.16675C34.0627 8.16675 36.1095 8.99491 37.7655 10.6512C39.4218 12.3072 40.25 14.3541 40.25 16.7917C40.25 17.7453 40.1308 18.679 39.8925 19.593C39.6542 20.5072 39.212 21.4901 38.5657 22.5417H29.2253L25.6982 17.2489C25.6046 17.1086 25.4798 17.0035 25.324 16.9336C25.1681 16.8636 25.0004 16.8286 24.8208 16.8286C24.6266 16.8286 24.4576 16.8869 24.3139 17.0035C24.1701 17.1205 24.0713 17.2722 24.0173 17.4587L20.803 27.1379ZM23 38.8406L21.5476 37.5286C18.2673 34.5505 15.5938 32.0281 13.5274 29.9616C11.4609 27.8948 9.84512 26.0604 8.6801 24.4584H16.7009L20.2649 29.7882C20.3585 29.9527 20.4895 30.0639 20.6578 30.1217C20.8259 30.1795 20.9996 30.2084 21.1792 30.2084C21.3734 30.2084 21.5361 30.1501 21.6674 30.0335C21.799 29.9166 21.9041 29.7649 21.9827 29.5783L25.197 19.9245L27.7586 23.7804C27.9183 23.9868 28.105 24.1513 28.3188 24.2739C28.5325 24.3969 28.7744 24.4584 29.0447 24.4584H37.3199C36.1549 26.0604 34.5391 27.8948 32.4726 29.9616C30.4062 32.0281 27.7327 34.5505 24.4524 37.5286L23 38.8406Z" fill="#F9F9F9"/>
</g>
</svg>
