<svg width="46" height="47" viewBox="0 0 46 47" fill="none" xmlns="http://www.w3.org/2000/svg">
<mask id="mask0_5891_38600" style="mask-type:alpha" maskUnits="userSpaceOnUse" x="0" y="0" width="46" height="47">
<rect y="0.500122" width="46" height="46" fill="#D9D9D9"/>
</mask>
<g mask="url(#mask0_5891_38600)">
<path d="M7.66668 38.8334C6.61251 38.8334 5.71008 38.4581 4.95939 37.7074C4.20869 36.9567 3.83334 36.0542 3.83334 35.0001V12.0001C3.83334 10.9459 4.20869 10.0435 4.95939 9.29279C5.71008 8.5421 6.61251 8.16675 7.66668 8.16675H38.3333C39.3875 8.16675 40.2899 8.5421 41.0406 9.29279C41.7913 10.0435 42.1667 10.9459 42.1667 12.0001V35.0001C42.1667 36.0542 41.7913 36.9567 41.0406 37.7074C40.2899 38.4581 39.3875 38.8334 38.3333 38.8334H7.66668ZM7.66668 23.5001H38.3333V15.8334H7.66668V23.5001Z" fill="#F9F9F9"/>
</g>
</svg>
