<svg width="46" height="47" viewBox="0 0 46 47" fill="none" xmlns="http://www.w3.org/2000/svg">
<mask id="mask0_5891_38620" style="mask-type:alpha" maskUnits="userSpaceOnUse" x="0" y="0" width="46" height="47">
<rect y="0.500122" width="46" height="46" fill="#D9D9D9"/>
</mask>
<g mask="url(#mask0_5891_38620)">
<path d="M32.5833 42.6668C32.0403 42.6668 31.5851 42.4831 31.2177 42.1158C30.8503 41.7484 30.6667 41.2932 30.6667 40.7502C30.6667 40.2071 30.8503 39.7519 31.2177 39.3845C31.5851 39.0172 32.0403 38.8335 32.5833 38.8335H38.3333V35.0002H32.5833C32.0403 35.0002 31.5851 34.8165 31.2177 34.4491C30.8503 34.0818 30.6667 33.6266 30.6667 33.0835C30.6667 32.5404 30.8503 32.0852 31.2177 31.7179C31.5851 31.3505 32.0403 31.1668 32.5833 31.1668H38.3333V27.3335H32.5833C32.0403 27.3335 31.5851 27.1498 31.2177 26.7825C30.8503 26.4151 30.6667 25.9599 30.6667 25.4168C30.6667 24.8738 30.8503 24.4186 31.2177 24.0512C31.5851 23.6838 32.0403 23.5002 32.5833 23.5002H38.3333V19.6668H32.5833C32.0403 19.6668 31.5851 19.4831 31.2177 19.1158C30.8503 18.7484 30.6667 18.2932 30.6667 17.7502C30.6667 17.2071 30.8503 16.7519 31.2177 16.3845C31.5851 16.0172 32.0403 15.8335 32.5833 15.8335H38.3333V12.0002H32.5833C32.0403 12.0002 31.5851 11.8165 31.2177 11.4491C30.8503 11.0818 30.6667 10.6266 30.6667 10.0835C30.6667 9.54044 30.8503 9.08523 31.2177 8.71787C31.5851 8.35051 32.0403 8.16683 32.5833 8.16683H40.25C41.3042 8.16683 42.2066 8.54218 42.9573 9.29287C43.708 10.0436 44.0833 10.946 44.0833 12.0002V38.8335C44.0833 39.8877 43.708 40.7901 42.9573 41.5408C42.2066 42.2915 41.3042 42.6668 40.25 42.6668H32.5833ZM9.58332 42.6668L1.91666 21.5835L11.5 15.8335V4.3335H19.1667V15.8335L28.75 21.5835L21.0833 42.6668H9.58332Z" fill="#F9F9F9"/>
</g>
</svg>
