<svg width="46" height="46" viewBox="0 0 46 46" fill="none" xmlns="http://www.w3.org/2000/svg">
<mask id="mask0_5891_38560" style="mask-type:alpha" maskUnits="userSpaceOnUse" x="0" y="0" width="46" height="46">
<rect width="46" height="46" fill="#D9D9D9"/>
</mask>
<g mask="url(#mask0_5891_38560)">
<path fill-rule="evenodd" clip-rule="evenodd" d="M7.66666 22.2812V41.2083H21.0833H24.9167H38.3333V22.2812L41.7833 24.8687L44.0833 21.85L23 5.74996L11.5 14.5187V11.5H7.66666V17.4416L1.91666 21.85L4.21666 24.9166L7.66666 22.2812ZM9.34374 5.51038C8.22568 6.62843 7.66666 7.98607 7.66666 9.58329H11.5C11.5 9.04024 11.6837 8.58503 12.051 8.21767C12.4184 7.85031 12.8736 7.66663 13.4167 7.66663C15.0139 7.66663 16.3715 7.1076 17.4896 5.98954C18.6076 4.87149 19.1667 3.51385 19.1667 1.91663H15.3333C15.3333 2.45968 15.1496 2.91489 14.7823 3.28225C14.4149 3.64961 13.9597 3.83329 13.4167 3.83329C11.8194 3.83329 10.4618 4.39232 9.34374 5.51038ZM22.9999 32.5833H22.0416V28.75H19.1666L22.9999 23H23.9582V26.8333H26.8332L22.9999 32.5833ZM17.5254 34.1646C18.9869 35.6659 20.8117 36.4166 22.9999 36.4166C25.1881 36.4166 27.0129 35.6659 28.4744 34.1646C29.9358 32.6632 30.6666 30.7944 30.6666 28.5583C30.6666 26.9611 30.0317 25.2241 28.7619 23.3474C27.4921 21.4706 25.5714 19.4382 22.9999 17.25C20.4284 19.4382 18.5077 21.4706 17.2379 23.3474C15.9681 25.2241 15.3332 26.9611 15.3332 28.5583C15.3332 30.7944 16.064 32.6632 17.5254 34.1646ZM27.1207 32.8109C26.0346 33.937 24.661 34.5 22.9999 34.5C21.3388 34.5 19.9652 33.937 18.8791 32.8109C17.793 31.6849 17.2499 30.2673 17.2499 28.5583C17.2499 27.3923 17.7331 26.0746 18.6994 24.6052C19.6657 23.1357 21.0992 21.5305 22.9999 19.7896C24.9006 21.5305 26.3341 23.1357 27.3004 24.6052C28.2667 26.0746 28.7499 27.3923 28.7499 28.5583C28.7499 30.2673 28.2069 31.6849 27.1207 32.8109Z" fill="#F9F9F9"/>
</g>
</svg>
