<svg width="46" height="46" viewBox="0 0 46 46" fill="none" xmlns="http://www.w3.org/2000/svg">
<mask id="mask0_5891_38610" style="mask-type:alpha" maskUnits="userSpaceOnUse" x="0" y="0" width="46" height="46">
<rect width="46" height="46" fill="#D9D9D9"/>
</mask>
<g mask="url(#mask0_5891_38610)">
<path d="M11.5 36.4167V38.3334C11.5 38.8764 11.3163 39.3316 10.949 39.699C10.5816 40.0664 10.1264 40.25 9.58333 40.25H7.66667C7.12361 40.25 6.6684 40.0664 6.30104 39.699C5.93368 39.3316 5.75 38.8764 5.75 38.3334V23L9.775 11.5C9.96667 10.925 10.3101 10.4618 10.8052 10.1105C11.3003 9.75907 11.8514 9.58337 12.4583 9.58337H33.5417C34.1486 9.58337 34.6997 9.75907 35.1948 10.1105C35.6899 10.4618 36.0333 10.925 36.225 11.5L40.25 23V38.3334C40.25 38.8764 40.0663 39.3316 39.699 39.699C39.3316 40.0664 38.8764 40.25 38.3333 40.25H36.4167C35.8736 40.25 35.4184 40.0664 35.051 39.699C34.6837 39.3316 34.5 38.8764 34.5 38.3334V36.4167H11.5ZM11.1167 19.1667H34.8833L32.8708 13.4167H13.1292L11.1167 19.1667ZM14.375 30.6667C15.1736 30.6667 15.8524 30.3872 16.4115 29.8282C16.9705 29.2691 17.25 28.5903 17.25 27.7917C17.25 26.9931 16.9705 26.3143 16.4115 25.7552C15.8524 25.1962 15.1736 24.9167 14.375 24.9167C13.5764 24.9167 12.8976 25.1962 12.3385 25.7552C11.7795 26.3143 11.5 26.9931 11.5 27.7917C11.5 28.5903 11.7795 29.2691 12.3385 29.8282C12.8976 30.3872 13.5764 30.6667 14.375 30.6667ZM31.625 30.6667C32.4236 30.6667 33.1024 30.3872 33.6615 29.8282C34.2205 29.2691 34.5 28.5903 34.5 27.7917C34.5 26.9931 34.2205 26.3143 33.6615 25.7552C33.1024 25.1962 32.4236 24.9167 31.625 24.9167C30.8264 24.9167 30.1476 25.1962 29.5885 25.7552C29.0295 26.3143 28.75 26.9931 28.75 27.7917C28.75 28.5903 29.0295 29.2691 29.5885 29.8282C30.1476 30.3872 30.8264 30.6667 31.625 30.6667Z" fill="#F9F9F9"/>
</g>
</svg>
