<svg width="46" height="46" viewBox="0 0 46 46" fill="none" xmlns="http://www.w3.org/2000/svg">
<mask id="mask0_5891_38625" style="mask-type:alpha" maskUnits="userSpaceOnUse" x="0" y="0" width="46" height="46">
<path d="M0 0H46V46H0V0Z" fill="#D9D9D9"/>
</mask>
<g mask="url(#mask0_5891_38625)">
<path d="M12.8417 36.4166V32.2958C11.1486 31.9125 9.68715 31.1777 8.45729 30.0916C7.22743 29.0055 6.325 27.4722 5.75 25.4916L9.29583 24.0541C9.775 25.5875 10.4858 26.7534 11.4281 27.552C12.3705 28.3507 13.6083 28.75 15.1417 28.75C16.4514 28.75 17.5615 28.4545 18.4719 27.8635C19.3823 27.2725 19.8375 26.3541 19.8375 25.1083C19.8375 23.9902 19.4861 23.1038 18.7833 22.4489C18.0806 21.7941 16.4514 21.0513 13.8958 20.2208C11.1486 19.3583 9.26389 18.3281 8.24167 17.1302C7.21944 15.9323 6.70833 14.4708 6.70833 12.7458C6.70833 10.6694 7.37917 9.05621 8.72083 7.90621C10.0625 6.75621 11.4361 6.10135 12.8417 5.94163V1.91663H16.675V5.94163C18.2722 6.19718 19.5899 6.78017 20.6281 7.69058C21.6663 8.601 22.425 9.71107 22.9042 11.0208L19.3583 12.5541C18.975 11.5319 18.4319 10.7652 17.7292 10.2541C17.0264 9.74301 16.0681 9.48746 14.8542 9.48746C13.4486 9.48746 12.3785 9.79892 11.6438 10.4218C10.909 11.0448 10.5417 11.8194 10.5417 12.7458C10.5417 13.8 11.0208 14.6305 11.9792 15.2375C12.9375 15.8444 14.5986 16.4833 16.9625 17.1541C19.1667 17.793 20.8358 18.8073 21.9698 20.1968C23.1038 21.5864 23.6708 23.1916 23.6708 25.0125C23.6708 27.2805 23 29.0055 21.6583 30.1875C20.3167 31.3694 18.6556 32.1041 16.675 32.3916V36.4166H12.8417Z" fill="#F9F9F9"/>
<path fill-rule="evenodd" clip-rule="evenodd" d="M24.9167 36.4167V40.2501H40.25V24.9167H36.4167V33.7334L24.9167 22.2334V27.6001L33.7333 36.4167H24.9167Z" fill="#F9F9F9"/>
</g>
</svg>
