<svg width="46" height="46" viewBox="0 0 46 46" fill="none" xmlns="http://www.w3.org/2000/svg">
<mask id="mask0_5891_38631" style="mask-type:alpha" maskUnits="userSpaceOnUse" x="0" y="0" width="46" height="46">
<path d="M46 46H0V0H46V46Z" fill="#D9D9D9"/>
</mask>
<g mask="url(#mask0_5891_38631)">
<path d="M29.4206 44.0834V39.9625C27.7276 39.5792 26.2661 38.8445 25.0363 37.7584C23.8064 36.6723 22.904 35.1389 22.329 33.1584L25.8748 31.7209C26.354 33.2542 27.0647 34.4202 28.0071 35.2188C28.9495 36.0174 30.1873 36.4167 31.7206 36.4167C33.0304 36.4167 34.1404 36.1212 35.0509 35.5302C35.9613 34.9393 36.4165 34.0209 36.4165 32.775C36.4165 31.657 36.0651 30.7705 35.3623 30.1157C34.6595 29.4608 33.0304 28.7181 30.4748 27.8875C27.7276 27.025 25.8429 25.9948 24.8206 24.7969C23.7984 23.599 23.2873 22.1375 23.2873 20.4125C23.2873 18.3362 23.9581 16.723 25.2998 15.573C26.6415 14.423 28.0151 13.7681 29.4206 13.6084V9.58337H33.254V13.6084C34.8512 13.8639 36.1689 14.4469 37.2071 15.3573C38.2453 16.2677 39.004 17.3778 39.4831 18.6875L35.9373 20.2209C35.554 19.1987 35.0109 18.432 34.3081 17.9209C33.6054 17.4098 32.647 17.1542 31.4331 17.1542C30.0276 17.1542 28.9575 17.4657 28.2227 18.0886C27.488 18.7115 27.1206 19.4862 27.1206 20.4125C27.1206 21.4667 27.5998 22.2973 28.5581 22.9042C29.5165 23.5112 31.1776 24.15 33.5415 24.8209C35.7456 25.4598 37.4147 26.474 38.5488 27.8636C39.6828 29.2532 40.2498 30.8584 40.2498 32.6792C40.2498 34.9473 39.579 36.6723 38.2373 37.8542C36.8956 39.0362 35.2345 39.7709 33.254 40.0584V44.0834H29.4206Z" fill="#F9F9F9"/>
<path fill-rule="evenodd" clip-rule="evenodd" d="M21.0833 9.58327V5.74994H5.75001V21.0833H9.58334V12.2666L21.0833 23.7666V18.3999L12.2667 9.58327H21.0833Z" fill="#F9F9F9"/>
</g>
</svg>
