<svg width="46" height="46" viewBox="0 0 46 46" fill="none" xmlns="http://www.w3.org/2000/svg">
<mask id="mask0_5891_38555" style="mask-type:alpha" maskUnits="userSpaceOnUse" x="0" y="0" width="46" height="46">
<rect width="46" height="46" fill="#D9D9D9"/>
</mask>
<g mask="url(#mask0_5891_38555)">
<path d="M13.4167 40.25C12.3625 40.25 11.4601 39.8747 10.7094 39.124C9.95869 38.3733 9.58334 37.4709 9.58334 36.4167V15.3334C9.58334 14.2792 9.95869 13.3768 10.7094 12.6261C11.4601 11.8754 12.3625 11.5 13.4167 11.5H17.25V7.66671C17.25 6.61254 17.6254 5.71011 18.3761 4.95942C19.1267 4.20872 20.0292 3.83337 21.0833 3.83337H24.9167C25.9708 3.83337 26.8733 4.20872 27.624 4.95942C28.3747 5.71011 28.75 6.61254 28.75 7.66671V11.5H32.5833C33.6375 11.5 34.5399 11.8754 35.2906 12.6261C36.0413 13.3768 36.4167 14.2792 36.4167 15.3334V36.4167C36.4167 37.4709 36.0413 38.3733 35.2906 39.124C34.5399 39.8747 33.6375 40.25 32.5833 40.25C32.5833 40.7931 32.3997 41.2483 32.0323 41.6157C31.6649 41.983 31.2097 42.1667 30.6667 42.1667C30.1236 42.1667 29.6684 41.983 29.3011 41.6157C28.9337 41.2483 28.75 40.7931 28.75 40.25H17.25C17.25 40.7931 17.0663 41.2483 16.699 41.6157C16.3316 41.983 15.8764 42.1667 15.3333 42.1667C14.7903 42.1667 14.3351 41.983 13.9677 41.6157C13.6004 41.2483 13.4167 40.7931 13.4167 40.25ZM17.25 34.5H21.0833V17.25H17.25V34.5ZM24.9167 34.5H28.75V17.25H24.9167V34.5ZM21.0833 11.5H24.9167V7.66671H21.0833V11.5Z" fill="#F9F9F9"/>
</g>
</svg>
