<svg width="27" height="28" viewBox="0 0 27 28" fill="none" xmlns="http://www.w3.org/2000/svg">
<mask id="mask0_6012_30670" style="mask-type:alpha" maskUnits="userSpaceOnUse" x="0" y="0" width="27" height="28">
<rect x="0.352173" y="0.71582" width="26.4545" height="26.4545" fill="#D9D9D9"/>
</mask>
<g mask="url(#mask0_6012_30670)">
<path d="M10.1072 17.9665L19.9174 15.3761C20.193 15.3027 20.3997 15.1327 20.5375 14.8663C20.6752 14.6 20.7074 14.329 20.6339 14.0534C20.5604 13.7778 20.3997 13.5712 20.1517 13.4334C19.9037 13.2956 19.6419 13.2634 19.3663 13.3369L16.6657 14.0534L12.2566 9.91989L10.7135 10.3057L13.3589 14.9352L10.7135 15.5966L9.33562 14.5494L8.28846 14.825L10.1072 17.9665ZM22.3976 22.7614H4.76119C4.15494 22.7614 3.63595 22.5455 3.20423 22.1138C2.7725 21.6821 2.55664 21.1631 2.55664 20.5568V16.1477C3.16289 16.1477 3.68188 15.9319 4.1136 15.5001C4.54532 15.0684 4.76119 14.5494 4.76119 13.9432C4.76119 13.3369 4.54532 12.8179 4.1136 12.3862C3.68188 11.9545 3.16289 11.7386 2.55664 11.7386V7.32955C2.55664 6.7233 2.7725 6.20431 3.20423 5.77259C3.63595 5.34086 4.15494 5.125 4.76119 5.125H22.3976C23.0038 5.125 23.5228 5.34086 23.9545 5.77259C24.3862 6.20431 24.6021 6.7233 24.6021 7.32955V20.5568C24.6021 21.1631 24.3862 21.6821 23.9545 22.1138C23.5228 22.5455 23.0038 22.7614 22.3976 22.7614ZM22.3976 20.5568V7.32955H4.76119V10.1403C5.44092 10.5445 5.97828 11.0819 6.37326 11.7524C6.76824 12.423 6.96573 13.1532 6.96573 13.9432C6.96573 14.7331 6.76824 15.4634 6.37326 16.1339C5.97828 16.8045 5.44092 17.3419 4.76119 17.746V20.5568H22.3976Z" fill="#F9F9F9"/>
</g>
</svg>
