<svg width="27" height="28" viewBox="0 0 27 28" fill="none" xmlns="http://www.w3.org/2000/svg">
<mask id="mask0_6014_30742" style="mask-type:alpha" maskUnits="userSpaceOnUse" x="0" y="0" width="27" height="28">
<rect x="0.352173" y="0.82959" width="26.4545" height="26.4545" fill="#D9D9D9"/>
</mask>
<g mask="url(#mask0_6014_30742)">
<path d="M10.8238 25.0796C9.44591 25.0796 8.27475 24.5974 7.31026 23.6329C6.34577 22.6684 5.86353 21.4972 5.86353 20.1194C5.86353 19.4764 6.01968 18.8839 6.33199 18.342C6.6443 17.8 7.223 17.1065 8.06807 16.2615C8.1783 16.1512 8.28393 16.0364 8.38497 15.917C8.48602 15.7976 8.61921 15.6368 8.78455 15.4347C7.84762 14.0018 7.12655 12.4999 6.62134 10.9292C6.11613 9.35847 5.86353 7.82907 5.86353 6.341C5.86353 5.27547 6.05642 4.45795 6.44222 3.88844C6.82801 3.31893 7.36996 3.03418 8.06807 3.03418C9.11523 3.03418 10.0522 3.53939 10.8789 4.5498C11.7056 5.56022 12.3302 6.48797 12.7527 7.33304C12.9181 7.70047 13.0696 8.07248 13.2074 8.44909C13.3452 8.8257 13.4692 9.21609 13.5794 9.62026C13.6897 9.21609 13.8137 8.8257 13.9515 8.44909C14.0892 8.07248 14.25 7.70047 14.4337 7.33304C14.8379 6.48797 15.4533 5.56022 16.28 4.5498C17.1067 3.53939 18.0436 3.03418 19.0908 3.03418C19.7889 3.03418 20.3309 3.31893 20.7167 3.88844C21.1024 4.45795 21.2953 5.27547 21.2953 6.341C21.2953 7.82907 21.0427 9.35847 20.5375 10.9292C20.0323 12.4999 19.3113 14.0018 18.3743 15.4347C18.5397 15.6368 18.6729 15.7976 18.7739 15.917C18.8749 16.0364 18.9806 16.1512 19.0908 16.2615C19.9359 17.1065 20.5146 17.8 20.8269 18.342C21.1392 18.8839 21.2953 19.4764 21.2953 20.1194C21.2953 21.4972 20.8131 22.6684 19.8486 23.6329C18.8841 24.5974 17.713 25.0796 16.3351 25.0796C15.5084 25.0796 14.8425 24.9878 14.3372 24.8041L13.5794 24.5285L12.8216 24.8041C12.3164 24.9878 11.6505 25.0796 10.8238 25.0796ZM10.8238 22.8751C11.2463 22.8751 11.6688 22.8246 12.0914 22.7235C12.5139 22.6225 12.9089 22.4709 13.2763 22.2688C13.0742 22.177 12.8905 22.0208 12.7252 21.8004C12.5598 21.5799 12.4772 21.387 12.4772 21.2217C12.4772 21.0747 12.5828 20.9461 12.7941 20.8359C13.0053 20.7257 13.2671 20.6705 13.5794 20.6705C13.8917 20.6705 14.1535 20.7257 14.3648 20.8359C14.5761 20.9461 14.6817 21.0747 14.6817 21.2217C14.6817 21.387 14.599 21.5799 14.4337 21.8004C14.2684 22.0208 14.0846 22.177 13.8826 22.2688C14.25 22.4709 14.645 22.6225 15.0675 22.7235C15.49 22.8246 15.9126 22.8751 16.3351 22.8751C17.1067 22.8751 17.7589 22.6087 18.2917 22.0759C18.8244 21.5432 19.0908 20.891 19.0908 20.1194C19.0908 19.7887 18.9989 19.4672 18.8152 19.1549C18.6315 18.8426 18.356 18.5303 17.9885 18.218C17.7313 17.9975 17.5201 17.8046 17.3547 17.6393C17.1894 17.474 16.923 17.1616 16.5556 16.7024C16.0228 16.0594 15.5819 15.6414 15.2328 15.4485C14.8838 15.2556 14.3327 15.1592 13.5794 15.1592C12.8262 15.1592 12.2705 15.2556 11.9122 15.4485C11.554 15.6414 11.1177 16.0594 10.6033 16.7024C10.2359 17.1616 9.96949 17.474 9.80415 17.6393C9.63881 17.8046 9.42754 17.9975 9.17034 18.218C8.80292 18.5303 8.52735 18.8426 8.34364 19.1549C8.15993 19.4672 8.06807 19.7887 8.06807 20.1194C8.06807 20.891 8.33445 21.5432 8.86722 22.0759C9.39998 22.6087 10.0522 22.8751 10.8238 22.8751ZM11.926 19.2927C11.7791 19.2927 11.6505 19.21 11.5402 19.0447C11.43 18.8794 11.3749 18.6865 11.3749 18.466C11.3749 18.2455 11.43 18.0526 11.5402 17.8873C11.6505 17.722 11.7791 17.6393 11.926 17.6393C12.073 17.6393 12.2016 17.722 12.3118 17.8873C12.422 18.0526 12.4772 18.2455 12.4772 18.466C12.4772 18.6865 12.422 18.8794 12.3118 19.0447C12.2016 19.21 12.073 19.2927 11.926 19.2927ZM15.2328 19.2927C15.0859 19.2927 14.9573 19.21 14.847 19.0447C14.7368 18.8794 14.6817 18.6865 14.6817 18.466C14.6817 18.2455 14.7368 18.0526 14.847 17.8873C14.9573 17.722 15.0859 17.6393 15.2328 17.6393C15.3798 17.6393 15.5084 17.722 15.6186 17.8873C15.7289 18.0526 15.784 18.2455 15.784 18.466C15.784 18.6865 15.7289 18.8794 15.6186 19.0447C15.5084 19.21 15.3798 19.2927 15.2328 19.2927ZM10.3553 13.8089C10.5574 13.6619 10.787 13.5333 11.0442 13.4231C11.3014 13.3129 11.5862 13.2118 11.8985 13.12C11.8617 12.2382 11.7285 11.3609 11.4989 10.4883C11.2693 9.61567 10.9799 8.82111 10.6309 8.10463C10.2818 7.36979 9.89601 6.74976 9.47347 6.24455C9.05093 5.73934 8.62839 5.41325 8.20585 5.26628C8.16911 5.37651 8.13696 5.51889 8.10941 5.69341C8.08185 5.86794 8.06807 6.0838 8.06807 6.341C8.06807 7.59024 8.26556 8.85785 8.66054 10.1438C9.05552 11.4298 9.62044 12.6515 10.3553 13.8089ZM16.8036 13.8089C17.5384 12.6515 18.1033 11.4298 18.4983 10.1438C18.8933 8.85785 19.0908 7.59024 19.0908 6.341C19.0908 6.0838 19.077 5.86794 19.0495 5.69341C19.0219 5.51889 18.9898 5.37651 18.953 5.26628C18.5305 5.41325 18.1079 5.73934 17.6854 6.24455C17.2629 6.74976 16.8771 7.36979 16.528 8.10463C16.1973 8.82111 15.9172 9.61567 15.6875 10.4883C15.4579 11.3609 15.3155 12.2382 15.2604 13.12C15.536 13.1935 15.8024 13.2899 16.0595 13.4093C16.3167 13.5287 16.5648 13.6619 16.8036 13.8089Z" fill="#F9F9F9"/>
</g>
</svg>
