<svg width="25" height="26" viewBox="0 0 25 26" fill="none" xmlns="http://www.w3.org/2000/svg">
<mask id="mask0_6013_30701" style="mask-type:alpha" maskUnits="userSpaceOnUse" x="0" y="0" width="25" height="26">
<rect x="0.545532" y="0.932129" width="24.25" height="24.25" fill="#D9D9D9"/>
</mask>
<g mask="url(#mask0_6013_30701)">
<path d="M7.61853 23.1615C7.0628 23.1615 6.58706 22.9636 6.19132 22.5678C5.79557 22.1721 5.5977 21.6964 5.5977 21.1406C5.5977 20.5849 5.79557 20.1092 6.19132 19.7134C6.58706 19.3177 7.0628 19.1198 7.61853 19.1198C8.17426 19.1198 8.65 19.3177 9.04574 19.7134C9.44149 20.1092 9.63936 20.5849 9.63936 21.1406C9.63936 21.6964 9.44149 22.1721 9.04574 22.5678C8.65 22.9636 8.17426 23.1615 7.61853 23.1615ZM17.7227 23.1615C17.167 23.1615 16.6912 22.9636 16.2955 22.5678C15.8997 22.1721 15.7019 21.6964 15.7019 21.1406C15.7019 20.5849 15.8997 20.1092 16.2955 19.7134C16.6912 19.3177 17.167 19.1198 17.7227 19.1198C18.2784 19.1198 18.7542 19.3177 19.1499 19.7134C19.5457 20.1092 19.7435 20.5849 19.7435 21.1406C19.7435 21.6964 19.5457 22.1721 19.1499 22.5678C18.7542 22.9636 18.2784 23.1615 17.7227 23.1615ZM6.75968 6.99479L9.18468 12.0469H16.2576L19.0362 6.99479H6.75968ZM5.79978 4.97396H20.7034C21.0908 4.97396 21.3855 5.14657 21.5875 5.4918C21.7896 5.83702 21.798 6.18646 21.6128 6.5401L18.0258 13.0068C17.8406 13.3436 17.5922 13.6046 17.2806 13.7898C16.9691 13.9751 16.6281 14.0677 16.2576 14.0677H8.72999L7.61853 16.0885H19.7435V18.1094H7.61853C6.86072 18.1094 6.28815 17.7768 5.90082 17.1116C5.5135 16.4464 5.49666 15.7854 5.8503 15.1286L7.21436 12.6531L3.57686 4.97396H1.55603V2.95312H4.83988L5.79978 4.97396Z" fill="#F9F9F9"/>
</g>
</svg>
