<svg width="28" height="28" viewBox="0 0 28 28" fill="none" xmlns="http://www.w3.org/2000/svg">
<mask id="mask0_6012_30610" style="mask-type:alpha" maskUnits="userSpaceOnUse" x="0" y="0" width="28" height="28">
<rect x="0.625122" y="0.71582" width="26.4545" height="26.4545" fill="#D9D9D9"/>
</mask>
<g mask="url(#mask0_6012_30610)">
<path d="M13.8555 19.4018C14.1789 19.4018 14.4517 19.2907 14.674 19.0684C14.8961 18.8461 15.0071 18.5733 15.0071 18.25C15.0071 17.9268 14.8965 17.6541 14.6751 17.4318C14.4537 17.2095 14.1794 17.0984 13.8522 17.0984C13.5311 17.0984 13.2583 17.209 13.0338 17.4304C12.8095 17.6518 12.6973 17.9261 12.6973 18.2533C12.6973 18.5744 12.8095 18.8461 13.0338 19.0684C13.2583 19.2907 13.5322 19.4018 13.8555 19.4018ZM13.8555 15.098C14.1789 15.098 14.4517 14.9858 14.674 14.7615C14.8961 14.537 15.0071 14.2631 15.0071 13.9398C15.0071 13.6165 14.8965 13.3436 14.6751 13.1214C14.4537 12.8992 14.1794 12.7882 13.8522 12.7882C13.5311 12.7882 13.2583 12.8989 13.0338 13.1203C12.8095 13.3416 12.6973 13.6159 12.6973 13.9431C12.6973 14.2642 12.8095 14.537 13.0338 14.7615C13.2583 14.9858 13.5322 15.098 13.8555 15.098ZM13.8555 10.7878C14.1789 10.7878 14.4517 10.6756 14.674 10.4511C14.8961 10.2268 15.0071 9.95296 15.0071 9.62963C15.0071 9.30629 14.8965 9.03459 14.6751 8.8145C14.4537 8.59441 14.1794 8.48437 13.8522 8.48437C13.5311 8.48437 13.2583 8.59441 13.0338 8.8145C12.8095 9.03477 12.6973 9.30758 12.6973 9.63294C12.6973 9.95406 12.8095 10.2268 13.0338 10.4511C13.2583 10.6756 13.5322 10.7878 13.8555 10.7878ZM22.5913 22.9853H5.11314C4.41907 22.9853 3.82761 22.7409 3.33876 22.252C2.8499 21.7632 2.60547 21.1717 2.60547 20.4776V16.0291C3.20731 16.0291 3.72519 15.8264 4.15912 15.421C4.59305 15.0157 4.81001 14.5231 4.81001 13.9431C4.81001 13.3545 4.59305 12.8597 4.15912 12.4586C3.72519 12.0576 3.20731 11.857 2.60547 11.857V7.40855C2.60547 6.71448 2.8499 6.12302 3.33876 5.63417C3.82761 5.14531 4.41907 4.90088 5.11314 4.90088H22.5913C23.2854 4.90088 23.8769 5.14531 24.3657 5.63417C24.8546 6.12302 25.099 6.71448 25.099 7.40855V11.857C24.5016 11.857 23.9848 12.0576 23.5487 12.4586C23.1125 12.8597 22.8945 13.3545 22.8945 13.9431C22.8945 14.5231 23.1125 15.0157 23.5487 15.421C23.9848 15.8264 24.5016 16.0291 25.099 16.0291V20.4776C25.099 21.1717 24.8546 21.7632 24.3657 22.252C23.8769 22.7409 23.2854 22.9853 22.5913 22.9853ZM22.5913 20.4776V17.779C21.916 17.3704 21.3797 16.8278 20.9826 16.1512C20.5854 15.4746 20.3868 14.7377 20.3868 13.9406C20.3868 13.1435 20.5854 12.4074 20.9826 11.7325C21.3797 11.0575 21.916 10.5158 22.5913 10.1072V7.40855H5.11314V10.1072C5.79728 10.5158 6.33574 11.0579 6.72852 11.7336C7.1213 12.4091 7.31768 13.1449 7.31768 13.9409C7.31768 14.7367 7.1213 15.4732 6.72852 16.1504C6.33574 16.8276 5.79728 17.3704 5.11314 17.779V20.4776H22.5913Z" fill="#F9F9F9"/>
</g>
</svg>
