<svg width="46" height="46" viewBox="0 0 46 46" fill="none" xmlns="http://www.w3.org/2000/svg">
<g filter="url(#filter0_d_5275_40543)">
<rect x="4" width="38" height="38" rx="13" fill="#4E4E4E"/>
<path d="M18.8785 17.5828C18.3722 17.5828 18.1875 18.275 18.6218 18.5453L22.9787 21.2574C23.1368 21.3558 23.3343 21.3557 23.4923 21.2573L31.7576 16.1099C32.0808 15.9086 32.0808 15.4225 31.7576 15.2212L23.4924 10.0738C23.3343 9.97539 23.1368 9.97539 22.9787 10.0738L15.5455 14.7031C15.1113 14.9734 15.296 15.6656 15.8023 15.6656H22.7363C23.012 15.6656 23.2355 15.8975 23.2355 16.1837V17.0646C23.2355 17.3508 23.012 17.5828 22.7363 17.5828H18.8785ZM14.7561 18.0536C14.4233 17.8464 14 18.0952 14 18.498V23.9023C14 24.3771 14.564 24.6019 14.8701 24.2492L15.7188 23.2714C15.8014 23.1762 15.8471 23.0527 15.8471 22.9246V19.0265C15.8471 18.8445 15.7551 18.6758 15.6047 18.5822L14.7561 18.0536ZM23.4924 28.9262C23.3343 29.0246 23.1368 29.0246 22.9787 28.9262L17.013 25.2109C16.8627 25.1172 16.7707 24.9486 16.7707 24.7666V20.2235C16.7707 19.8207 17.194 19.5719 17.5267 19.7791L22.9787 23.1745C23.1368 23.2729 23.3343 23.2729 23.4924 23.1745L28.9444 19.7791C29.2771 19.5719 29.7004 19.8207 29.7004 20.2235V24.7666C29.7004 24.9486 29.6084 25.1172 29.4581 25.2109L23.4924 28.9262Z" fill="#F9F9F9"/>
</g>
<defs>
<filter id="filter0_d_5275_40543" x="0" y="0" width="46" height="46" filterUnits="userSpaceOnUse" color-interpolation-filters="sRGB">
<feFlood flood-opacity="0" result="BackgroundImageFix"/>
<feColorMatrix in="SourceAlpha" type="matrix" values="0 0 0 0 0 0 0 0 0 0 0 0 0 0 0 0 0 0 127 0" result="hardAlpha"/>
<feOffset dy="4"/>
<feGaussianBlur stdDeviation="2"/>
<feComposite in2="hardAlpha" operator="out"/>
<feColorMatrix type="matrix" values="0 0 0 0 0 0 0 0 0 0 0 0 0 0 0 0 0 0 0.25 0"/>
<feBlend mode="normal" in2="BackgroundImageFix" result="effect1_dropShadow_5275_40543"/>
<feBlend mode="normal" in="SourceGraphic" in2="effect1_dropShadow_5275_40543" result="shape"/>
</filter>
</defs>
</svg>
