<svg width="28" height="28" viewBox="0 0 28 28" fill="none" xmlns="http://www.w3.org/2000/svg">
<mask id="mask0_6014_30733" style="mask-type:alpha" maskUnits="userSpaceOnUse" x="0" y="0" width="28" height="28">
<rect x="0.625122" y="0.82959" width="26.4545" height="26.4545" fill="#D9D9D9"/>
</mask>
<g mask="url(#mask0_6014_30733)">
<path d="M12.3643 22.8751C12.199 22.3974 11.9877 21.9565 11.7305 21.5524C11.4733 21.1482 11.1702 20.7716 10.8211 20.4225C10.4721 20.0735 10.0955 19.7658 9.6913 19.4994C9.28714 19.233 8.84623 19.0171 8.36858 18.8518C8.40532 19.3846 8.53392 19.8806 8.75437 20.3399C8.97483 20.7991 9.26877 21.2125 9.63619 21.5799C10.0036 21.9473 10.417 22.2459 10.8762 22.4755C11.3355 22.7052 11.8316 22.8383 12.3643 22.8751ZM15.3405 22.8751C15.8732 22.82 16.3692 22.6822 16.8285 22.4617C17.2878 22.2413 17.7012 21.9473 18.0686 21.5799C18.436 21.2125 18.7299 20.7991 18.9504 20.3399C19.1708 19.8806 19.3086 19.3846 19.3637 18.8518C18.8861 19.0171 18.4406 19.2284 18.0272 19.4856C17.6139 19.7428 17.2327 20.0459 16.8836 20.395C16.5346 20.744 16.2315 21.1252 15.9743 21.5386C15.7171 21.9519 15.5058 22.3974 15.3405 22.8751ZM13.8524 12.9546C15.0649 12.9546 16.1029 12.5229 16.9663 11.6595C17.8298 10.796 18.2615 9.75804 18.2615 8.54554V7.22282L16.3325 8.84867L13.8524 5.84498L11.3723 8.84867L9.44329 7.22282V8.54554C9.44329 9.75804 9.87502 10.796 10.7385 11.6595C11.6019 12.5229 12.6399 12.9546 13.8524 12.9546ZM12.7501 25.0796C10.913 25.0796 9.35144 24.4366 8.06545 23.1507C6.77947 21.8647 6.13647 20.3031 6.13647 18.466V16.2615C7.44083 16.2431 8.6717 16.5095 9.82909 17.0606C10.9865 17.6117 11.9601 18.3558 12.7501 19.2927V15.0765C11.1702 14.8193 9.85665 14.0799 8.80949 12.8582C7.76233 11.6365 7.23875 10.199 7.23875 8.54554V4.79782C7.23875 4.32016 7.45002 3.98489 7.87255 3.79199C8.29509 3.59909 8.69007 3.6588 9.0575 3.97111L11.0967 5.73475L12.9981 3.41998C13.2186 3.16278 13.5033 3.03418 13.8524 3.03418C14.2014 3.03418 14.4862 3.16278 14.7066 3.41998L16.6081 5.73475L18.6473 3.97111C19.0147 3.6588 19.4097 3.59909 19.8322 3.79199C20.2548 3.98489 20.466 4.32016 20.466 4.79782V8.54554C20.466 10.199 19.9424 11.6365 18.8953 12.8582C17.8481 14.0799 16.5346 14.8193 14.9547 15.0765V19.2927C15.7446 18.3558 16.7183 17.6117 17.8757 17.0606C19.0331 16.5095 20.2639 16.2431 21.5683 16.2615V18.466C21.5683 20.3031 20.9253 21.8647 19.6393 23.1507C18.3533 24.4366 16.7918 25.0796 14.9547 25.0796H12.7501Z" fill="#F9F9F9"/>
</g>
</svg>
