<svg width="25" height="26" viewBox="0 0 25 26" fill="none" xmlns="http://www.w3.org/2000/svg">
<mask id="mask0_6011_30601" style="mask-type:alpha" maskUnits="userSpaceOnUse" x="0" y="0" width="25" height="26">
<rect x="0.00012207" y="0.818359" width="24.25" height="24.25" fill="#D9D9D9"/>
</mask>
<g mask="url(#mask0_6011_30601)">
<path d="M13.0774 13.8631C12.5345 13.1738 11.8434 12.6949 11.0041 12.4263C10.1648 12.1578 9.29748 12.0236 8.40225 12.0236C7.50702 12.0236 6.63949 12.1578 5.79967 12.4263C4.95984 12.6949 4.26846 13.1738 3.72553 13.8631H13.0774ZM0.823364 15.9746C0.823364 14.139 1.5896 12.6697 3.12206 11.5667C4.65453 10.4636 6.41434 9.91211 8.40149 9.91211C10.3886 9.91211 12.1485 10.4636 13.6809 11.5667C15.2134 12.6697 15.9796 14.139 15.9796 15.9746H0.823364ZM0.823364 20.0585V17.9472H15.9796V20.0585H0.823364ZM18.0004 24.2451V21.9464H19.5055L20.89 7.98197H11.2645L10.9879 5.68327H16.046V1.6416H18.2541V5.68327H23.4269L21.7296 22.7197C21.6791 23.1528 21.4949 23.5154 21.1769 23.8074C20.859 24.0992 20.4855 24.2451 20.0564 24.2451H18.0004ZM1.93028 24.2451C1.61991 24.2451 1.35779 24.1383 1.14392 23.9246C0.930216 23.7107 0.823364 23.4486 0.823364 23.1382V22.1339H15.9796V23.1382C15.9796 23.4486 15.8741 23.7107 15.6631 23.9246C15.4519 24.1383 15.1904 24.2451 14.8785 24.2451H1.93028Z" fill="#F9F9F9"/>
</g>
</svg>
