<svg width="38" height="38" viewBox="0 0 38 38" fill="none" xmlns="http://www.w3.org/2000/svg">
<rect width="38" height="38" rx="13" fill="#4E4E4E"/>
<path d="M23.9742 27.735C23.9742 28.0224 24.2078 28.2554 24.4961 28.2554H25.4312C26.1685 28.2554 26.7742 27.6865 26.8619 26.9688L28.2527 13.117C28.2835 12.8106 28.0422 12.5447 27.7334 12.5447H24.4434C24.1552 12.5447 23.9215 12.3117 23.9215 12.0243V9.52042C23.9215 9.233 23.6878 9 23.3996 9H22.7143C22.426 9 22.1924 9.233 22.1924 9.52042V12.0243C22.1924 12.3117 21.9587 12.5447 21.6705 12.5447H18.4231C18.1085 12.5447 17.8654 12.8202 17.9054 13.1313L18.0491 14.249C18.0759 14.4572 18.2259 14.6279 18.4269 14.6902C19.8004 15.1154 21.0614 15.8094 21.8413 16.5709C23.1052 17.8137 23.9742 19.1003 23.9742 21.2009V27.735ZM9 27.3801V27.0253C9 26.7379 9.23366 26.5049 9.5219 26.5049H21.6705C21.9587 26.5049 22.1924 26.7379 22.1924 27.0253V27.3801C22.1924 27.8528 21.7974 28.2554 21.2883 28.2554H9.87774C9.39498 28.2554 9 27.8528 9 27.3801ZM21.6705 21.2534C21.9587 21.2534 22.1953 21.0169 22.167 20.7309C21.5442 14.4257 9.64822 14.4257 9.02535 20.7309C8.9971 21.0169 9.23366 21.2534 9.5219 21.2534H21.6705ZM9 23.5243C9 23.2369 9.23366 23.0039 9.5219 23.0039H21.6441C21.9324 23.0039 22.166 23.2369 22.166 23.5243V24.234C22.166 24.5214 21.9324 24.7544 21.6441 24.7544H9.5219C9.23366 24.7544 9 24.5214 9 24.234V23.5243Z" fill="#F9F9F9"/>
</svg>
