<svg width="27" height="28" viewBox="0 0 27 28" fill="none" xmlns="http://www.w3.org/2000/svg">
<mask id="mask0_6014_30715" style="mask-type:alpha" maskUnits="userSpaceOnUse" x="0" y="0" width="27" height="28">
<rect x="0.170532" y="0.82959" width="26.4545" height="26.4545" fill="#D9D9D9"/>
</mask>
<g mask="url(#mask0_6014_30715)">
<path d="M4.57971 23.9771V6.34078C4.57971 5.73453 4.79557 5.21554 5.2273 4.78382C5.65902 4.35209 6.17801 4.13623 6.78426 4.13623H13.3979C14.0041 4.13623 14.5231 4.35209 14.9549 4.78382C15.3866 5.21554 15.6024 5.73453 15.6024 6.34078V14.0567H16.7047C17.311 14.0567 17.8299 14.2725 18.2617 14.7043C18.6934 15.136 18.9093 15.655 18.9093 16.2612V21.2215C18.9093 21.5338 19.0149 21.7956 19.2262 22.0068C19.4374 22.2181 19.6992 22.3237 20.0115 22.3237C20.3238 22.3237 20.5856 22.2181 20.7969 22.0068C21.0082 21.7956 21.1138 21.5338 21.1138 21.2215V13.2851C20.9485 13.377 20.7739 13.4367 20.5902 13.4642C20.4065 13.4918 20.2136 13.5055 20.0115 13.5055C19.2399 13.5055 18.5878 13.2392 18.055 12.7064C17.5222 12.1736 17.2558 11.5215 17.2558 10.7499C17.2558 10.162 17.4166 9.63382 17.7381 9.16535C18.0596 8.69688 18.4867 8.36161 19.0195 8.15953L16.7047 5.84475L17.8621 4.68737L21.9405 8.65555C22.2161 8.93112 22.4228 9.25261 22.5605 9.62004C22.6983 9.98746 22.7672 10.3641 22.7672 10.7499V21.2215C22.7672 21.993 22.5008 22.6452 21.9681 23.178C21.4353 23.7108 20.7831 23.9771 20.0115 23.9771C19.2399 23.9771 18.5878 23.7108 18.055 23.178C17.5222 22.6452 17.2558 21.993 17.2558 21.2215V15.7101H15.6024V23.9771H4.57971ZM6.78426 11.8521H13.3979V6.34078H6.78426V11.8521ZM20.0115 11.8521C20.3238 11.8521 20.5856 11.7465 20.7969 11.5352C21.0082 11.324 21.1138 11.0622 21.1138 10.7499C21.1138 10.4376 21.0082 10.1758 20.7969 9.9645C20.5856 9.75323 20.3238 9.64759 20.0115 9.64759C19.6992 9.64759 19.4374 9.75323 19.2262 9.9645C19.0149 10.1758 18.9093 10.4376 18.9093 10.7499C18.9093 11.0622 19.0149 11.324 19.2262 11.5352C19.4374 11.7465 19.6992 11.8521 20.0115 11.8521ZM6.78426 21.7726H13.3979V14.0567H6.78426V21.7726Z" fill="#F9F9F9"/>
</g>
</svg>
