<svg width="38" height="38" viewBox="0 0 38 38" fill="none" xmlns="http://www.w3.org/2000/svg">
<rect width="38" height="38" rx="13" fill="#4E4E4E"/>
<path d="M26.2727 26.3H28V28H9V26.3H10.7273V11.85C10.7273 11.6246 10.8183 11.4084 10.9802 11.249C11.1422 11.0896 11.3619 11 11.5909 11H25.4091C25.6381 11 25.8578 11.0896 26.0198 11.249C26.1817 11.4084 26.2727 11.6246 26.2727 11.85V26.3ZM17.6364 16.1H15.9091V17.8H17.6364V19.5H19.3636V17.8H21.0909V16.1H19.3636V14.4H17.6364V16.1ZM20.2273 26.3H21.9545V21.2H15.0455V26.3H16.7727V22.9H20.2273V26.3Z" fill="#F9F9F9"/>
</svg>
