<svg width="38" height="38" viewBox="0 0 38 38" fill="none" xmlns="http://www.w3.org/2000/svg">
<rect width="38" height="38" rx="13" fill="#4E4E4E"/>
<path d="M29.9942 19.4814C29.9942 20.1494 29.4213 20.6727 28.7719 20.6727H27.5496L27.5763 26.6176C27.5763 26.7178 27.5687 26.818 27.5572 26.9182V27.5156C27.5572 28.3357 26.8735 29 26.0293 29H25.4181C25.3761 29 25.3341 29 25.2921 28.9963C25.2386 29 25.1851 29 25.1317 29H22.9735C22.1293 29 21.4456 28.3357 21.4456 27.5156V24.25C21.4456 23.5932 20.8994 23.0625 20.2233 23.0625H17.7786C17.1025 23.0625 16.5563 23.5932 16.5563 24.25V27.5156C16.5563 28.3357 15.8725 29 15.0284 29H12.8931C12.8358 29 12.7785 28.9963 12.7212 28.9926C12.6754 28.9963 12.6296 29 12.5837 29H11.9726C11.1284 29 10.4447 28.3357 10.4447 27.5156V23.3594C10.4447 23.326 10.4447 23.2889 10.4485 23.2555V20.6727H9.22233C8.53477 20.6727 8 20.1531 8 19.4814C8 19.1475 8.11459 18.8506 8.38198 18.5908L18.1759 10.2969C18.4432 10.0371 18.7488 10 19.0162 10C19.2836 10 19.5892 10.0742 19.8184 10.2598L29.5741 18.5908C29.8796 18.8506 30.0324 19.1475 29.9942 19.4814Z" fill="#F9F9F9"/>
</svg>
