<svg width="28" height="28" viewBox="0 0 28 28" fill="none" xmlns="http://www.w3.org/2000/svg">
<mask id="mask0_6011_30501" style="mask-type:alpha" maskUnits="userSpaceOnUse" x="0" y="0" width="28" height="28">
<rect x="0.715942" y="0.71582" width="26.4545" height="26.4545" fill="#D9D9D9"/>
</mask>
<g mask="url(#mask0_6011_30501)">
<path d="M5.12518 23.8638V13.53L3.14109 15.0456L1.81836 13.282L5.12518 10.7468V7.32972H7.32972V9.0658L13.9434 4.0229L26.0684 13.282L24.7456 15.0181L22.7615 13.53V23.8638H5.12518ZM7.32972 21.6593H12.8411V17.2502H15.0456V21.6593H20.557V11.849L13.9434 6.80614L7.32972 11.849V21.6593ZM5.12518 6.22745C5.12518 5.30889 5.44667 4.52811 6.08967 3.88512C6.73266 3.24213 7.51344 2.92063 8.432 2.92063C8.74431 2.92063 9.0061 2.815 9.21737 2.60373C9.42863 2.39246 9.53427 2.13067 9.53427 1.81836H11.7388C11.7388 2.73692 11.4173 3.5177 10.7743 4.16069C10.1313 4.80368 9.35056 5.12518 8.432 5.12518C8.11969 5.12518 7.8579 5.23081 7.64663 5.44208C7.43536 5.65335 7.32972 5.91514 7.32972 6.22745H5.12518Z" fill="#F9F9F9"/>
</g>
</svg>
