<svg width="38" height="38" viewBox="0 0 38 38" fill="none" xmlns="http://www.w3.org/2000/svg">
<rect width="38" height="38" rx="13" fill="#4E4E4E"/>
<path d="M20.1388 10.541C19.543 9.81967 18.457 9.81967 17.8612 10.541C15.8782 12.942 12 18.1461 12 22.1258C12 26.3439 14.7047 29 19 29C23.2953 29 26 26.3439 26 22.1258C26 18.1461 22.1218 12.942 20.1388 10.541ZM20.3598 26.4761C20.0407 26.5216 19.7778 26.2608 19.7778 25.9442C19.7778 25.628 20.0411 25.3774 20.3566 25.3144C20.9141 25.203 21.4309 24.933 21.8392 24.532C22.2475 24.1311 22.5224 23.6236 22.6358 23.0761C22.7 22.7663 22.9552 22.5077 23.2771 22.5077C23.5996 22.5077 23.8651 22.7659 23.8189 23.0792C23.6932 23.931 23.2908 24.7262 22.6639 25.3419C22.0369 25.9576 21.2271 26.3527 20.3598 26.4761Z" fill="#F9F9F9"/>
</svg>
