<svg width="27" height="28" viewBox="0 0 27 28" fill="none" xmlns="http://www.w3.org/2000/svg">
<mask id="mask0_6011_30567" style="mask-type:alpha" maskUnits="userSpaceOnUse" x="0" y="0" width="27" height="28">
<rect x="0.170532" y="0.71582" width="26.4545" height="26.4545" fill="#D9D9D9"/>
</mask>
<g mask="url(#mask0_6011_30567)">
<path d="M5.68192 22.7611V20.5566H7.88646V16.1475L1.27283 6.22705H16.7046L10.091 16.1475V20.5566H12.2956V22.7611H5.68192ZM6.67396 10.6361H11.3035L12.8467 8.4316H5.13078L6.67396 10.6361ZM17.8069 22.7611C16.8884 22.7611 16.1076 22.4396 15.4646 21.7967C14.8216 21.1537 14.5001 20.3729 14.5001 19.4543C14.5001 18.5358 14.8216 17.755 15.4646 17.112C16.1076 16.469 16.8884 16.1475 17.8069 16.1475C18.009 16.1475 18.2019 16.1613 18.3856 16.1888C18.5693 16.2164 18.7439 16.2761 18.9092 16.368V6.22705H24.4206V9.53387H21.1137V19.4543C21.1137 20.3729 20.7922 21.1537 20.1492 21.7967C19.5063 22.4396 18.7255 22.7611 17.8069 22.7611Z" fill="#F9F9F9"/>
</g>
</svg>
