<svg width="27" height="28" viewBox="0 0 27 28" fill="none" xmlns="http://www.w3.org/2000/svg">
<mask id="mask0_6010_30482" style="mask-type:alpha" maskUnits="userSpaceOnUse" x="0" y="0" width="27" height="28">
<rect x="0.443237" y="0.71582" width="26.4545" height="26.4545" fill="#D9D9D9"/>
</mask>
<g mask="url(#mask0_6010_30482)">
<path d="M11.7692 13.9432C11.2548 13.9432 10.8323 13.7503 10.5016 13.3645C10.1709 12.9787 10.0515 12.5286 10.1434 12.0142L10.474 10.0302C10.621 9.2402 10.993 8.59261 11.5901 8.0874C12.1872 7.58219 12.8807 7.32959 13.6706 7.32959C14.479 7.32959 15.1817 7.58219 15.7787 8.0874C16.3758 8.59261 16.7478 9.2402 16.8948 10.0302L17.2255 12.0142C17.3173 12.5286 17.1979 12.9787 16.8672 13.3645C16.5365 13.7503 16.114 13.9432 15.5996 13.9432H11.7692ZM12.4306 11.7387H14.9382L14.7178 10.3884C14.681 10.1312 14.5616 9.92452 14.3596 9.76837C14.1575 9.61221 13.9278 9.53414 13.6706 9.53414C13.4134 9.53414 13.1884 9.61221 12.9955 9.76837C12.8026 9.92452 12.6878 10.1312 12.651 10.3884L12.4306 11.7387ZM3.8604 15.0179C3.43787 15.0363 3.07504 14.9536 2.77191 14.7699C2.46879 14.5862 2.2713 14.3015 2.17944 13.9157C2.1427 13.7503 2.13351 13.585 2.15188 13.4196C2.17025 13.2543 2.21618 13.0982 2.28967 12.9512C2.28967 12.9696 2.28048 12.9328 2.26211 12.841C2.22537 12.8042 2.13351 12.5838 1.98654 12.1796C1.9498 11.9591 1.97736 11.7479 2.06921 11.5458C2.16107 11.3437 2.28048 11.1692 2.42745 11.0222L2.48256 10.9671C2.51931 10.618 2.66168 10.3241 2.90969 10.0853C3.15771 9.84645 3.46542 9.72703 3.83285 9.72703C3.88796 9.72703 4.06249 9.76378 4.35643 9.83726L4.4391 9.8097C4.53095 9.71785 4.65037 9.64896 4.79734 9.60303C4.94431 9.5571 5.10046 9.53414 5.2658 9.53414C5.46789 9.53414 5.64701 9.56629 5.80316 9.63058C5.95932 9.69488 6.08332 9.79133 6.17518 9.91993C6.19355 9.91993 6.20733 9.92452 6.21651 9.93371C6.2257 9.94289 6.23948 9.94749 6.25785 9.94749C6.51505 9.96586 6.74009 10.0439 6.93299 10.1817C7.12589 10.3195 7.26826 10.5078 7.36012 10.7466C7.39686 10.8752 7.41064 10.9992 7.40146 11.1187C7.39227 11.2381 7.36931 11.3529 7.33256 11.4631C7.33256 11.4815 7.34175 11.5182 7.36012 11.5733C7.48872 11.7019 7.58976 11.8443 7.66325 12.0005C7.73673 12.1566 7.77347 12.3174 7.77347 12.4827C7.77347 12.5562 7.71836 12.7491 7.60813 13.0614C7.58976 13.0982 7.58976 13.1349 7.60813 13.1716L7.66325 13.6125C7.66325 13.9983 7.5025 14.329 7.181 14.6046C6.85951 14.8802 6.46912 15.0179 6.00984 15.0179H3.8604ZM22.4888 15.0455C21.8826 15.0455 21.3636 14.8296 20.9319 14.3979C20.5001 13.9662 20.2843 13.4472 20.2843 12.841C20.2843 12.6205 20.3164 12.4138 20.3807 12.2209C20.445 12.028 20.5323 11.8397 20.6425 11.656L19.8709 10.9671C19.6872 10.8201 19.6551 10.6364 19.7745 10.416C19.8939 10.1955 20.0638 10.0853 20.2843 10.0853H22.4888C23.0951 10.0853 23.6141 10.3011 24.0458 10.7329C24.4775 11.1646 24.6934 11.6836 24.6934 12.2898V12.841C24.6934 13.4472 24.4775 13.9662 24.0458 14.3979C23.6141 14.8296 23.0951 15.0455 22.4888 15.0455ZM0.443359 20.5569V18.8208C0.443359 18.0125 0.852119 17.3649 1.66964 16.878C2.48716 16.3912 3.54809 16.1478 4.85245 16.1478C5.09128 16.1478 5.32092 16.1524 5.54137 16.1615C5.76183 16.1707 5.97309 16.1937 6.17518 16.2304C5.91798 16.5979 5.72508 16.9928 5.59648 17.4154C5.46789 17.8379 5.40359 18.288 5.40359 18.7657V20.5569H0.443359ZM7.057 20.5569V18.7657C7.057 17.5715 7.66784 16.6071 8.88952 15.8722C10.1112 15.1374 11.7049 14.7699 13.6706 14.7699C15.6547 14.7699 17.253 15.1374 18.4655 15.8722C19.678 16.6071 20.2843 17.5715 20.2843 18.7657V20.5569H7.057ZM22.4888 16.1478C23.8115 16.1478 24.8771 16.3912 25.6854 16.878C26.4937 17.3649 26.8979 18.0125 26.8979 18.8208V20.5569H21.9377V18.7657C21.9377 18.288 21.878 17.8379 21.7586 17.4154C21.6391 16.9928 21.46 16.5979 21.2212 16.2304C21.4233 16.1937 21.63 16.1707 21.8412 16.1615C22.0525 16.1524 22.2684 16.1478 22.4888 16.1478ZM13.6706 16.9745C12.6235 16.9745 11.6865 17.1123 10.8598 17.3878C10.0331 17.6634 9.5463 17.9849 9.39933 18.3523H17.9695C17.8042 17.9849 17.3127 17.6634 16.4952 17.3878C15.6777 17.1123 14.7362 16.9745 13.6706 16.9745Z" fill="#F9F9F9"/>
</g>
</svg>
