<svg width="28" height="28" viewBox="0 0 28 28" fill="none" xmlns="http://www.w3.org/2000/svg">
<mask id="mask0_6014_30724" style="mask-type:alpha" maskUnits="userSpaceOnUse" x="0" y="0" width="28" height="28">
<rect x="0.897827" y="0.932129" width="26.4545" height="26.4545" fill="#D9D9D9"/>
</mask>
<g mask="url(#mask0_6014_30724)">
<path d="M9.3027 7.98672L12.3891 3.99098C12.6095 3.69704 12.8713 3.48118 13.1744 3.34339C13.4776 3.20561 13.7945 3.13672 14.1251 3.13672C14.4558 3.13672 14.7727 3.20561 15.0759 3.34339C15.379 3.48118 15.6408 3.69704 15.8612 3.99098L18.9476 7.98672L23.6322 9.55746C24.1099 9.70443 24.4865 9.9754 24.7621 10.3704C25.0376 10.7654 25.1754 11.2017 25.1754 11.6793C25.1754 11.8998 25.1433 12.1202 25.079 12.3407C25.0147 12.5612 24.909 12.7724 24.7621 12.9745L21.7308 17.2734L21.8411 21.7927C21.8594 22.4357 21.6482 22.9776 21.2072 23.4185C20.7663 23.8594 20.2519 24.0799 19.6641 24.0799C19.6273 24.0799 19.4252 24.0523 19.0578 23.9972L14.1251 22.6194L9.19247 23.9972C9.10062 24.034 8.99958 24.0569 8.88935 24.0661C8.77912 24.0753 8.67808 24.0799 8.58622 24.0799C7.99834 24.0799 7.48395 23.8594 7.04304 23.4185C6.60213 22.9776 6.39086 22.4357 6.40924 21.7927L6.51946 17.2458L3.51577 12.9745C3.3688 12.7724 3.26317 12.5612 3.19887 12.3407C3.13457 12.1202 3.10242 11.8998 3.10242 11.6793C3.10242 11.2201 3.23561 10.7929 3.50199 10.3979C3.76837 10.003 4.14039 9.7228 4.61804 9.55746L9.3027 7.98672ZM10.653 9.88814L5.30696 11.6518L8.72401 16.5844L8.61378 21.8478L14.1251 20.3322L19.6365 21.8754L19.5263 16.5844L22.9433 11.7069L17.5973 9.88814L14.1251 5.34126L10.653 9.88814Z" fill="#F9F9F9"/>
</g>
</svg>
