<svg width="38" height="38" viewBox="0 0 38 38" fill="none" xmlns="http://www.w3.org/2000/svg">
<rect width="38" height="38" rx="13" fill="#4E4E4E"/>
<path fill-rule="evenodd" clip-rule="evenodd" d="M13.4252 20.5854C13.8719 21.144 15.0085 23.2136 15.2499 24.25H21.7502C21.9916 23.2145 23.1268 21.1449 23.5735 20.5868C24.3368 19.6343 24.8173 18.4779 24.9581 17.2547C25.097 16.0338 24.8892 14.7978 24.3596 13.6946C23.8249 12.5831 22.9937 11.6492 21.9619 11.0008C20.9211 10.3459 19.7229 9.99941 18.501 10C17.2766 10 16.0769 10.3468 15.0401 10.9999C14.008 11.648 13.1764 12.5817 12.6415 13.6931C12.1116 14.796 11.9033 16.0316 12.0416 17.2523C12.1804 18.4716 12.66 19.6273 13.4252 20.5854ZM18.9644 13.8L16.1785 18.075H18.0358V20.925L20.8216 16.65H18.9644V13.8Z" fill="#F9F9F9"/>
<path d="M15.2499 25.675C15.2499 25.549 15.2988 25.4282 15.3859 25.3391C15.473 25.25 15.5911 25.2 15.7142 25.2H21.2859C21.409 25.2 21.5271 25.25 21.6142 25.3391C21.7013 25.4282 21.7502 25.549 21.7502 25.675C21.7502 25.801 21.7013 25.9218 21.6142 26.0109C21.5271 26.1 21.409 26.15 21.2859 26.15H15.7142C15.5911 26.15 15.473 26.1 15.3859 26.0109C15.2988 25.9218 15.2499 25.801 15.2499 25.675ZM21.7502 27.1H15.2499V28.05C15.2499 28.302 15.3478 28.5436 15.5219 28.7218C15.6961 28.8999 15.9323 29 16.1785 29H20.8216C21.0679 29 21.3041 28.8999 21.4782 28.7218C21.6523 28.5436 21.7502 28.302 21.7502 28.05V27.1Z" fill="#F9F9F9"/>
</svg>
