<svg width="28" height="28" viewBox="0 0 28 28" fill="none" xmlns="http://www.w3.org/2000/svg">
<mask id="mask0_6013_30688" style="mask-type:alpha" maskUnits="userSpaceOnUse" x="0" y="0" width="28" height="28">
<rect x="0.715942" y="0.82959" width="26.4545" height="26.4545" fill="#D9D9D9"/>
</mask>
<g mask="url(#mask0_6013_30688)">
<path d="M12.841 20.6705H13.9433L18.3524 14.0569H15.0456V9.64782H13.9433L9.53421 16.2615H12.841V20.6705ZM13.9433 25.0796C11.4264 25.0796 9.32754 24.2162 7.64657 22.4893C5.96561 20.7624 5.12512 18.613 5.12512 16.041C5.12512 14.2039 5.85538 12.206 7.31589 10.0474C8.7764 7.88877 10.9855 5.55104 13.9433 3.03418C16.9011 5.55104 19.1102 7.88877 20.5707 10.0474C22.0312 12.206 22.7615 14.2039 22.7615 16.041C22.7615 18.613 21.921 20.7624 20.24 22.4893C18.5591 24.2162 16.4602 25.0796 13.9433 25.0796ZM13.9433 22.8751C15.8539 22.8751 17.4338 22.2275 18.6831 20.9323C19.9323 19.6372 20.5569 18.0067 20.5569 16.041C20.5569 14.6999 20.0012 13.1843 18.8898 11.4941C17.7783 9.80397 16.1295 7.95766 13.9433 5.9552C11.7571 7.95766 10.1083 9.80397 8.99686 11.4941C7.8854 13.1843 7.32967 14.6999 7.32967 16.041C7.32967 18.0067 7.95429 19.6372 9.20353 20.9323C10.4528 22.2275 12.0327 22.8751 13.9433 22.8751Z" fill="#F9F9F9"/>
</g>
</svg>
